<?xml version="1.0" encoding="UTF-8" standalone="no"?>
<!-- Created with Inkscape (http://www.inkscape.org/) -->
<svg
   xmlns:dc="http://purl.org/dc/elements/1.1/"
   xmlns:cc="http://creativecommons.org/ns#"
   xmlns:rdf="http://www.w3.org/1999/02/22-rdf-syntax-ns#"
   xmlns:svg="http://www.w3.org/2000/svg"
   xmlns="http://www.w3.org/2000/svg"
   xmlns:sodipodi="http://sodipodi.sourceforge.net/DTD/sodipodi-0.dtd"
   xmlns:inkscape="http://www.inkscape.org/namespaces/inkscape"
   width="600"
   height="480"
   id="svg3437"
   sodipodi:version="0.32"
   inkscape:version="0.46"
   version="1.0"
   sodipodi:docname="exherbo-zebrapig-zoink.svg"
   inkscape:output_extension="org.inkscape.output.svg.inkscape">
  <defs
     id="defs3439" />
  <sodipodi:namedview
     id="base"
     pagecolor="#99ff88"
     bordercolor="#666666"
     borderopacity="1.0"
     gridtolerance="10000"
     guidetolerance="10"
     objecttolerance="10"
     inkscape:pageopacity="1"
     inkscape:pageshadow="2"
     inkscape:zoom="1"
     inkscape:cx="392.72789"
     inkscape:cy="231.23173"
     inkscape:document-units="px"
     inkscape:current-layer="svg3437"
     showgrid="false"
     width="600px"
     inkscape:window-width="1280"
     inkscape:window-height="739"
     inkscape:window-x="-5"
     inkscape:window-y="36" />
  <metadata
     id="metadata3442">
    <rdf:RDF>
      <cc:Work
         rdf:about="">
        <dc:format>image/svg+xml</dc:format>
        <dc:type
           rdf:resource="http://purl.org/dc/dcmitype/StillImage" />
        <cc:license
           rdf:resource="http://creativecommons.org/licenses/by-nc/3.0/" />
      </cc:Work>
      <cc:License
         rdf:about="http://creativecommons.org/licenses/by-nc/3.0/">
        <cc:permits
           rdf:resource="http://creativecommons.org/ns#Reproduction" />
        <cc:permits
           rdf:resource="http://creativecommons.org/ns#Distribution" />
        <cc:requires
           rdf:resource="http://creativecommons.org/ns#Notice" />
        <cc:requires
           rdf:resource="http://creativecommons.org/ns#Attribution" />
        <cc:prohibits
           rdf:resource="http://creativecommons.org/ns#CommercialUse" />
        <cc:permits
           rdf:resource="http://creativecommons.org/ns#DerivativeWorks" />
      </cc:License>
    </rdf:RDF>
  </metadata>
  <g
     id="g2560-anchorLeft"
     inkscape:label="#g2560">
    <g
       transform="matrix(1.3480542,0,0,1.3480542,-332.10951,-88.324138)"
       id="g3925">
      <path
         id="path6457"
         d="M 292.34172,208.19065 C 291.56926,207.73146 282.75492,202.35603 281.78914,195.59556 C 280.77899,188.52449 281.78914,184.48388 281.78914,184.48388 C 281.78915,184.48388 289.55296,186.92676 294.41604,192.06002 C 296.88969,194.6711 298.65291,196.79609 299.90915,198.50621"
         style="fill:#ffffff;fill-opacity:1;fill-rule:evenodd;stroke:#000000;stroke-width:5;stroke-linecap:butt;stroke-linejoin:miter;stroke-miterlimit:4;stroke-dasharray:none;stroke-opacity:1" />
      <path
         id="path6459"
         d="M 378.36021,299.15409 C 378.36021,299.15409 403.36684,292.90243 409.09752,301.23797 C 414.82821,309.57351 416.91209,310.61546 409.61849,312.17837 C 402.32489,313.74129 390.34255,314.26226 390.34255,314.26226 L 378.36021,299.15409 z"
         style="fill:#fff6f6;fill-opacity:1;fill-rule:evenodd;stroke:#000000;stroke-width:8;stroke-linecap:butt;stroke-linejoin:miter;stroke-miterlimit:4;stroke-dasharray:none;stroke-opacity:1" />
      <path
         id="path6461"
         d="M 310.63393,303.84283 C 310.63393,303.84283 289.2741,293.4234 276.24982,305.40574 C 263.22554,317.38809 305.42422,320.51391 305.42422,320.51391 L 310.63393,303.84283 z"
         style="fill:#fff6f6;fill-opacity:1;fill-rule:evenodd;stroke:#000000;stroke-width:8;stroke-linecap:butt;stroke-linejoin:miter;stroke-miterlimit:4;stroke-dasharray:none;stroke-opacity:1" />
      <path
         id="path6463"
         d="M 308.54061,287.23926 C 308.54061,287.23926 315.90826,293.87014 295.27884,318.92014 C 274.64943,343.97014 306.33032,369.75691 306.33032,369.75691 C 306.33032,369.75691 334.32738,401.4378 366.74503,393.33338 C 399.16268,385.22897 395.47885,385.96574 408.74062,372.70397 C 422.00239,359.4422 412.42445,335.86573 408.74062,323.34073 C 405.0568,310.81573 368.95532,280.60837 368.95532,280.60837 L 308.54061,287.23926 z"
         style="fill:#ffffff;fill-opacity:1;fill-rule:evenodd;stroke:#000000;stroke-width:5;stroke-linecap:butt;stroke-linejoin:miter;stroke-miterlimit:4;stroke-dasharray:none;stroke-opacity:1" />
      <path
         sodipodi:nodetypes="cccccccccc"
         id="path6465"
         d="M 306.53788,286.5093 C 296.65945,275.08798 286.65656,262.54849 283.68833,247.37375 C 282.60933,234.93998 283.4325,221.62901 290.11327,210.72527 C 294.69131,203.03537 300.61465,195.50849 309.37172,192.44709 C 320.89222,188.00099 333.76323,187.4708 345.83911,189.58767 C 365.29381,193.53459 385.04376,207.99602 392.01014,226.55575 C 397.66804,241.78734 403.77753,254.89513 390.96192,282.97375 C 383.8605,296.32533 366.26997,302.68427 356.78335,303.44234 C 349.56076,304.05505 337.77735,301.58008 330.58673,300.00581 C 323.90477,299.18734 311.6904,291.94989 306.53788,286.5093 z"
         style="fill:#ffffff;fill-opacity:1;fill-rule:evenodd;stroke:#000000;stroke-width:5;stroke-linecap:butt;stroke-linejoin:miter;stroke-miterlimit:4;stroke-dasharray:none;stroke-opacity:1" />
      <path
         id="path6467"
         d="M 371.39746,201.29314 C 374.33776,199.43107 382.07531,195.89988 388.86531,204.68693 C 393.45993,210.63291 390.53404,214.55413 386.82061,216.91494"
         style="fill:#ffffff;fill-opacity:1;fill-rule:evenodd;stroke:#000000;stroke-width:5;stroke-linecap:butt;stroke-linejoin:miter;stroke-miterlimit:4;stroke-dasharray:none;stroke-opacity:1" />
      <path
         id="path6469"
         d="M 332.04572,188.40142 C 324.31416,188.43071 316.55854,189.65386 309.35822,192.43267 C 306.27525,193.51045 303.55369,195.15445 301.10822,197.15142 L 300.98322,197.62017 C 304.51876,218.32829 303.50432,209.75262 304.51447,218.33892 C 305.52461,226.92521 302.99654,204.19044 314.10822,194.08892 C 325.2199,183.98739 320.27786,204.0041 320.27786,204.0041 C 320.27786,204.0041 322.6934,205.6944 329.76447,210.74517 C 336.83555,215.79592 331.79572,211.24517 331.79572,211.24517 C 331.79572,211.24517 329.27034,197.60922 331.79572,195.58892 C 334.3211,193.56861 340.89026,187.01278 343.92072,194.58892 C 346.95118,202.16507 342.88947,210.24517 342.88947,210.24517 C 342.88948,210.24517 356.55238,217.30879 362.10822,201.65142 C 363.0875,198.89162 363.87583,197.32408 364.51447,196.58892 C 358.56081,193.28785 352.17143,190.87607 345.82697,189.58892 C 341.29851,188.79509 336.68465,188.38385 332.04572,188.40142 z M 366.38947,197.65142 C 367.29994,200.92629 367.13947,208.21392 367.13947,208.21392 C 367.13946,208.21392 367.15121,211.24009 372.20197,211.74517 C 377.25273,212.25024 366.56804,220.01749 366.56804,220.01749 C 366.56805,220.01748 364.11488,225.40142 369.67072,225.40142 C 375.22657,225.40142 367.13757,221.87017 379.76447,221.87017 C 392.39138,221.87017 393.50227,241.55767 393.50227,241.55767 C 395.05866,248.09455 398.08753,260.75421 388.99616,275.40142 C 379.90479,290.04863 370.20742,296.06218 358.357,297.70172 C 333.23199,298.81652 318.67072,289.02642 318.67072,289.02642 C 318.67072,289.02643 308.5535,284.49787 298.45197,274.90142 C 297.77436,274.25769 297.06513,273.94859 296.32697,273.90142 C 299.53741,278.29189 303.04893,282.45222 306.54572,286.49517 C 311.69824,291.93576 323.895,299.17669 330.57697,299.99517 C 337.76759,301.56944 349.57312,304.04538 356.79572,303.43267 C 366.28234,302.6746 384.78805,296.3155 391.88947,282.96392 C 404.70508,254.8853 397.67237,241.78926 392.01447,226.55767 C 387.55937,214.68845 377.88025,204.49025 366.38947,197.65142 z"
         style="fill:#000000;fill-opacity:1;fill-rule:evenodd;stroke:#000000;stroke-width:1px;stroke-linecap:butt;stroke-linejoin:miter;stroke-opacity:1"
         sodipodi:nodetypes="ccccsscscsscscccccscsscsccsccccccc" />
      <path
         sodipodi:nodetypes="cscsssc"
         id="path6471"
         d="M 299.97188,262.26563 C 299.97188,262.26563 303.00234,240.04227 326.74092,240.54735 C 350.47951,241.05242 367.14703,249.63872 367.14703,249.63872 C 367.14703,249.63872 380.78409,259.23517 380.27901,268.32654 C 379.77393,277.41791 371.18764,284.99406 360.07596,286.50929 C 353.10557,287.4598 319.16478,283.98391 311.08356,280.44837 C 303.00234,276.91284 299.4668,266.30624 299.97188,262.26563 z"
         style="fill:#ba7e8d;fill-opacity:1;fill-rule:evenodd;stroke:#000000;stroke-width:5;stroke-linecap:butt;stroke-linejoin:miter;stroke-miterlimit:4;stroke-dasharray:none;stroke-opacity:1" />
      <path
         sodipodi:nodetypes="cscsc"
         id="path6473"
         d="M 323.24709,224.4683 C 323.24709,224.4683 313.78154,223.61459 316.6811,230.02414 C 319.08021,235.32744 321.73186,235.20117 321.73186,235.20117 C 321.73186,235.20117 326.02501,236.59014 327.79278,230.52922 C 329.77773,223.7237 324.88859,224.34203 323.24709,224.4683 z"
         style="fill:#758fff;fill-opacity:1;fill-rule:evenodd;stroke:#000000;stroke-width:8;stroke-linecap:butt;stroke-linejoin:miter;stroke-miterlimit:4;stroke-dasharray:none;stroke-opacity:1" />
      <path
         sodipodi:nodetypes="csssc"
         id="path6475"
         d="M 353.10914,216.42996 C 353.10914,216.42996 344.77538,218.82907 345.40673,225.77386 C 346.03808,232.71866 350.58376,236.38047 353.74049,235.87539 C 356.89722,235.37031 362.57932,234.36016 361.56917,226.78402 C 360.55902,219.20787 356.51841,215.92488 353.10914,216.42996 z"
         style="fill:#758fff;fill-opacity:1;fill-rule:evenodd;stroke:#000000;stroke-width:8;stroke-linecap:butt;stroke-linejoin:miter;stroke-miterlimit:4;stroke-dasharray:none;stroke-opacity:1" />
      <path
         id="path6477"
         d="M 361.59119,258.09875 C 361.59119,258.09875 354.26758,257.4674 353.25743,265.04354 C 352.24728,272.61969 357.92938,275.27134 359.69715,275.14507 C 361.46492,275.0188 367.02076,276.40776 367.77837,267.69519 C 368.53599,258.98263 361.46492,257.71994 361.59119,258.09875 z"
         style="fill:#000000;fill-opacity:1;fill-rule:evenodd;stroke:none;stroke-width:1px;stroke-linecap:butt;stroke-linejoin:miter;stroke-opacity:1" />
      <path
         sodipodi:nodetypes="csssc"
         id="path6479"
         d="M 321.05882,253.80559 C 321.05882,253.80559 314.36656,254.94202 315.12417,259.86651 C 315.88179,264.79101 318.40717,265.92743 322.19524,265.67489 C 325.98331,265.42235 328.12988,259.99278 326.74092,257.21486 C 325.35197,254.43694 321.18509,253.67932 321.05882,253.80559 z"
         style="fill:#000000;fill-opacity:1;fill-rule:evenodd;stroke:none;stroke-width:1px;stroke-linecap:butt;stroke-linejoin:miter;stroke-opacity:1" />
      <path
         style="fill:#000000;fill-opacity:1;fill-rule:evenodd;stroke:none;stroke-width:1px;stroke-linecap:butt;stroke-linejoin:miter;stroke-opacity:1"
         d="M 295.26529,324.16071 C 300.14751,320.4518 303.57999,315.61565 309.26031,311.75825 C 315.41227,308.75453 321.25072,306.62393 327.35195,308.14947 C 336.02462,308.40573 344.60447,309.90034 353.23991,310.52529 C 360.03395,310.30536 366.64869,308.37541 372.91367,305.83987 C 376.24429,304.78106 380.27737,302.83457 380.20195,306.55585 C 379.1574,309.42383 376.55008,311.38183 374.71306,313.75276 C 372.87747,315.80598 371.75462,318.56166 369.04445,319.68148 C 362.81561,322.79577 355.67922,321.13027 349.04953,320.83231 C 339.02637,320.03329 329.01435,318.50409 318.94227,318.71725 C 311.85549,319.27268 305.01151,321.58671 298.65158,324.6817"
         id="path6481"
         sodipodi:nodetypes="ccccccccccc" />
      <path
         style="fill:#000000;fill-opacity:1;fill-rule:evenodd;stroke:none;stroke-width:1px;stroke-linecap:butt;stroke-linejoin:miter;stroke-opacity:1"
         d="M 305.16373,339.52939 C 300.51268,340.3682 298.39745,332.3191 302.95862,330.8816 C 308.93648,327.10654 316.73242,324.23373 323.56071,327.52411 C 336.17323,332.53278 349.95367,331.96997 363.26598,332.40947 C 370.09484,332.67038 376.20036,328.65191 381.48905,324.75233 C 385.65299,322.62308 387.45472,317.69877 391.74727,315.95812 C 395.22978,316.09292 395.0313,320.80343 394.43299,323.30271 C 392.13593,331.73149 384.11463,336.8265 376.63211,340.26672 C 372.2995,342.45735 367.64083,344.02218 362.76028,344.23956 C 356.42175,344.6352 350.04801,344.17323 343.74198,343.57579 C 335.87652,342.24156 328.33932,337.34659 320.15022,339.09186 C 315.81708,340.23881 305.68385,339.5298 305.16373,339.52939 z"
         id="path6483"
         sodipodi:nodetypes="cccccccccccc" />
      <path
         sodipodi:nodetypes="cccccccccccc"
         id="path6485"
         d="M 314.54123,361.41018 C 318.20352,361.54674 322.30216,360.67501 325.49412,362.98622 C 335.85429,365.44821 346.55329,363.87471 357.05717,363.76058 C 365.08025,362.81411 372.68448,359.87509 380.27528,357.28274 C 383.71051,355.11747 386.762,352.39095 390.18353,350.23165 C 392.15569,347.70142 399.53504,343.79643 396.82574,347.0548 C 394.15972,353.8549 390.88443,357.89945 388.09195,359.7389 C 384.65214,365.14973 382.24086,372.13716 375.85584,374.77343 C 367.73205,377.93141 359.30862,378.44176 350.54093,377.87848 C 343.48331,377.62072 336.12712,379.25936 329.10484,378.46809 C 325.35195,378.04972 321.20184,376.40974 319.81742,372.57972 C 317.7722,369.07056 313.75163,365.92113 314.54123,361.41018 z"
         style="fill:none;fill-opacity:1;fill-rule:evenodd;stroke:none;stroke-width:1px;stroke-linecap:butt;stroke-linejoin:miter;stroke-opacity:1" />
      <path
         id="path6487"
         d="M 320.53238,364.2755 C 338.95776,364.37867 357.99411,365.05991 375.56091,358.56305 C 379.6294,356.9299 383.98832,355.45262 386.98602,352.07608 C 388.87802,350.37979 391.12523,348.05276 393.90705,348.62408 C 396.20111,350.82286 392.93135,354.16298 391.35898,356.01313 C 388.1156,358.9291 386.09125,362.94366 383.46286,366.39525 C 380.8874,369.9992 377.92286,373.47892 374.03123,375.7068 C 359.37416,378.64774 344.37434,378.97062 329.53241,380.33997 C 324.10888,380.25183 317.94495,379.28493 314.23191,374.94733 C 311.97241,371.42083 313.76587,366.10854 317.39872,364.31218 C 317.75596,364.2384 318.10247,364.12917 318.44849,364.01501"
         style="fill:#000000;fill-opacity:1;fill-rule:evenodd;stroke:none;stroke-width:1px;stroke-linecap:butt;stroke-linejoin:miter;stroke-opacity:1" />
      <path
         style="opacity:0.22105264;fill:#000000;fill-opacity:1;fill-rule:evenodd;stroke:none;stroke-width:1px;stroke-linecap:butt;stroke-linejoin:miter;stroke-opacity:1"
         d="M 395.30844,305.13847 C 384.63584,342.79527 342.38413,363.2609 310.18344,373.63847 C 318.88893,381.80564 341.44287,399.65174 366.74594,393.32597 C 399.1636,385.22158 395.48417,385.96274 408.74594,372.70097 C 422.00772,359.43921 412.42977,335.85097 408.74594,323.32597 C 407.41762,318.80967 401.85426,312.00767 395.30844,305.13847 z"
         id="path7505" />
      <path
         sodipodi:nodetypes="cssssc"
         id="path6489"
         d="M 261.75605,349.1275 C 261.75605,349.1275 281.30305,334.28209 300.4362,346.9172 C 319.96047,359.81059 324.74944,363.49441 331.01194,378.22971 C 337.27444,392.965 329.90679,400.33265 327.32811,402.91133 C 324.46277,405.77667 320.69723,413.59442 284.22737,394.07015 C 247.75752,374.54588 258.58614,350.37262 261.75605,349.1275 z"
         style="fill:#ffffff;fill-opacity:1;fill-rule:evenodd;stroke:#000000;stroke-width:8;stroke-linecap:butt;stroke-linejoin:miter;stroke-miterlimit:4;stroke-dasharray:none;stroke-opacity:1" />
      <path
         style="fill:#000000;fill-opacity:1;fill-rule:evenodd;stroke:none;stroke-width:1px;stroke-linecap:butt;stroke-linejoin:miter;stroke-opacity:1"
         d="M 263.59796,374.91428 C 265.47473,373.18277 268.41311,372.63382 269.60585,370.18829 C 271.97395,366.74812 273.64378,364.53939 274.89127,361.29609 C 276.92935,357.5894 279.00398,352.46901 279.24591,351.19988 C 279.10012,349.41473 281.13198,347.29076 282.60726,348.75878 C 284.3354,350.96667 283.89766,353.98068 284.99689,356.45393 C 286.45086,361.38572 287.38121,366.73677 285.87714,371.77238 C 285.10184,374.27675 283.3141,376.47554 280.88239,377.52077 C 278.96244,378.60115 276.87532,379.60114 275.52773,381.41474 C 274.95702,383.09055 273.60189,385.04952 271.58704,384.76363 C 269.23637,384.18624 268.41202,381.66183 267.07996,379.93792 C 265.67081,378.5021 265.63668,375.93794 263.92765,374.93368 L 263.59796,374.91428 L 263.59796,374.91428 z"
         id="path6491"
         sodipodi:nodetypes="cccccccccccccc" />
      <path
         style="fill:#000000;fill-opacity:1;fill-rule:evenodd;stroke:none;stroke-width:1px;stroke-linecap:butt;stroke-linejoin:miter;stroke-opacity:1"
         d="M 276.49133,390.01794 C 281.08485,390.56634 286.04969,389.63092 289.67486,386.62152 C 293.72066,383.62701 294.44231,382.37393 297.17554,378.73594 C 299.50743,375.50949 300.26408,371.44955 302.54711,368.19486 C 305.10883,365.61691 305.91158,364.60925 306.94213,366.725 C 308.48314,370.615 306.54105,374.71718 306.98445,378.71242 C 306.8976,385.02371 304.6822,391.73258 299.48741,395.65707 C 298.16586,396.62127 296.58447,397.27531 295.62814,398.66567 C 294.51341,400.03173 292.71987,401.52648 290.87214,400.66172 C 288.59009,399.67373 287.36534,397.09209 284.8634,396.47853 C 281.62055,394.9107 280.30309,390.60979 276.49133,390.01794 z"
         id="path6493"
         sodipodi:nodetypes="ccccccccccc" />
      <path
         sodipodi:nodetypes="csscsc"
         id="path6495"
         d="M 388.77964,393.44991 C 388.77964,393.44991 384.09089,370.52717 398.15712,356.46094 C 412.22335,342.39471 429.4154,339.26888 446.60746,350.20928 C 463.79952,361.14968 448.0753,389.9047 448.0753,389.9047 C 448.0753,389.9047 434.36036,411.33123 413.78626,410.12099 C 404.92975,409.60002 389.42176,399.3968 388.77964,393.44991 z"
         style="fill:#ffffff;fill-opacity:1;fill-rule:evenodd;stroke:#000000;stroke-width:8;stroke-linecap:butt;stroke-linejoin:miter;stroke-miterlimit:4;stroke-dasharray:none;stroke-opacity:1" />
      <path
         style="fill:#000000;fill-opacity:1;fill-rule:evenodd;stroke:none;stroke-width:1px;stroke-linecap:butt;stroke-linejoin:miter;stroke-opacity:1"
         d="M 390.86353,371.56912 C 393.03946,370.99621 391.88757,372.64714 394.63232,375.24786 C 396.08373,378.32522 400.58927,378.11476 403.77471,379.47689 C 407.6971,380.49868 411.42704,382.10895 415.19021,383.58862 C 418.3442,385.6537 419.33638,388.05858 424.69026,389.7941 C 426.54409,390.21073 429.55658,390.00189 429.48784,392.36027 C 429.11297,394.39363 426.60847,394.97139 424.86416,394.54858 C 419.65609,394.20061 414.09268,395.16807 409.25812,392.69091 C 404.47435,390.36402 399.31841,388.95929 394.28537,387.31677 C 392.31313,386.28407 389.67471,385.62676 388.86497,383.28589 C 387.92871,380.41686 388.454,377.34513 388.0953,374.40096 C 388.25138,373.01488 389.26576,371.36317 390.86353,371.56912 z"
         id="path6497"
         sodipodi:nodetypes="cccccccccccc" />
      <path
         sodipodi:nodetypes="cccccc"
         id="path6499"
         d="M 398.93857,355.80971 C 404.82002,363.89572 415.15757,366.50781 423.31648,371.61084 C 431.0509,375.42883 439.17931,381.8099 448.92361,374.35078 C 445.27856,367.37605 438.81348,368.39795 434.17035,365.34199 C 426.59271,360.40105 417.09012,357.32612 412.41393,348.99087 C 407.25106,344.80981 402.99967,352.85531 399.58979,355.54924"
         style="fill:#000000;fill-opacity:1;fill-rule:evenodd;stroke:none;stroke-width:1px;stroke-linecap:butt;stroke-linejoin:miter;stroke-opacity:1" />
      <path
         style="opacity:0.22631579;fill:#000000;fill-opacity:1;fill-rule:evenodd;stroke:#000000;stroke-width:1px;stroke-linecap:butt;stroke-linejoin:miter;stroke-opacity:1"
         d="M 454.93344,363.20097 C 424.40896,390.62562 401.19879,393.54414 388.55844,392.13847 C 388.67933,392.96235 388.77719,393.45097 388.77719,393.45097 C 393.46594,401.26554 404.92069,409.58623 413.77719,410.10722 C 434.35129,411.31746 447.75569,388.67215 447.7557,388.67216 C 447.7557,388.67216 456.99158,375.28677 454.93344,363.20097 z"
         id="path6503"
         sodipodi:nodetypes="cccscc" />
      <path
         style="opacity:0.2157895;fill:#000000;fill-opacity:1;fill-rule:evenodd;stroke:none;stroke-width:1px;stroke-linecap:butt;stroke-linejoin:miter;stroke-opacity:1"
         d="M 262.52719,348.57597 C 262.06557,348.88848 261.74594,349.13847 261.74594,349.13847 C 261.37755,349.13847 247.74484,374.55168 284.21469,394.07597 C 310.55631,408.17805 319.856,408.02084 324.05844,405.76347 C 297.23708,397.64828 276.09558,370.89679 262.52719,348.57597 z"
         id="path7477" />
    </g>
    <g
       transform="translate(-4.8097655e-4,1.3921188e-4)"
       id="g3430">
      <path
         id="path3394"
         style="fill:#ffffff;fill-opacity:1;fill-rule:nonzero;stroke:none;stroke-width:7;stroke-linecap:butt;stroke-linejoin:miter;marker:none;marker-start:none;marker-mid:none;marker-end:none;stroke-miterlimit:4;stroke-dasharray:none;stroke-dashoffset:0;stroke-opacity:1;visibility:visible;display:inline;overflow:visible;enable-background:accumulate"
         d="M 324.00014,65.166164 C 320.49086,94.840624 301.52014,100.88216 288.96764,107.82816 C 279.31412,113.16999 251.89701,121.13566 238.88545,122.97691 C 225.87389,124.81816 172.22773,167.3857 169.50014,157.16616 C 186.2249,136.26604 204.87639,128.06816 193.61483,118.47691 C 185.5574,111.61455 146.70861,109.17227 136.03264,102.82816 C 121.56762,94.232444 111.15222,76.870694 120.00014,58.166164 C 134.97395,26.511477 163.86041,17.001629 210.50014,14.166164 C 282.84214,9.7681284 328.49086,27.192619 324.00014,65.166164 z"
         sodipodi:nodetypes="csscsssss" />
      <path
         style="font-size:79.0297699px;font-style:normal;font-variant:normal;font-weight:normal;font-stretch:normal;text-align:start;line-height:100%;writing-mode:lr-tb;text-anchor:start;fill:#000000;fill-opacity:1;stroke:none;stroke-width:1px;stroke-linecap:butt;stroke-linejoin:miter;stroke-opacity:1;font-family:Complete in Him;-inkscape-font-specification:Complete in Him"
         d="M 172.83806,46.064449 C 174.5874,46.06449 176.13095,47.415095 177.46872,50.116268 C 177.46869,52.457354 172.45216,61.718645 162.4191,77.900172 L 162.99793,77.900172 L 184.41469,75.006015 C 185.95821,75.520543 186.72998,77.257035 186.73002,80.215497 L 184.99352,81.951991 L 182.09937,81.951991 C 178.06038,81.951996 169.18498,83.495544 155.47313,86.582642 C 153.72377,85.836593 152.75905,85.064819 152.57897,84.267316 L 152.57897,81.951991 C 164.15558,64.870057 169.94389,55.029935 169.94391,52.431594 L 169.94391,51.852762 L 169.36508,51.852762 L 155.47313,53.589256 C 153.87812,53.049047 152.72046,52.084329 152.00014,50.6951 L 152.00014,49.537437 C 152.54038,47.993925 154.08393,47.222151 156.63079,47.222112 L 172.83806,46.064449 M 196.49297,59.261803 C 202.22982,59.261831 205.89574,64.471307 207.49077,74.890249 L 207.49077,75.46908 C 207.49074,80.974415 204.40365,84.833286 198.22946,87.045707 L 197.0718,87.045707 C 190.8976,87.045706 187.8105,83.379778 187.8105,76.047912 C 189.09679,65.628969 191.798,60.033605 195.91414,59.261803 L 196.49297,59.261803 M 197.0718,63.892454 C 194.37058,67.236832 193.01998,71.481591 193.01998,76.626743 C 193.48304,80.099737 194.25482,81.83623 195.33531,81.836225 L 197.65063,81.836225 C 200.73772,79.881068 202.28127,77.758688 202.28128,75.46908 L 202.28128,73.153755 C 200.73772,66.979574 199.00123,63.892476 197.0718,63.892454 M 213.93509,49.035783 L 214.51392,49.035783 L 216.82924,51.351108 L 216.82924,53.087602 C 216.10891,54.47683 214.95125,55.441548 213.35626,55.981759 C 211.6069,55.235741 210.64218,54.463967 210.4621,53.666434 L 210.4621,52.508771 C 210.4621,50.193482 211.61976,49.035821 213.93509,49.035783 M 215.09275,61.770072 L 215.67158,61.770072 C 217.21512,62.284613 217.9869,64.021106 217.98691,66.979554 L 217.98691,75.662024 C 218.57859,79.906794 219.54331,82.029173 220.88106,82.029169 L 224.93288,82.029169 L 224.93288,83.765662 C 224.05819,85.206311 222.51464,86.556916 220.30223,87.817482 L 219.14457,87.817482 C 215.15706,87.817481 212.45585,83.572722 211.04093,75.083193 L 210.4621,67.558385 C 210.4621,63.699533 212.00565,61.770097 215.09275,61.770072 M 227.82704,58.605794 L 229.56354,58.605794 C 230.61829,58.605822 231.58301,61.114089 232.45769,66.130602 L 233.03652,66.130602 C 236.20079,62.27175 238.902,60.342315 241.14016,60.342288 C 245.43636,60.342315 248.7164,66.323566 250.9803,78.286059 C 250.3114,83.302601 249.34668,85.810867 248.08614,85.810867 L 246.92848,85.810867 C 244.97329,75.366188 242.65797,69.191993 239.9825,67.288264 L 239.40367,67.288264 C 236.70244,67.288283 234.96595,74.041309 234.19419,87.54736 L 231.87886,88.705023 C 229.94942,88.061876 228.9847,87.097158 228.9847,85.810867 C 228.9847,81.077318 228.01998,72.394857 226.09055,59.763457 L 227.82704,58.605794 M 255.0707,48.958606 L 256.80719,48.958606 C 259.12251,48.958643 260.28017,54.361064 260.28018,65.165883 L 260.85901,65.165883 C 264.7436,59.197516 268.79542,54.759814 273.01447,51.852762 C 274.76381,52.598845 275.72852,53.37062 275.90863,54.168088 L 275.90863,55.904582 C 270.1203,62.078807 267.22614,66.130622 267.22616,68.060039 L 267.22616,69.796533 C 268.20372,71.725986 269.74727,72.690704 271.85681,72.69069 L 275.3298,72.69069 L 281.11811,70.954196 L 281.69694,71.533027 L 281.69694,72.111859 C 281.69691,75.893567 278.80276,78.20889 273.01447,79.057834 L 272.43564,79.057834 C 269.96594,79.057842 266.10707,77.514293 260.85901,74.427184 L 260.85901,75.006015 L 261.43785,82.530822 C 261.43784,85.232037 260.08723,86.582642 257.38603,86.582642 C 255.09642,86.582642 253.74582,76.742519 253.33421,57.062244 L 252.75538,53.589256 L 252.17654,53.589256 C 252.17654,51.659853 253.14126,50.116305 255.0707,48.958606 M 287.94831,42.205574 C 290.26363,43.106021 291.42129,45.807231 291.4213,50.309212 L 291.4213,60.728176 L 292.00013,72.883634 C 291.22835,75.19897 290.45657,76.356632 289.68481,76.356622 C 286.21181,76.356632 284.47532,74.041309 284.47532,69.410646 L 284.47532,59.570513 L 283.89649,43.942068 C 285.31141,42.784449 286.66201,42.205618 287.94831,42.205574 M 283.89649,85.617923 L 285.05416,85.617923 C 287.13794,85.617924 288.48855,86.389698 289.10597,87.933248 L 289.10597,90.827405 L 286.21182,93.14273 C 284.77117,93.142723 283.22762,91.985062 281.58117,89.669742 C 281.58117,87.585948 282.35294,86.235343 283.89649,85.617923"
         id="text3384" />
      <path
         style="fill:#000000;fill-opacity:1;fill-rule:nonzero;stroke:none;stroke-width:7;stroke-linecap:butt;stroke-linejoin:miter;marker:none;stroke-miterlimit:4;stroke-dasharray:none;stroke-dashoffset:0;stroke-opacity:1;visibility:visible;display:inline;overflow:visible;enable-background:accumulate"
         d="M 236.375,10.03125 C 228.11448,9.905178 219.40499,10.132822 210.28125,10.6875 C 186.7685,12.116959 167.4996,15.181209 151.9375,22.15625 C 136.3754,29.131291 124.64473,40.164952 116.84375,56.65625 C 112.0138,66.866784 111.26091,77.959503 116.0625,85.65625 C 124.30534,98.86919 126.69034,101.41598 134.25,105.84375 C 137.64827,107.83415 142.19786,109.14841 147.59375,110.40625 C 152.98964,111.66409 159.14091,112.77774 165.15625,113.90625 C 171.17159,115.03476 177.07651,116.15886 181.84375,117.40625 C 186.61099,118.65364 190.30833,120.2744 191.34375,121.15625 C 193.6087,123.08526 193.7115,123.81859 193.5,125.03125 C 193.2885,126.24391 191.97989,128.46564 189.46875,131.21875 C 184.44648,136.72497 175.40072,144.19743 166.78125,154.96875 L 165.65625,156.375 L 166.125,158.0625 C 166.51878,159.5379 167.7297,161.01945 169.125,161.65625 C 170.5203,162.29305 171.84077,162.32293 173.09375,162.1875 C 175.59972,161.91664 178.15604,160.92764 181.125,159.5625 C 187.06293,156.83221 194.46534,152.38019 202.1875,147.5625 C 209.90966,142.74481 217.90896,137.56674 224.71875,133.53125 C 231.52854,129.49576 237.64421,125.70371 239.375,125.45879 C 253.09781,123.51689 276.24745,117.18865 290.65625,110.875 C 296.93586,108.1234 304.92187,104.20579 312.21875,97.625 C 319.51563,91.044215 325.63097,81.102687 327.46875,65.5625 C 328.67631,55.351334 326.47435,46.156907 321.21875,38.5625 C 315.96315,30.968093 307.81289,25.023302 297.4375,20.5625 C 281.87441,13.871297 261.15657,10.409466 236.375,10.03125 z M 236.28125,15.757559 C 258.84525,17.462557 280.4102,20.861611 294.6875,27 C 304.2057,31.092259 312.14625,35.694723 316.44746,41.910029 C 320.74867,48.125335 323.20022,56.626865 322.16242,65.402471 C 320.49091,79.536747 313.08271,86.484917 306.87878,92.080015 C 300.67485,97.675113 292.85622,100.82849 286.30254,104.45501 C 277.81569,109.15125 250.05409,116.78069 237.75378,118.52129 C 232.97879,119.19699 228.80232,124.0393 221.80872,128.18372 C 214.81512,132.32814 206.778,137.50057 199.12122,142.27747 C 191.46444,147.05437 183.48197,150.78433 178.1875,153.21875 C 177.76397,153.41349 177.64745,153.36384 177.25,153.53125 C 183.74356,146.41005 188.49005,140.22278 192.99382,135.28503 C 195.82846,132.17725 200.86943,128.94177 200.40625,125.24004 C 199.7423,119.93376 198.9146,118.02663 196.20124,115.48626 C 193.33107,112.79907 188.71043,113.62626 183.59375,112.28743 C 178.47707,110.9486 171.82356,109.79529 165.78503,108.66243 C 159.7465,107.52957 154.65641,106.06626 149.51374,104.86744 C 144.37107,103.66862 139.76488,101.9514 137.8125,100.79121 C 131.15249,96.833547 126.11355,91.481551 123.15247,84.537427 C 120.19139,77.593303 119.13828,66.519069 123.15625,58.025073 C 130.32908,42.861683 140.20174,33.007509 154.48626,26.605088 C 168.77078,20.202667 187.91801,17.757315 211.04499,16.351309 C 220.00675,15.806478 228.21619,15.624207 236.28125,15.757559 z"
         id="path3424"
         sodipodi:nodetypes="cssssssssssscccsssssssssssccssssssssscsssssssssssc" />
    </g>
  </g>
  <g
     id="g2597-anchorRight"
     inkscape:label="#g2597">
    <path
       id="text2592"
       d="M 76.081566,-527.89815 C 76.081497,-532.08956 75.26887,-535.89607 73.643684,-539.31771 C 72.103904,-542.82478 70.008183,-545.81867 67.356514,-548.29938 C 64.704725,-550.86551 61.625298,-552.83292 58.118224,-554.20162 C 54.696587,-555.57019 51.061153,-556.2545 47.211909,-556.25457 C 41.651793,-556.2545 36.604954,-555.48465 32.071378,-553.945 C 27.537752,-552.40522 23.602929,-550.13842 20.266896,-547.14459 C 17.016377,-544.23618 14.492958,-540.55798 12.69663,-536.10997 C 10.900293,-531.7474 10.002127,-526.74333 10.002129,-521.09775 L 10.002129,-520.84113 C 10.002127,-516.39303 10.985832,-512.20159 12.95325,-508.26679 C 14.920656,-504.33194 17.486845,-500.86759 20.651825,-497.87371 C 23.902318,-494.96535 27.623292,-492.65578 31.814759,-490.94499 C 36.006177,-489.2342 40.325928,-488.3788 44.774027,-488.3788 L 45.030646,-488.3788 C 48.879892,-488.3788 52.173168,-488.76373 54.910484,-489.53359 C 57.647705,-490.30344 59.871736,-491.24438 61.582583,-492.3564 C 63.293321,-493.46841 64.533646,-494.58042 65.30356,-495.69245 C 66.073359,-496.89 66.458288,-497.8737 66.458347,-498.64357 C 66.458288,-500.78205 65.98782,-502.4073 65.046941,-503.51933 C 64.191487,-504.63133 62.651774,-505.18734 60.427796,-505.18736 C 59.059109,-505.18734 57.733245,-504.97349 56.450199,-504.54581 C 55.167056,-504.11809 53.883961,-503.64763 52.600912,-503.1344 C 51.403311,-502.70669 50.162987,-502.27899 48.879934,-501.85131 C 47.596798,-501.4236 46.099854,-501.20975 44.389098,-501.20976 C 42.934887,-501.20975 41.437944,-501.4236 39.898263,-501.85131 C 38.358517,-502.27899 36.904343,-502.87777 35.535737,-503.64764 C 34.167074,-504.50302 33.055059,-505.5295 32.199687,-506.72707 C 31.344266,-507.92461 30.916568,-509.29324 30.916592,-510.83298 C 30.916568,-512.28713 31.301496,-513.48468 32.071378,-514.42565 C 32.92675,-515.36656 33.953225,-516.09364 35.150808,-516.60691 C 36.433875,-517.20566 37.802509,-517.59059 39.256715,-517.7617 C 40.710857,-518.01829 42.079491,-518.1466 43.362621,-518.14662 C 46.099854,-518.1466 48.494964,-518.01829 50.547958,-517.7617 C 52.686406,-517.50505 54.568278,-517.2912 56.19358,-517.12015 C 57.305546,-516.94904 58.332022,-516.82073 59.27301,-516.73522 C 60.213894,-516.64965 61.28314,-516.60688 62.48075,-516.60691 C 66.843216,-516.60688 70.179262,-517.63336 72.488897,-519.68634 C 74.883942,-521.73926 76.081497,-524.47653 76.081566,-527.89815 M 30.659972,-535.34011 C 30.659949,-536.62316 30.959338,-537.86348 31.558139,-539.06109 C 32.242432,-540.34413 33.097829,-541.45615 34.124331,-542.39714 C 35.23632,-543.33802 36.519414,-544.06511 37.973619,-544.5784 C 39.427762,-545.17712 40.924706,-545.47651 42.464454,-545.47657 C 44.089672,-545.47651 45.714925,-545.21989 47.340219,-544.70671 C 49.050971,-544.27895 50.590685,-543.59464 51.959364,-542.65376 C 53.327953,-541.79831 54.397199,-540.72906 55.167103,-539.44602 C 56.022452,-538.16287 56.45015,-536.7087 56.450199,-535.08349 C 56.45015,-532.51725 55.209825,-530.67815 52.729221,-529.56618 C 50.334066,-528.45412 47.425718,-527.89811 44.004169,-527.89815 C 42.721038,-527.89811 41.266864,-527.98365 39.641643,-528.15477 C 38.101898,-528.41135 36.647724,-528.79628 35.279117,-529.30956 C 33.995995,-529.9083 32.88398,-530.67815 31.943068,-531.61913 C 31.087647,-532.56002 30.659949,-533.80035 30.659972,-535.34011 M 85.051211,-554.32993 C 82.998247,-554.32986 81.372994,-553.94493 80.175447,-553.17514 C 78.977884,-552.49076 78.379107,-551.03659 78.379113,-548.81262 C 78.379107,-546.84514 78.892344,-545.00604 79.918828,-543.2953 C 80.945296,-541.67 82.100081,-539.87366 83.383187,-537.9063 C 84.837349,-535.8533 86.205984,-533.62927 87.489094,-531.2342 C 88.772173,-528.92459 89.41372,-526.48671 89.413737,-523.92056 C 89.41372,-522.89405 89.157101,-521.73926 88.64388,-520.4562 C 88.130625,-519.25861 87.446308,-517.93275 86.590926,-516.4786 C 85.821055,-515.10994 84.922889,-513.69853 83.896425,-512.24438 C 82.869938,-510.87573 81.886232,-509.50709 80.945305,-508.13848 C 79.320043,-505.91443 77.908639,-503.86148 76.711088,-501.97962 C 75.513529,-500.18327 74.914751,-498.51525 74.914754,-496.97554 C 74.914751,-494.23827 75.29968,-492.35639 76.06954,-491.32992 C 76.839393,-490.30344 78.635726,-489.79021 81.458543,-489.79021 C 83.939183,-489.79021 86.120444,-490.6456 88.002332,-492.3564 C 89.884188,-494.15273 91.72329,-496.16291 93.519644,-498.38695 C 94.973796,-500.26881 96.47074,-501.9796 98.01048,-503.51933 C 99.635707,-505.05903 101.3465,-505.82889 103.14286,-505.8289 C 104.93916,-505.82889 106.69273,-504.97349 108.40356,-503.26271 C 110.11431,-501.63745 111.73957,-499.88388 113.27932,-498.00202 L 113.27932,-498.13033 C 114.99007,-495.90629 116.74363,-493.93888 118.54001,-492.22809 C 120.3363,-490.60283 122.38925,-489.79021 124.69887,-489.79021 C 126.92285,-489.79021 128.67641,-490.13236 129.95957,-490.81668 C 131.32814,-491.501 132.01246,-493.16902 132.01252,-495.82076 C 132.01246,-497.78816 131.32814,-499.84111 129.95957,-501.97962 C 128.67641,-504.11809 127.17947,-506.42766 125.46873,-508.90833 C 123.58681,-511.56004 121.79047,-514.21177 120.07973,-516.86353 C 118.45443,-519.51523 117.6418,-521.95311 117.64185,-524.17718 C 117.6418,-526.91441 118.24058,-529.43783 119.43818,-531.74744 C 120.72123,-534.05697 122.00432,-536.19546 123.28747,-538.16292 C 124.48497,-540.04474 125.51145,-541.75554 126.3669,-543.2953 C 127.30778,-544.83496 127.77825,-546.46022 127.7783,-548.17107 C 127.77825,-552.02029 125.76807,-553.94493 121.74775,-553.945 C 119.43813,-553.94493 117.51349,-553.26062 115.97382,-551.89205 C 114.43406,-550.60889 112.93712,-549.11194 111.48299,-547.40121 C 110.28539,-546.03252 109.04507,-544.74942 107.76201,-543.55192 C 106.56442,-542.35431 105.15301,-541.75554 103.52779,-541.75559 C 101.90251,-541.75554 100.4911,-542.35431 99.293575,-543.55192 C 98.095993,-544.74942 96.898438,-546.03252 95.700907,-547.40121 C 94.16117,-549.11194 92.578687,-550.69443 90.953452,-552.14867 C 89.41372,-553.60278 87.446308,-554.32986 85.051211,-554.32993 M 156.37129,-574.85946 C 156.37126,-580.16283 155.60141,-583.88381 154.06172,-586.0224 C 152.52198,-588.24633 150.38349,-589.35834 147.64624,-589.35844 C 146.10651,-589.35834 144.82341,-588.93065 143.79695,-588.07535 C 142.77046,-587.30539 141.91507,-586.23615 141.23076,-584.86761 C 140.63197,-583.49888 140.1615,-581.95917 139.81935,-580.24846 C 139.56273,-578.62312 139.43442,-576.99787 139.43442,-575.3727 L 139.43442,-501.723 C 139.43442,-497.61708 140.1615,-494.36658 141.61569,-491.97147 C 143.15539,-489.6619 145.25111,-488.50711 147.90286,-488.50711 C 149.61363,-488.50711 151.02504,-488.89204 152.13707,-489.6619 C 153.24907,-490.51729 154.10446,-491.58654 154.70326,-492.86964 C 155.38756,-494.15273 155.81526,-495.6069 155.98636,-497.23216 C 156.24296,-498.94295 156.37126,-500.69651 156.37129,-502.49286 L 156.37129,-520.84113 C 156.37126,-523.06512 156.79896,-525.503 157.65439,-528.15477 C 158.5953,-530.892 160.04947,-533.28711 162.01691,-535.34011 L 162.53015,-535.85335 C 163.21444,-536.62316 164.15537,-537.39301 165.35296,-538.16292 C 166.55048,-538.93273 168.38958,-539.31766 170.87027,-539.31771 C 174.20628,-539.31766 176.98632,-538.76165 179.2104,-537.64968 C 181.51992,-536.62316 183.35902,-535.12621 184.72771,-533.15885 C 186.18183,-531.27693 187.2083,-529.01013 187.80714,-526.35844 C 188.4914,-523.70667 188.83356,-520.79832 188.83361,-517.63339 L 188.83361,-502.10793 C 188.83356,-497.14661 189.60341,-493.63949 191.14319,-491.58654 C 192.68284,-489.53359 194.82133,-488.50711 197.55867,-488.50711 C 200.38141,-488.50711 202.43436,-489.74744 203.71753,-492.22809 C 205.08609,-494.79427 205.77041,-498.21586 205.77048,-502.49286 L 205.77048,-525.46027 C 205.77041,-528.28304 205.47102,-531.40524 204.87231,-534.82687 C 204.27346,-538.24841 203.07591,-541.41338 201.27964,-544.32178 C 199.48324,-547.31561 196.87428,-549.79626 193.45276,-551.76374 C 190.11665,-553.81662 185.66859,-554.8431 180.10856,-554.84317 C 177.11463,-554.8431 174.76229,-554.58648 173.05154,-554.07331 C 171.3407,-553.56001 169.75822,-553.04677 168.30408,-552.53359 C 167.53419,-552.19137 166.76433,-551.89198 165.99451,-551.63543 C 165.22462,-551.46428 164.28368,-551.37874 163.1717,-551.37881 C 161.28979,-551.37874 159.66454,-552.1486 158.29593,-553.68838 C 157.01281,-555.31357 156.37126,-557.49483 156.37129,-560.23217 L 156.37129,-574.85946 M 276.5653,-527.89815 C 276.56523,-532.08956 275.7526,-535.89607 274.12742,-539.31771 C 272.58764,-542.82478 270.49192,-545.81867 267.84025,-548.29938 C 265.18846,-550.86551 262.10903,-552.83292 258.60196,-554.20162 C 255.18032,-555.57019 251.54489,-556.2545 247.69564,-556.25457 C 242.13553,-556.2545 237.08869,-555.48465 232.55511,-553.945 C 228.02149,-552.40522 224.08666,-550.13842 220.75063,-547.14459 C 217.50011,-544.23618 214.97669,-540.55798 213.18036,-536.10997 C 211.38403,-531.7474 210.48586,-526.74333 210.48586,-521.09775 L 210.48586,-520.84113 C 210.48586,-516.39303 211.46957,-512.20159 213.43698,-508.26679 C 215.40439,-504.33194 217.97058,-500.86759 221.13556,-497.87371 C 224.38605,-494.96535 228.10703,-492.65578 232.29849,-490.94499 C 236.48991,-489.2342 240.80966,-488.3788 245.25776,-488.3788 L 245.51438,-488.3788 C 249.36363,-488.3788 252.6569,-488.76373 255.39422,-489.53359 C 258.13144,-490.30344 260.35547,-491.24438 262.06632,-492.3564 C 263.77706,-493.46841 265.01738,-494.58042 265.78729,-495.69245 C 266.55709,-496.89 266.94202,-497.8737 266.94208,-498.64357 C 266.94202,-500.78205 266.47155,-502.4073 265.53068,-503.51933 C 264.67522,-504.63133 263.13551,-505.18734 260.91153,-505.18736 C 259.54284,-505.18734 258.21698,-504.97349 256.93393,-504.54581 C 255.65079,-504.11809 254.3677,-503.64763 253.08465,-503.1344 C 251.88705,-502.70669 250.64672,-502.27899 249.36367,-501.85131 C 248.08053,-501.4236 246.58359,-501.20975 244.87283,-501.20976 C 243.41862,-501.20975 241.92168,-501.4236 240.382,-501.85131 C 238.84225,-502.27899 237.38808,-502.87777 236.01947,-503.64764 C 234.65081,-504.50302 233.53879,-505.5295 232.68342,-506.72707 C 231.828,-507.92461 231.4003,-509.29324 231.40033,-510.83298 C 231.4003,-512.28713 231.78523,-513.48468 232.55511,-514.42565 C 233.41048,-515.36656 234.43696,-516.09364 235.63454,-516.60691 C 236.91761,-517.20566 238.28624,-517.59059 239.74045,-517.7617 C 241.19459,-518.01829 242.56322,-518.1466 243.84636,-518.14662 C 246.58359,-518.1466 248.9787,-518.01829 251.03169,-517.7617 C 253.17014,-517.50505 255.05201,-517.2912 256.67731,-517.12015 C 257.78928,-516.94904 258.81576,-516.82073 259.75674,-516.73522 C 260.69763,-516.64965 261.76687,-516.60688 262.96448,-516.60691 C 267.32695,-516.60688 270.663,-517.63336 272.97263,-519.68634 C 275.36768,-521.73926 276.56523,-524.47653 276.5653,-527.89815 M 231.14371,-535.34011 C 231.14368,-536.62316 231.44307,-537.86348 232.04187,-539.06109 C 232.72617,-540.34413 233.58156,-541.45615 234.60807,-542.39714 C 235.72005,-543.33802 237.00315,-544.06511 238.45735,-544.5784 C 239.9115,-545.17712 241.40844,-545.47651 242.94819,-545.47657 C 244.57341,-545.47651 246.19866,-545.21989 247.82395,-544.70671 C 249.53471,-544.27895 251.07442,-543.59464 252.4431,-542.65376 C 253.81169,-541.79831 254.88093,-540.72906 255.65084,-539.44602 C 256.50619,-538.16287 256.93388,-536.7087 256.93393,-535.08349 C 256.93388,-532.51725 255.69356,-530.67815 253.21296,-529.56618 C 250.8178,-528.45412 247.90945,-527.89811 244.4879,-527.89815 C 243.20477,-527.89811 241.7506,-527.98365 240.12538,-528.15477 C 238.58563,-528.41135 237.13146,-528.79628 235.76285,-529.30956 C 234.47973,-529.9083 233.36771,-530.67815 232.4268,-531.61913 C 231.57138,-532.56002 231.14368,-533.80035 231.14371,-535.34011 M 315.15039,-555.61302 C 313.5251,-555.61296 312.15647,-555.44188 311.04449,-555.09979 C 309.93243,-554.75756 308.90596,-554.37263 307.96506,-553.945 C 307.10963,-553.51724 306.21146,-553.13231 305.27056,-552.79021 C 304.41513,-552.53353 303.26034,-552.40522 301.8062,-552.40528 C 300.86523,-552.40522 300.09538,-552.44799 299.49662,-552.53359 C 298.89782,-552.70461 298.25627,-552.87569 297.57198,-553.04683 C 296.63102,-553.21785 295.69008,-553.38893 294.74917,-553.56007 C 293.89375,-553.81662 292.91005,-553.94493 291.79805,-553.945 C 289.31738,-553.94493 287.34997,-553.47447 285.89581,-552.53359 C 284.52716,-551.59259 283.45792,-550.39504 282.68807,-548.94093 C 282.00374,-547.57223 281.57604,-546.03252 281.40497,-544.32178 C 281.23389,-542.69647 281.14835,-541.19953 281.14835,-539.83094 L 281.14835,-501.46638 C 281.14835,-500.01219 281.31943,-498.55802 281.66159,-497.10385 C 282.00374,-495.64967 282.51698,-494.28104 283.20131,-492.99795 C 283.97115,-491.80039 284.86932,-490.81668 285.89581,-490.04683 C 287.00781,-489.27697 288.33368,-488.89204 289.87341,-488.89204 C 291.32756,-488.89204 292.56789,-489.27697 293.59438,-490.04683 C 294.70638,-490.81668 295.60455,-491.84316 296.28888,-493.12626 C 296.97318,-494.40935 297.48642,-495.86352 297.8286,-497.48878 C 298.17073,-499.19957 298.34181,-500.95313 298.34184,-502.74947 L 298.34184,-518.53155 C 298.34181,-521.01217 298.47012,-523.15066 298.72677,-524.94703 C 299.0689,-526.82887 299.45383,-528.41135 299.88155,-529.69449 C 300.39476,-530.97754 300.95077,-532.04679 301.54958,-532.90223 C 302.14833,-533.75758 302.7471,-534.48467 303.34591,-535.08349 C 304.8856,-536.62316 306.33977,-537.73517 307.70844,-538.41954 C 309.16258,-539.18935 311.12999,-539.83089 313.61068,-540.34418 C 314.97927,-540.60075 316.26237,-540.90014 317.45997,-541.24235 C 318.74302,-541.58446 319.85503,-542.01215 320.79602,-542.52545 C 321.7369,-543.12417 322.46399,-543.89403 322.97728,-544.83502 C 323.57601,-545.86144 323.8754,-547.23007 323.87545,-548.94093 C 323.8754,-550.82274 323.14831,-552.40522 321.69418,-553.68838 C 320.23996,-554.97141 318.0587,-555.61296 315.15039,-555.61302 M 350.96682,-551.63543 C 348.22952,-551.63536 346.39042,-552.91846 345.44951,-555.48471 C 344.50855,-558.05084 344.03808,-561.38688 344.0381,-565.49286 L 344.0381,-578.0672 C 344.03808,-580.12006 343.73869,-581.9164 343.13993,-583.4562 C 342.62667,-584.99582 341.94236,-586.23615 341.08698,-587.17718 C 340.3171,-588.11802 339.41894,-588.80234 338.39248,-589.23014 C 337.36599,-589.74327 336.38228,-589.99989 335.44136,-589.99999 C 333.21731,-589.99989 331.33544,-588.84511 329.79574,-586.53563 C 328.25602,-584.31151 327.48616,-581.27485 327.48617,-577.42565 L 327.48617,-500.82483 C 327.48616,-499.88388 327.5717,-498.68633 327.74278,-497.23216 C 327.91386,-495.86352 328.34156,-494.53766 329.02588,-493.25457 C 329.71019,-491.97147 330.65113,-490.85945 331.84869,-489.91852 C 333.13178,-489.06312 334.88534,-488.63542 337.10938,-488.63542 C 339.07678,-488.63542 340.40264,-488.72096 341.08698,-488.89204 C 341.85682,-489.14866 342.58391,-489.40528 343.26824,-489.6619 C 343.52484,-489.83297 343.90977,-489.96128 344.42303,-490.04683 C 344.93625,-490.13236 345.96272,-490.17513 347.50246,-490.17514 C 349.21323,-490.17513 350.58186,-490.00405 351.60837,-489.6619 C 352.63481,-489.31974 353.61852,-488.93481 354.55949,-488.50711 C 356.01363,-487.82279 357.76719,-487.18125 359.82018,-486.58247 C 361.87309,-485.89815 365.08083,-485.55599 369.4434,-485.55599 C 371.75292,-485.55599 374.57573,-486.19754 377.91183,-487.48063 C 381.24782,-488.76373 384.45556,-490.77391 387.53505,-493.51118 C 390.61441,-496.24845 393.22337,-499.75557 395.36194,-504.03257 C 397.58589,-508.30954 398.69791,-513.39915 398.69799,-519.30141 C 398.69791,-525.03254 397.84251,-530.12214 396.13179,-534.57025 C 394.50647,-539.01827 392.23967,-542.73924 389.33139,-545.73319 C 386.50851,-548.81256 383.17246,-551.12213 379.32324,-552.6619 C 375.55944,-554.28709 371.58184,-555.09972 367.39045,-555.09979 C 364.90975,-555.09972 362.72849,-554.8431 360.84666,-554.32993 C 358.96475,-553.90216 357.29672,-553.4317 355.84258,-552.91852 C 354.90161,-552.5763 354.00345,-552.27691 353.14808,-552.02036 C 352.37819,-551.76367 351.65111,-551.63536 350.96682,-551.63543 M 361.74482,-501.08145 C 359.26413,-501.08144 356.95456,-501.59468 354.81611,-502.62117 C 352.76312,-503.73317 350.96679,-505.18734 349.4271,-506.98369 C 347.88736,-508.78 346.68981,-510.79019 345.83444,-513.01424 C 344.97901,-515.23825 344.55132,-517.50505 344.55134,-519.81465 C 344.55132,-522.72297 345.02178,-525.41746 345.96275,-527.89815 C 346.9892,-530.37876 348.31506,-532.51725 349.94034,-534.31363 C 351.56557,-536.10992 353.40467,-537.47855 355.45766,-538.41954 C 357.51057,-539.44597 359.64906,-539.9592 361.87313,-539.95925 C 364.43928,-539.9592 366.87716,-539.48873 369.18678,-538.54785 C 371.58184,-537.60686 373.63479,-536.281 375.34564,-534.57025 C 377.14192,-532.85941 378.55332,-530.80646 379.57986,-528.41139 C 380.60627,-526.10178 381.11951,-523.53559 381.11957,-520.71282 L 381.11957,-520.4562 C 381.11951,-517.88998 380.64904,-515.40933 379.70817,-513.01424 C 378.76717,-510.70465 377.44131,-508.6517 375.73057,-506.85538 C 374.01972,-505.05903 371.96677,-503.64763 369.57171,-502.62117 C 367.17655,-501.59468 364.56759,-501.08144 361.74482,-501.08145 M 470.00002,-521.99591 C 469.99995,-527.6415 468.97347,-532.60279 466.92059,-536.87982 C 464.95311,-541.2423 462.30138,-544.9205 458.9654,-547.91445 C 455.62929,-550.90828 451.78,-553.17508 447.41753,-554.71486 C 443.1405,-556.2545 438.69244,-557.02436 434.07334,-557.02443 C 429.5397,-557.02436 425.13441,-556.21173 420.85745,-554.58655 C 416.58044,-553.04677 412.77393,-550.7372 409.4379,-547.65783 C 406.10184,-544.66388 403.40734,-540.98568 401.35439,-536.62321 C 399.38698,-532.34618 398.40327,-527.47042 398.40327,-521.99591 C 398.40327,-516.60688 399.34421,-511.77389 401.22608,-507.49693 C 403.19349,-503.21993 405.80245,-499.58449 409.05297,-496.59061 C 412.30346,-493.59672 416.06721,-491.28715 420.34421,-489.6619 C 424.70671,-488.12218 429.28308,-487.35233 434.07334,-487.35232 C 439.54784,-487.35233 444.50913,-488.29326 448.95725,-490.17514 C 453.40526,-492.14255 457.169,-494.70873 460.24849,-497.87371 C 463.4134,-501.12421 465.8085,-504.80241 467.43383,-508.90833 C 469.14455,-513.09976 469.99995,-517.46228 470.00002,-521.99591 M 415.85337,-521.99591 C 415.85336,-524.64761 416.32382,-527.12826 417.26478,-529.43787 C 418.2057,-531.83294 419.48879,-533.92866 421.11407,-535.72504 C 422.7393,-537.52132 424.66394,-538.93273 426.888,-539.95925 C 429.112,-540.98568 431.50711,-541.49892 434.07334,-541.49897 C 436.55395,-541.49892 438.90629,-541.02845 441.13036,-540.08756 C 443.35435,-539.14658 445.27899,-537.82071 446.90429,-536.10997 C 448.61504,-534.39913 449.9409,-532.34618 450.88189,-529.95111 C 451.90831,-527.55596 452.42155,-524.90423 452.42161,-521.99591 C 452.42155,-519.25861 451.90831,-516.73519 450.88189,-514.42565 C 449.85536,-512.11605 448.48673,-510.10587 446.77598,-508.3951 C 445.06514,-506.76982 443.09773,-505.48673 440.87374,-504.54581 C 438.64967,-503.60486 436.38287,-503.13439 434.07334,-503.1344 C 431.25049,-503.13439 428.72707,-503.6904 426.50307,-504.80243 C 424.27901,-505.91443 422.35437,-507.32583 420.72914,-509.03664 C 419.1894,-510.83296 417.99185,-512.84314 417.13647,-515.06719 C 416.28105,-517.37674 415.85336,-519.68631 415.85337,-521.99591"
       style="font-size:128.30958557px;font-style:normal;font-variant:normal;font-weight:bold;font-stretch:normal;text-align:start;line-height:125%;writing-mode:lr-tb;text-anchor:start;fill:#ffffff;fill-opacity:1;stroke:none;stroke-width:1px;stroke-linecap:butt;stroke-linejoin:miter;stroke-opacity:1;font-family:Distro;-inkscape-font-specification:Distro Bold"
       transform="matrix(0,1,-1,0,0,0)" />
  </g>
</svg>
