<?xml version="1.0" encoding="UTF-8" standalone="no"?>
<!-- Created with Inkscape (http://www.inkscape.org/) -->
<svg
   xmlns:dc="http://purl.org/dc/elements/1.1/"
   xmlns:cc="http://creativecommons.org/ns#"
   xmlns:rdf="http://www.w3.org/1999/02/22-rdf-syntax-ns#"
   xmlns:svg="http://www.w3.org/2000/svg"
   xmlns="http://www.w3.org/2000/svg"
   xmlns:sodipodi="http://sodipodi.sourceforge.net/DTD/sodipodi-0.dtd"
   xmlns:inkscape="http://www.inkscape.org/namespaces/inkscape"
   width="600"
   height="480"
   id="svg3437"
   sodipodi:version="0.32"
   inkscape:version="0.46"
   version="1.0"
   sodipodi:docname="exherbo-zebrapig.svg"
   inkscape:output_extension="org.inkscape.output.svg.inkscape">
  <defs
     id="defs3439" />
  <sodipodi:namedview
     id="base"
     pagecolor="#99ff88"
     bordercolor="#666666"
     borderopacity="1.0"
     gridtolerance="10000"
     guidetolerance="10"
     objecttolerance="10"
     inkscape:pageopacity="1"
     inkscape:pageshadow="2"
     inkscape:zoom="1"
     inkscape:cx="384.53061"
     inkscape:cy="241.55891"
     inkscape:document-units="px"
     inkscape:current-layer="svg3437"
     showgrid="false"
     width="600px"
     inkscape:window-width="1280"
     inkscape:window-height="739"
     inkscape:window-x="-5"
     inkscape:window-y="36" />
  <metadata
     id="metadata3442">
    <rdf:RDF>
      <cc:Work
         rdf:about="">
        <dc:format>image/svg+xml</dc:format>
        <dc:type
           rdf:resource="http://purl.org/dc/dcmitype/StillImage" />
        <cc:license
           rdf:resource="http://creativecommons.org/licenses/by-sa/3.0/" />
      </cc:Work>
      <cc:License
         rdf:about="http://creativecommons.org/licenses/by-sa/3.0/">
        <cc:permits
           rdf:resource="http://creativecommons.org/ns#Reproduction" />
        <cc:permits
           rdf:resource="http://creativecommons.org/ns#Distribution" />
        <cc:requires
           rdf:resource="http://creativecommons.org/ns#Notice" />
        <cc:requires
           rdf:resource="http://creativecommons.org/ns#Attribution" />
        <cc:permits
           rdf:resource="http://creativecommons.org/ns#DerivativeWorks" />
        <cc:requires
           rdf:resource="http://creativecommons.org/ns#ShareAlike" />
      </cc:License>
    </rdf:RDF>
  </metadata>
  <g
     id="g2410-anchorLeft"
     inkscape:label="#g2410">
    <g
       transform="matrix(1.3480542,0,0,1.3480542,-332.10951,-88.324138)"
       id="g3925">
      <path
         id="path6457"
         d="M 292.34172,208.19065 C 291.56926,207.73146 282.75492,202.35603 281.78914,195.59556 C 280.77899,188.52449 281.78914,184.48388 281.78914,184.48388 C 281.78915,184.48388 289.55296,186.92676 294.41604,192.06002 C 296.88969,194.6711 298.65291,196.79609 299.90915,198.50621"
         style="fill:#ffffff;fill-opacity:1;fill-rule:evenodd;stroke:#000000;stroke-width:5;stroke-linecap:butt;stroke-linejoin:miter;stroke-miterlimit:4;stroke-dasharray:none;stroke-opacity:1" />
      <path
         id="path6459"
         d="M 378.36021,299.15409 C 378.36021,299.15409 403.36684,292.90243 409.09752,301.23797 C 414.82821,309.57351 416.91209,310.61546 409.61849,312.17837 C 402.32489,313.74129 390.34255,314.26226 390.34255,314.26226 L 378.36021,299.15409 z"
         style="fill:#fff6f6;fill-opacity:1;fill-rule:evenodd;stroke:#000000;stroke-width:8;stroke-linecap:butt;stroke-linejoin:miter;stroke-miterlimit:4;stroke-dasharray:none;stroke-opacity:1" />
      <path
         id="path6461"
         d="M 310.63393,303.84283 C 310.63393,303.84283 289.2741,293.4234 276.24982,305.40574 C 263.22554,317.38809 305.42422,320.51391 305.42422,320.51391 L 310.63393,303.84283 z"
         style="fill:#fff6f6;fill-opacity:1;fill-rule:evenodd;stroke:#000000;stroke-width:8;stroke-linecap:butt;stroke-linejoin:miter;stroke-miterlimit:4;stroke-dasharray:none;stroke-opacity:1" />
      <path
         id="path6463"
         d="M 308.54061,287.23926 C 308.54061,287.23926 315.90826,293.87014 295.27884,318.92014 C 274.64943,343.97014 306.33032,369.75691 306.33032,369.75691 C 306.33032,369.75691 334.32738,401.4378 366.74503,393.33338 C 399.16268,385.22897 395.47885,385.96574 408.74062,372.70397 C 422.00239,359.4422 412.42445,335.86573 408.74062,323.34073 C 405.0568,310.81573 368.95532,280.60837 368.95532,280.60837 L 308.54061,287.23926 z"
         style="fill:#ffffff;fill-opacity:1;fill-rule:evenodd;stroke:#000000;stroke-width:5;stroke-linecap:butt;stroke-linejoin:miter;stroke-miterlimit:4;stroke-dasharray:none;stroke-opacity:1" />
      <path
         sodipodi:nodetypes="cccccccccc"
         id="path6465"
         d="M 306.53788,286.5093 C 296.65945,275.08798 286.65656,262.54849 283.68833,247.37375 C 282.60933,234.93998 283.4325,221.62901 290.11327,210.72527 C 294.69131,203.03537 300.61465,195.50849 309.37172,192.44709 C 320.89222,188.00099 333.76323,187.4708 345.83911,189.58767 C 365.29381,193.53459 385.04376,207.99602 392.01014,226.55575 C 397.66804,241.78734 403.77753,254.89513 390.96192,282.97375 C 383.8605,296.32533 366.26997,302.68427 356.78335,303.44234 C 349.56076,304.05505 337.77735,301.58008 330.58673,300.00581 C 323.90477,299.18734 311.6904,291.94989 306.53788,286.5093 z"
         style="fill:#ffffff;fill-opacity:1;fill-rule:evenodd;stroke:#000000;stroke-width:5;stroke-linecap:butt;stroke-linejoin:miter;stroke-miterlimit:4;stroke-dasharray:none;stroke-opacity:1" />
      <path
         id="path6467"
         d="M 371.39746,201.29314 C 374.33776,199.43107 382.07531,195.89988 388.86531,204.68693 C 393.45993,210.63291 390.53404,214.55413 386.82061,216.91494"
         style="fill:#ffffff;fill-opacity:1;fill-rule:evenodd;stroke:#000000;stroke-width:5;stroke-linecap:butt;stroke-linejoin:miter;stroke-miterlimit:4;stroke-dasharray:none;stroke-opacity:1" />
      <path
         id="path6469"
         d="M 332.04572,188.40142 C 324.31416,188.43071 316.55854,189.65386 309.35822,192.43267 C 306.27525,193.51045 303.55369,195.15445 301.10822,197.15142 L 300.98322,197.62017 C 304.51876,218.32829 303.50432,209.75262 304.51447,218.33892 C 305.52461,226.92521 302.99654,204.19044 314.10822,194.08892 C 325.2199,183.98739 320.27786,204.0041 320.27786,204.0041 C 320.27786,204.0041 322.6934,205.6944 329.76447,210.74517 C 336.83555,215.79592 331.79572,211.24517 331.79572,211.24517 C 331.79572,211.24517 329.27034,197.60922 331.79572,195.58892 C 334.3211,193.56861 340.89026,187.01278 343.92072,194.58892 C 346.95118,202.16507 342.88947,210.24517 342.88947,210.24517 C 342.88948,210.24517 356.55238,217.30879 362.10822,201.65142 C 363.0875,198.89162 363.87583,197.32408 364.51447,196.58892 C 358.56081,193.28785 352.17143,190.87607 345.82697,189.58892 C 341.29851,188.79509 336.68465,188.38385 332.04572,188.40142 z M 366.38947,197.65142 C 367.29994,200.92629 367.13947,208.21392 367.13947,208.21392 C 367.13946,208.21392 367.15121,211.24009 372.20197,211.74517 C 377.25273,212.25024 366.56804,220.01749 366.56804,220.01749 C 366.56805,220.01748 364.11488,225.40142 369.67072,225.40142 C 375.22657,225.40142 367.13757,221.87017 379.76447,221.87017 C 392.39138,221.87017 393.50227,241.55767 393.50227,241.55767 C 395.05866,248.09455 398.08753,260.75421 388.99616,275.40142 C 379.90479,290.04863 370.20742,296.06218 358.357,297.70172 C 333.23199,298.81652 318.67072,289.02642 318.67072,289.02642 C 318.67072,289.02643 308.5535,284.49787 298.45197,274.90142 C 297.77436,274.25769 297.06513,273.94859 296.32697,273.90142 C 299.53741,278.29189 303.04893,282.45222 306.54572,286.49517 C 311.69824,291.93576 323.895,299.17669 330.57697,299.99517 C 337.76759,301.56944 349.57312,304.04538 356.79572,303.43267 C 366.28234,302.6746 384.78805,296.3155 391.88947,282.96392 C 404.70508,254.8853 397.67237,241.78926 392.01447,226.55767 C 387.55937,214.68845 377.88025,204.49025 366.38947,197.65142 z"
         style="fill:#000000;fill-opacity:1;fill-rule:evenodd;stroke:#000000;stroke-width:1px;stroke-linecap:butt;stroke-linejoin:miter;stroke-opacity:1"
         sodipodi:nodetypes="ccccsscscsscscccccscsscsccsccccccc" />
      <path
         sodipodi:nodetypes="cscsssc"
         id="path6471"
         d="M 299.97188,262.26563 C 299.97188,262.26563 303.00234,240.04227 326.74092,240.54735 C 350.47951,241.05242 367.14703,249.63872 367.14703,249.63872 C 367.14703,249.63872 380.78409,259.23517 380.27901,268.32654 C 379.77393,277.41791 371.18764,284.99406 360.07596,286.50929 C 353.10557,287.4598 319.16478,283.98391 311.08356,280.44837 C 303.00234,276.91284 299.4668,266.30624 299.97188,262.26563 z"
         style="fill:#ba7e8d;fill-opacity:1;fill-rule:evenodd;stroke:#000000;stroke-width:5;stroke-linecap:butt;stroke-linejoin:miter;stroke-miterlimit:4;stroke-dasharray:none;stroke-opacity:1" />
      <path
         sodipodi:nodetypes="cscsc"
         id="path6473"
         d="M 323.24709,224.4683 C 323.24709,224.4683 313.78154,223.61459 316.6811,230.02414 C 319.08021,235.32744 321.73186,235.20117 321.73186,235.20117 C 321.73186,235.20117 326.02501,236.59014 327.79278,230.52922 C 329.77773,223.7237 324.88859,224.34203 323.24709,224.4683 z"
         style="fill:#758fff;fill-opacity:1;fill-rule:evenodd;stroke:#000000;stroke-width:8;stroke-linecap:butt;stroke-linejoin:miter;stroke-miterlimit:4;stroke-dasharray:none;stroke-opacity:1" />
      <path
         sodipodi:nodetypes="csssc"
         id="path6475"
         d="M 353.10914,216.42996 C 353.10914,216.42996 344.77538,218.82907 345.40673,225.77386 C 346.03808,232.71866 350.58376,236.38047 353.74049,235.87539 C 356.89722,235.37031 362.57932,234.36016 361.56917,226.78402 C 360.55902,219.20787 356.51841,215.92488 353.10914,216.42996 z"
         style="fill:#758fff;fill-opacity:1;fill-rule:evenodd;stroke:#000000;stroke-width:8;stroke-linecap:butt;stroke-linejoin:miter;stroke-miterlimit:4;stroke-dasharray:none;stroke-opacity:1" />
      <path
         id="path6477"
         d="M 361.59119,258.09875 C 361.59119,258.09875 354.26758,257.4674 353.25743,265.04354 C 352.24728,272.61969 357.92938,275.27134 359.69715,275.14507 C 361.46492,275.0188 367.02076,276.40776 367.77837,267.69519 C 368.53599,258.98263 361.46492,257.71994 361.59119,258.09875 z"
         style="fill:#000000;fill-opacity:1;fill-rule:evenodd;stroke:none;stroke-width:1px;stroke-linecap:butt;stroke-linejoin:miter;stroke-opacity:1" />
      <path
         sodipodi:nodetypes="csssc"
         id="path6479"
         d="M 321.05882,253.80559 C 321.05882,253.80559 314.36656,254.94202 315.12417,259.86651 C 315.88179,264.79101 318.40717,265.92743 322.19524,265.67489 C 325.98331,265.42235 328.12988,259.99278 326.74092,257.21486 C 325.35197,254.43694 321.18509,253.67932 321.05882,253.80559 z"
         style="fill:#000000;fill-opacity:1;fill-rule:evenodd;stroke:none;stroke-width:1px;stroke-linecap:butt;stroke-linejoin:miter;stroke-opacity:1" />
      <path
         style="fill:#000000;fill-opacity:1;fill-rule:evenodd;stroke:none;stroke-width:1px;stroke-linecap:butt;stroke-linejoin:miter;stroke-opacity:1"
         d="M 295.26529,324.16071 C 300.14751,320.4518 303.57999,315.61565 309.26031,311.75825 C 315.41227,308.75453 321.25072,306.62393 327.35195,308.14947 C 336.02462,308.40573 344.60447,309.90034 353.23991,310.52529 C 360.03395,310.30536 366.64869,308.37541 372.91367,305.83987 C 376.24429,304.78106 380.27737,302.83457 380.20195,306.55585 C 379.1574,309.42383 376.55008,311.38183 374.71306,313.75276 C 372.87747,315.80598 371.75462,318.56166 369.04445,319.68148 C 362.81561,322.79577 355.67922,321.13027 349.04953,320.83231 C 339.02637,320.03329 329.01435,318.50409 318.94227,318.71725 C 311.85549,319.27268 305.01151,321.58671 298.65158,324.6817"
         id="path6481"
         sodipodi:nodetypes="ccccccccccc" />
      <path
         style="fill:#000000;fill-opacity:1;fill-rule:evenodd;stroke:none;stroke-width:1px;stroke-linecap:butt;stroke-linejoin:miter;stroke-opacity:1"
         d="M 305.16373,339.52939 C 300.51268,340.3682 298.39745,332.3191 302.95862,330.8816 C 308.93648,327.10654 316.73242,324.23373 323.56071,327.52411 C 336.17323,332.53278 349.95367,331.96997 363.26598,332.40947 C 370.09484,332.67038 376.20036,328.65191 381.48905,324.75233 C 385.65299,322.62308 387.45472,317.69877 391.74727,315.95812 C 395.22978,316.09292 395.0313,320.80343 394.43299,323.30271 C 392.13593,331.73149 384.11463,336.8265 376.63211,340.26672 C 372.2995,342.45735 367.64083,344.02218 362.76028,344.23956 C 356.42175,344.6352 350.04801,344.17323 343.74198,343.57579 C 335.87652,342.24156 328.33932,337.34659 320.15022,339.09186 C 315.81708,340.23881 305.68385,339.5298 305.16373,339.52939 z"
         id="path6483"
         sodipodi:nodetypes="cccccccccccc" />
      <path
         sodipodi:nodetypes="cccccccccccc"
         id="path6485"
         d="M 314.54123,361.41018 C 318.20352,361.54674 322.30216,360.67501 325.49412,362.98622 C 335.85429,365.44821 346.55329,363.87471 357.05717,363.76058 C 365.08025,362.81411 372.68448,359.87509 380.27528,357.28274 C 383.71051,355.11747 386.762,352.39095 390.18353,350.23165 C 392.15569,347.70142 399.53504,343.79643 396.82574,347.0548 C 394.15972,353.8549 390.88443,357.89945 388.09195,359.7389 C 384.65214,365.14973 382.24086,372.13716 375.85584,374.77343 C 367.73205,377.93141 359.30862,378.44176 350.54093,377.87848 C 343.48331,377.62072 336.12712,379.25936 329.10484,378.46809 C 325.35195,378.04972 321.20184,376.40974 319.81742,372.57972 C 317.7722,369.07056 313.75163,365.92113 314.54123,361.41018 z"
         style="fill:none;fill-opacity:1;fill-rule:evenodd;stroke:none;stroke-width:1px;stroke-linecap:butt;stroke-linejoin:miter;stroke-opacity:1" />
      <path
         id="path6487"
         d="M 320.53238,364.2755 C 338.95776,364.37867 357.99411,365.05991 375.56091,358.56305 C 379.6294,356.9299 383.98832,355.45262 386.98602,352.07608 C 388.87802,350.37979 391.12523,348.05276 393.90705,348.62408 C 396.20111,350.82286 392.93135,354.16298 391.35898,356.01313 C 388.1156,358.9291 386.09125,362.94366 383.46286,366.39525 C 380.8874,369.9992 377.92286,373.47892 374.03123,375.7068 C 359.37416,378.64774 344.37434,378.97062 329.53241,380.33997 C 324.10888,380.25183 317.94495,379.28493 314.23191,374.94733 C 311.97241,371.42083 313.76587,366.10854 317.39872,364.31218 C 317.75596,364.2384 318.10247,364.12917 318.44849,364.01501"
         style="fill:#000000;fill-opacity:1;fill-rule:evenodd;stroke:none;stroke-width:1px;stroke-linecap:butt;stroke-linejoin:miter;stroke-opacity:1" />
      <path
         style="opacity:0.22105264;fill:#000000;fill-opacity:1;fill-rule:evenodd;stroke:none;stroke-width:1px;stroke-linecap:butt;stroke-linejoin:miter;stroke-opacity:1"
         d="M 395.30844,305.13847 C 384.63584,342.79527 342.38413,363.2609 310.18344,373.63847 C 318.88893,381.80564 341.44287,399.65174 366.74594,393.32597 C 399.1636,385.22158 395.48417,385.96274 408.74594,372.70097 C 422.00772,359.43921 412.42977,335.85097 408.74594,323.32597 C 407.41762,318.80967 401.85426,312.00767 395.30844,305.13847 z"
         id="path7505" />
      <path
         sodipodi:nodetypes="cssssc"
         id="path6489"
         d="M 261.75605,349.1275 C 261.75605,349.1275 281.30305,334.28209 300.4362,346.9172 C 319.96047,359.81059 324.74944,363.49441 331.01194,378.22971 C 337.27444,392.965 329.90679,400.33265 327.32811,402.91133 C 324.46277,405.77667 320.69723,413.59442 284.22737,394.07015 C 247.75752,374.54588 258.58614,350.37262 261.75605,349.1275 z"
         style="fill:#ffffff;fill-opacity:1;fill-rule:evenodd;stroke:#000000;stroke-width:8;stroke-linecap:butt;stroke-linejoin:miter;stroke-miterlimit:4;stroke-dasharray:none;stroke-opacity:1" />
      <path
         style="fill:#000000;fill-opacity:1;fill-rule:evenodd;stroke:none;stroke-width:1px;stroke-linecap:butt;stroke-linejoin:miter;stroke-opacity:1"
         d="M 263.59796,374.91428 C 265.47473,373.18277 268.41311,372.63382 269.60585,370.18829 C 271.97395,366.74812 273.64378,364.53939 274.89127,361.29609 C 276.92935,357.5894 279.00398,352.46901 279.24591,351.19988 C 279.10012,349.41473 281.13198,347.29076 282.60726,348.75878 C 284.3354,350.96667 283.89766,353.98068 284.99689,356.45393 C 286.45086,361.38572 287.38121,366.73677 285.87714,371.77238 C 285.10184,374.27675 283.3141,376.47554 280.88239,377.52077 C 278.96244,378.60115 276.87532,379.60114 275.52773,381.41474 C 274.95702,383.09055 273.60189,385.04952 271.58704,384.76363 C 269.23637,384.18624 268.41202,381.66183 267.07996,379.93792 C 265.67081,378.5021 265.63668,375.93794 263.92765,374.93368 L 263.59796,374.91428 L 263.59796,374.91428 z"
         id="path6491"
         sodipodi:nodetypes="cccccccccccccc" />
      <path
         style="fill:#000000;fill-opacity:1;fill-rule:evenodd;stroke:none;stroke-width:1px;stroke-linecap:butt;stroke-linejoin:miter;stroke-opacity:1"
         d="M 276.49133,390.01794 C 281.08485,390.56634 286.04969,389.63092 289.67486,386.62152 C 293.72066,383.62701 294.44231,382.37393 297.17554,378.73594 C 299.50743,375.50949 300.26408,371.44955 302.54711,368.19486 C 305.10883,365.61691 305.91158,364.60925 306.94213,366.725 C 308.48314,370.615 306.54105,374.71718 306.98445,378.71242 C 306.8976,385.02371 304.6822,391.73258 299.48741,395.65707 C 298.16586,396.62127 296.58447,397.27531 295.62814,398.66567 C 294.51341,400.03173 292.71987,401.52648 290.87214,400.66172 C 288.59009,399.67373 287.36534,397.09209 284.8634,396.47853 C 281.62055,394.9107 280.30309,390.60979 276.49133,390.01794 z"
         id="path6493"
         sodipodi:nodetypes="ccccccccccc" />
      <path
         sodipodi:nodetypes="csscsc"
         id="path6495"
         d="M 388.77964,393.44991 C 388.77964,393.44991 384.09089,370.52717 398.15712,356.46094 C 412.22335,342.39471 429.4154,339.26888 446.60746,350.20928 C 463.79952,361.14968 448.0753,389.9047 448.0753,389.9047 C 448.0753,389.9047 434.36036,411.33123 413.78626,410.12099 C 404.92975,409.60002 389.42176,399.3968 388.77964,393.44991 z"
         style="fill:#ffffff;fill-opacity:1;fill-rule:evenodd;stroke:#000000;stroke-width:8;stroke-linecap:butt;stroke-linejoin:miter;stroke-miterlimit:4;stroke-dasharray:none;stroke-opacity:1" />
      <path
         style="fill:#000000;fill-opacity:1;fill-rule:evenodd;stroke:none;stroke-width:1px;stroke-linecap:butt;stroke-linejoin:miter;stroke-opacity:1"
         d="M 390.86353,371.56912 C 393.03946,370.99621 391.88757,372.64714 394.63232,375.24786 C 396.08373,378.32522 400.58927,378.11476 403.77471,379.47689 C 407.6971,380.49868 411.42704,382.10895 415.19021,383.58862 C 418.3442,385.6537 419.33638,388.05858 424.69026,389.7941 C 426.54409,390.21073 429.55658,390.00189 429.48784,392.36027 C 429.11297,394.39363 426.60847,394.97139 424.86416,394.54858 C 419.65609,394.20061 414.09268,395.16807 409.25812,392.69091 C 404.47435,390.36402 399.31841,388.95929 394.28537,387.31677 C 392.31313,386.28407 389.67471,385.62676 388.86497,383.28589 C 387.92871,380.41686 388.454,377.34513 388.0953,374.40096 C 388.25138,373.01488 389.26576,371.36317 390.86353,371.56912 z"
         id="path6497"
         sodipodi:nodetypes="cccccccccccc" />
      <path
         sodipodi:nodetypes="cccccc"
         id="path6499"
         d="M 398.93857,355.80971 C 404.82002,363.89572 415.15757,366.50781 423.31648,371.61084 C 431.0509,375.42883 439.17931,381.8099 448.92361,374.35078 C 445.27856,367.37605 438.81348,368.39795 434.17035,365.34199 C 426.59271,360.40105 417.09012,357.32612 412.41393,348.99087 C 407.25106,344.80981 402.99967,352.85531 399.58979,355.54924"
         style="fill:#000000;fill-opacity:1;fill-rule:evenodd;stroke:none;stroke-width:1px;stroke-linecap:butt;stroke-linejoin:miter;stroke-opacity:1" />
      <path
         style="opacity:0.22631579;fill:#000000;fill-opacity:1;fill-rule:evenodd;stroke:#000000;stroke-width:1px;stroke-linecap:butt;stroke-linejoin:miter;stroke-opacity:1"
         d="M 454.93344,363.20097 C 424.40896,390.62562 401.19879,393.54414 388.55844,392.13847 C 388.67933,392.96235 388.77719,393.45097 388.77719,393.45097 C 393.46594,401.26554 404.92069,409.58623 413.77719,410.10722 C 434.35129,411.31746 447.75569,388.67215 447.7557,388.67216 C 447.7557,388.67216 456.99158,375.28677 454.93344,363.20097 z"
         id="path6503"
         sodipodi:nodetypes="cccscc" />
      <path
         style="opacity:0.2157895;fill:#000000;fill-opacity:1;fill-rule:evenodd;stroke:none;stroke-width:1px;stroke-linecap:butt;stroke-linejoin:miter;stroke-opacity:1"
         d="M 262.52719,348.57597 C 262.06557,348.88848 261.74594,349.13847 261.74594,349.13847 C 261.37755,349.13847 247.74484,374.55168 284.21469,394.07597 C 310.55631,408.17805 319.856,408.02084 324.05844,405.76347 C 297.23708,397.64828 276.09558,370.89679 262.52719,348.57597 z"
         id="path7477" />
    </g>
  </g>
  <g
     id="g2438-anchorRight"
     inkscape:label="#g2438">
    <path
       id="text2405"
       d="M 314.67434,53.405447 C 314.67429,50.475909 314.10632,47.815386 312.97041,45.423868 C 311.8942,42.972635 310.42941,40.880089 308.57606,39.146223 C 306.72262,37.352653 304.57028,35.977551 302.11905,35.020912 C 299.72753,34.064366 297.18658,33.586069 294.49619,33.586022 C 290.61001,33.586069 287.08257,34.124153 283.91388,35.200274 C 280.74515,36.276486 277.99494,37.860843 275.66326,39.953348 C 273.39134,41.986149 271.62762,44.556992 270.3721,47.665885 C 269.11657,50.715057 268.4888,54.2126 268.4888,58.158522 L 268.4888,58.337883 C 268.4888,61.446832 269.17635,64.376397 270.55146,67.126587 C 271.92656,69.876805 273.72017,72.298181 275.9323,74.390721 C 278.2042,76.423487 280.80493,78.037737 283.73452,79.233476 C 286.66406,80.429219 289.68331,81.027089 292.79226,81.027089 L 292.97162,81.027089 C 295.66201,81.027089 297.96381,80.758047 299.87703,80.219963 C 301.79019,79.681881 303.34465,79.024223 304.54043,78.246989 C 305.73613,77.46976 306.60304,76.692528 307.14117,75.915292 C 307.67921,75.078278 307.94825,74.390727 307.94829,73.852637 C 307.94825,72.357968 307.61942,71.222014 306.96181,70.444772 C 306.36389,69.667551 305.28773,69.278935 303.7333,69.278923 C 302.77667,69.278935 301.84997,69.428402 300.9532,69.727326 C 300.05636,70.026273 299.15956,70.355102 298.26278,70.713814 C 297.42573,71.012759 296.55882,71.311694 295.66204,71.61062 C 294.76521,71.909565 293.71893,72.059032 292.52322,72.059023 C 291.50681,72.059032 290.46054,71.909565 289.3844,71.61062 C 288.30821,71.311694 287.29183,70.893185 286.33525,70.355091 C 285.37864,69.757231 284.60141,69.039787 284.00356,68.202755 C 283.40567,67.365749 283.10673,66.409157 283.10675,65.332974 C 283.10673,64.31661 283.37578,63.479591 283.91388,62.821916 C 284.51173,62.164276 285.22917,61.656087 286.06621,61.297345 C 286.963,60.878855 287.91959,60.609813 288.93599,60.490219 C 289.95235,60.310878 290.90894,60.221198 291.80577,60.221177 C 293.71893,60.221198 295.39297,60.310878 296.82789,60.490219 C 298.32254,60.6696 299.63785,60.819068 300.77384,60.938622 C 301.55104,61.058216 302.26848,61.147897 302.92618,61.207664 C 303.5838,61.267471 304.33113,61.297364 305.16819,61.297345 C 308.21729,61.297364 310.54899,60.57992 312.16328,59.145009 C 313.83728,57.710142 314.67429,55.796956 314.67434,53.405447 M 282.92739,48.203969 C 282.92737,47.307196 283.13663,46.440284 283.55515,45.60323 C 284.03343,44.706459 284.6313,43.929228 285.34877,43.271533 C 286.12598,42.613913 287.02279,42.105723 288.03919,41.746962 C 289.05555,41.328491 290.10182,41.119237 291.17801,41.119197 C 292.31394,41.119237 293.44989,41.298598 294.58587,41.657281 C 295.78159,41.956255 296.85775,42.434552 297.81438,43.092171 C 298.77094,43.69008 299.51828,44.437418 300.05639,45.334188 C 300.65423,46.231029 300.95317,47.247409 300.9532,48.38333 C 300.95317,50.176974 300.08625,51.462396 298.35246,52.239598 C 296.67839,53.016859 294.64563,53.405474 292.25418,53.405447 C 291.35735,53.405474 290.34097,53.345687 289.20504,53.226086 C 288.12885,53.046752 287.11247,52.77771 286.15589,52.41896 C 285.25907,52.000479 284.48184,51.462396 283.8242,50.804708 C 283.22631,50.147081 282.92737,49.280168 282.92739,48.203969 M 320.94358,34.931232 C 319.50868,34.931278 318.37273,35.200319 317.53572,35.738358 C 316.69869,36.216699 316.28018,37.233079 316.28019,38.7875 C 316.28018,40.162644 316.6389,41.448066 317.35635,42.643768 C 318.07379,43.77976 318.88092,45.035288 319.77773,46.410356 C 320.7941,47.845279 321.7507,49.399742 322.64751,51.07375 C 323.54431,52.68803 323.99271,54.391961 323.99272,56.185547 C 323.99271,56.903017 323.81335,57.710142 323.45464,58.606925 C 323.0959,59.443966 322.61761,60.370665 322.01975,61.387025 C 321.48165,62.343638 320.85389,63.330124 320.13645,64.346487 C 319.419,65.303096 318.73145,66.259689 318.0738,67.216268 C 316.93784,68.770745 315.95135,70.205634 315.11434,71.52094 C 314.27732,72.776477 313.85881,73.942324 313.85881,75.018485 C 313.85881,76.931676 314.12785,78.246991 314.66593,78.964434 C 315.20401,79.681881 316.45954,80.040603 318.43252,80.040602 C 320.16634,80.040603 321.69091,79.442732 323.00624,78.246989 C 324.32154,76.991464 325.60696,75.586468 326.8625,74.031998 C 327.87887,72.71669 328.92514,71.520949 330.00133,70.444772 C 331.13726,69.368615 332.333,68.830532 333.58855,68.83052 C 334.84406,68.830532 336.06969,69.428402 337.26546,70.624133 C 338.46118,71.760097 339.59713,72.985732 340.67332,74.30104 L 340.67332,74.211359 C 341.86904,75.765829 343.09467,77.140931 344.35023,78.336669 C 345.60573,79.472626 347.04062,80.040603 348.6549,80.040602 C 350.20933,80.040603 351.43496,79.801455 352.33181,79.323157 C 353.28836,78.844862 353.76666,77.679015 353.7667,75.825611 C 353.76666,74.450514 353.28836,73.015625 352.33181,71.52094 C 351.43496,70.026273 350.38869,68.412023 349.19299,66.678184 C 347.87763,64.8248 346.62211,62.971402 345.4264,61.117983 C 344.29041,59.264605 343.72243,57.560674 343.72247,56.006186 C 343.72243,54.093025 344.14094,52.329308 344.978,50.715027 C 345.87477,49.100807 346.77157,47.606131 347.66842,46.230994 C 348.5054,44.915714 349.22284,43.719973 349.82075,42.643768 C 350.47837,41.56764 350.8072,40.431686 350.80724,39.235903 C 350.8072,36.545528 349.4022,35.200319 346.59225,35.200274 C 344.97796,35.200319 343.63275,35.678616 342.55662,36.635164 C 341.48042,37.532014 340.43415,38.578287 339.4178,39.773987 C 338.58075,40.730621 337.71384,41.627427 336.81706,42.464407 C 335.98001,43.301464 334.99353,43.719973 333.85759,43.719936 C 332.72162,43.719973 331.73513,43.301464 330.89813,42.464407 C 330.0611,41.627427 329.22408,40.730621 328.38707,39.773987 C 327.31089,38.578287 326.20483,37.472227 325.06889,36.455803 C 323.99271,35.439468 322.61761,34.931278 320.94358,34.931232 M 370.79201,20.582327 C 370.79199,16.87559 370.25391,14.274854 369.17776,12.78011 C 368.10158,11.225715 366.6069,10.448483 364.69373,10.448412 C 363.61755,10.448483 362.72074,10.747418 362.00331,11.345219 C 361.28585,11.883372 360.68798,12.63071 360.20969,13.587235 C 359.79118,14.543896 359.46235,15.620062 359.22321,16.815739 C 359.04384,17.951757 358.95416,19.087711 358.95417,20.223604 L 358.95417,71.700301 C 358.95416,74.570088 359.46235,76.841996 360.47874,78.516031 C 361.5549,80.130283 363.01968,80.937408 364.87309,80.937408 C 366.06882,80.937408 367.0553,80.668367 367.83255,80.130283 C 368.60977,79.532413 369.20764,78.785075 369.62616,77.888266 C 370.10444,76.991464 370.40338,75.975084 370.52297,74.839124 C 370.70231,73.643389 370.79199,72.417755 370.79201,71.162217 L 370.79201,58.337883 C 370.79199,56.783442 371.09093,55.079512 371.68882,53.226086 C 372.34646,51.312928 373.36284,49.638891 374.73796,48.203969 L 375.09668,47.845246 C 375.57496,47.307196 376.23262,46.769113 377.06966,46.230994 C 377.90665,45.692946 379.19207,45.423904 380.92593,45.423868 C 383.25759,45.423904 385.20067,45.81252 386.75517,46.589717 C 388.36939,47.307196 389.65481,48.353469 390.61144,49.72854 C 391.62778,51.043886 392.34522,52.628243 392.76377,54.481615 C 393.24203,56.33504 393.48118,58.367799 393.48122,60.579899 L 393.48122,71.431259 C 393.48118,74.898917 394.01926,77.350186 395.09547,78.785073 C 396.1716,80.219964 397.66627,80.937408 399.5795,80.937408 C 401.55243,80.937408 402.98732,80.070496 403.88417,78.336669 C 404.84072,76.543061 405.31901,74.151579 405.31906,71.162217 L 405.31906,55.109379 C 405.31901,53.136433 405.10976,50.954206 404.6913,48.562691 C 404.27274,46.171242 403.43572,43.959121 402.18024,41.926323 C 400.92467,39.833815 399.10116,38.099991 396.70972,36.724845 C 394.37798,35.29 391.26906,34.572555 387.38293,34.572509 C 385.29035,34.572555 383.64621,34.751917 382.4505,35.110593 C 381.25473,35.469361 380.14867,35.828083 379.13231,36.186761 C 378.5942,36.425954 378.05612,36.635208 377.51806,36.814525 C 376.97995,36.934144 376.3223,36.993931 375.54509,36.993887 C 374.22975,36.993931 373.0938,36.455847 372.13722,35.379635 C 371.2404,34.243727 370.79199,32.719157 370.79201,30.805922 L 370.79201,20.582327 M 454.80036,53.405447 C 454.80032,50.475909 454.23234,47.815386 453.09643,45.423868 C 452.02022,42.972635 450.55544,40.880089 448.70208,39.146223 C 446.84864,37.352653 444.69631,35.977551 442.24507,35.020912 C 439.85355,34.064366 437.31261,33.586069 434.62222,33.586022 C 430.73603,33.586069 427.20859,34.124153 424.0399,35.200274 C 420.87117,36.276486 418.12096,37.860843 415.78928,39.953348 C 413.51736,41.986149 411.75364,44.556992 410.49812,47.665885 C 409.24259,50.715057 408.61482,54.2126 408.61483,58.158522 L 408.61483,58.337883 C 408.61482,61.446832 409.30238,64.376397 410.67748,67.126587 C 412.05258,69.876805 413.84619,72.298181 416.05832,74.390721 C 418.33022,76.423487 420.93096,78.037737 423.86054,79.233476 C 426.79009,80.429219 429.80933,81.027089 432.91828,81.027089 L 433.09765,81.027089 C 435.78804,81.027089 438.08984,80.758047 440.00306,80.219963 C 441.91621,79.681881 443.47067,79.024223 444.66645,78.246989 C 445.86215,77.46976 446.72906,76.692528 447.26719,75.915292 C 447.80523,75.078278 448.07427,74.390727 448.07431,73.852637 C 448.07427,72.357968 447.74544,71.222014 447.08783,70.444772 C 446.48992,69.667551 445.41375,69.278935 443.85932,69.278923 C 442.90269,69.278935 441.97599,69.428402 441.07922,69.727326 C 440.18238,70.026273 439.28558,70.355102 438.3888,70.713814 C 437.55175,71.012759 436.68484,71.311694 435.78806,71.61062 C 434.89123,71.909565 433.84496,72.059032 432.64924,72.059023 C 431.63284,72.059032 430.58656,71.909565 429.51042,71.61062 C 428.43423,71.311694 427.41785,70.893185 426.46128,70.355091 C 425.50466,69.757231 424.72743,69.039787 424.12958,68.202755 C 423.53169,67.365749 423.23276,66.409157 423.23277,65.332974 C 423.23276,64.31661 423.5018,63.479591 424.0399,62.821916 C 424.63775,62.164276 425.3552,61.656087 426.19223,61.297345 C 427.08902,60.878855 428.04561,60.609813 429.06202,60.490219 C 430.07837,60.310878 431.03497,60.221198 431.9318,60.221177 C 433.84496,60.221198 435.51899,60.310878 436.95391,60.490219 C 438.44856,60.6696 439.76387,60.819068 440.89986,60.938622 C 441.67706,61.058216 442.3945,61.147897 443.0522,61.207664 C 443.70982,61.267471 444.45716,61.297364 445.29421,61.297345 C 448.34332,61.297364 450.67501,60.57992 452.28931,59.145009 C 453.9633,57.710142 454.80032,55.796956 454.80036,53.405447 M 423.05341,48.203969 C 423.0534,47.307196 423.26265,46.440284 423.68118,45.60323 C 424.15946,44.706459 424.75733,43.929228 425.47479,43.271533 C 426.252,42.613913 427.14881,42.105723 428.16521,41.746962 C 429.18157,41.328491 430.22784,41.119237 431.30403,41.119197 C 432.43996,41.119237 433.57592,41.298598 434.7119,41.657281 C 435.90761,41.956255 436.98378,42.434552 437.9404,43.092171 C 438.89696,43.69008 439.6443,44.437418 440.18242,45.334188 C 440.78025,46.231029 441.07919,47.247409 441.07922,48.38333 C 441.07919,50.176974 440.21228,51.462396 438.47848,52.239598 C 436.80442,53.016859 434.77166,53.405474 432.3802,53.405447 C 431.48337,53.405474 430.46699,53.345687 429.33106,53.226086 C 428.25487,53.046752 427.23849,52.77771 426.28192,52.41896 C 425.38509,52.000479 424.60786,51.462396 423.95022,50.804708 C 423.35233,50.147081 423.0534,49.280168 423.05341,48.203969 M 481.76903,34.034425 C 480.63304,34.034472 479.67645,34.154046 478.89925,34.393148 C 478.12199,34.632342 477.40454,34.901384 476.74691,35.200274 C 476.14902,35.499255 475.52125,35.768296 474.86362,36.0074 C 474.26572,36.186806 473.4586,36.276486 472.44224,36.276442 C 471.78456,36.276486 471.24648,36.246593 470.82799,36.186761 C 470.40946,36.067232 469.96106,35.947657 469.48278,35.828038 C 468.8251,35.708509 468.16744,35.588935 467.5098,35.469316 C 466.91192,35.29 466.22437,35.200319 465.44715,35.200274 C 463.71331,35.200319 462.33821,35.529148 461.32184,36.186761 C 460.36524,36.844463 459.6179,37.681482 459.07982,38.697819 C 458.60152,39.654454 458.30258,40.730621 458.18301,41.926323 C 458.06343,43.062316 458.00365,44.108589 458.00365,45.065146 L 458.00365,71.879662 C 458.00365,72.896051 458.12322,73.912431 458.36238,74.928804 C 458.60152,75.94519 458.96024,76.901783 459.43854,77.798585 C 459.97662,78.635607 460.60438,79.323158 461.32184,79.861241 C 462.09906,80.399325 463.02576,80.668367 464.10194,80.668366 C 465.11831,80.668367 465.98522,80.399325 466.70268,79.861241 C 467.47989,79.323158 468.10766,78.605714 468.58597,77.708905 C 469.06425,76.812102 469.42297,75.795723 469.66214,74.659762 C 469.90127,73.464028 470.02084,72.238393 470.02086,70.982856 L 470.02086,59.952135 C 470.02084,58.218332 470.11052,56.723655 470.2899,55.468102 C 470.52903,54.152813 470.79807,53.046752 471.09703,52.149918 C 471.45573,51.253141 471.84435,50.505803 472.26288,49.907901 C 472.68137,49.310062 473.09988,48.801872 473.51841,48.38333 C 474.59455,47.307196 475.61093,46.529964 476.56755,46.051633 C 477.5839,45.513585 478.95901,45.065182 480.69286,44.706423 C 481.64942,44.527098 482.54623,44.317844 483.38328,44.078659 C 484.28005,43.839547 485.05728,43.540612 485.71498,43.181852 C 486.3726,42.763381 486.88079,42.225297 487.23955,41.5676 C 487.65802,40.850195 487.86728,39.893602 487.86731,38.697819 C 487.86728,37.382547 487.35909,36.276486 486.34274,35.379635 C 485.32633,34.482875 483.80176,34.034472 481.76903,34.034425 M 506.80253,36.814525 C 504.88933,36.81457 503.60391,35.917764 502.94627,34.124106 C 502.28859,32.330541 501.95976,29.998847 501.95978,27.129015 L 501.95978,18.34031 C 501.95976,16.905484 501.75051,15.649956 501.33201,14.573723 C 500.97328,13.497622 500.49498,12.63071 499.89712,11.972984 C 499.35903,11.315395 498.73126,10.837099 498.01383,10.538093 C 497.29637,10.179441 496.60882,10.00008 495.95117,10.000009 C 494.3967,10.00008 493.08139,10.807205 492.00523,12.421387 C 490.92905,13.975919 490.39097,16.098359 490.39097,18.788714 L 490.39097,72.328065 C 490.39097,72.985732 490.45076,73.82275 490.57034,74.839124 C 490.6899,75.795723 490.98884,76.722422 491.46714,77.619224 C 491.94543,78.516033 492.60309,79.293265 493.44012,79.950921 C 494.33691,80.548793 495.56255,80.847728 497.11702,80.847728 C 498.49211,80.847728 499.41881,80.787941 499.89712,80.668366 C 500.43519,80.489006 500.94338,80.309644 501.42169,80.130283 C 501.60104,80.010709 501.87008,79.921029 502.22882,79.861241 C 502.58753,79.801455 503.30497,79.771561 504.38116,79.77156 C 505.57688,79.771561 506.53347,79.891135 507.25094,80.130283 C 507.96836,80.369432 508.65591,80.638473 509.31359,80.937408 C 510.32995,81.415705 511.55558,81.864108 512.9905,82.282618 C 514.42536,82.760913 516.66738,83.000061 519.71655,83.000064 C 521.33077,83.000061 523.30374,82.551659 525.63547,81.654854 C 527.96713,80.758047 530.20914,79.353052 532.36152,77.439863 C 534.51381,75.526681 536.33731,73.075412 537.83204,70.086049 C 539.38645,67.096708 540.16368,63.539378 540.16374,59.414051 C 540.16368,55.40834 539.56581,51.851011 538.37013,48.742053 C 537.23412,45.633159 535.64976,43.032422 533.61705,40.939836 C 531.64403,38.787542 529.31234,37.173292 526.62196,36.09708 C 523.99129,34.961171 521.21119,34.393194 518.28166,34.393148 C 516.5478,34.393194 515.02323,34.572555 513.70794,34.931232 C 512.3926,35.230213 511.22675,35.559042 510.2104,35.917719 C 509.55272,36.156912 508.92495,36.366167 508.32711,36.545484 C 507.789,36.724889 507.28081,36.81457 506.80253,36.814525 M 514.33571,72.148704 C 512.60186,72.148713 510.98761,71.789991 509.49295,71.072536 C 508.05804,70.295315 506.80251,69.278935 505.72637,68.023394 C 504.65018,66.767879 503.81316,65.362883 503.21531,63.808403 C 502.61742,62.253957 502.31849,60.6696 502.3185,59.055328 C 502.31849,57.022591 502.64731,55.139299 503.30499,53.405447 C 504.02242,51.67165 504.94911,50.176974 506.08509,48.921414 C 507.22102,47.665918 508.50644,46.709325 509.94136,46.051633 C 511.37622,45.334223 512.8709,44.975501 514.42539,44.975465 C 516.21897,44.975501 517.9229,45.30433 519.53719,45.961952 C 521.21119,46.619645 522.64608,47.546344 523.84186,48.742053 C 525.09735,49.937826 526.08384,51.372715 526.80132,53.046724 C 527.51872,54.661002 527.87745,56.454614 527.87749,58.427564 L 527.87749,58.606925 C 527.87745,60.400559 527.54862,62.134383 526.891,63.808403 C 526.2333,65.42267 525.3066,66.857559 524.1109,68.113075 C 522.91512,69.368615 521.48023,70.355102 519.80623,71.072536 C 518.13216,71.789991 516.30865,72.148713 514.33571,72.148704 M 589.99955,57.530757 C 589.9995,53.584836 589.28205,50.117187 587.84721,47.127801 C 586.47206,44.078696 584.61866,41.507853 582.28701,39.415265 C 579.95527,37.322759 577.26486,35.738403 574.21575,34.66219 C 571.22636,33.586069 568.11744,33.047986 564.88896,33.047938 C 561.72022,33.047986 558.64119,33.615963 555.65186,34.75187 C 552.66249,35.828083 550.00196,37.442334 547.67028,39.594626 C 545.33857,41.687214 543.45528,44.258057 542.0204,47.307162 C 540.64529,50.296548 539.95774,53.70441 539.95774,57.530757 C 539.95774,61.297364 540.6154,64.675332 541.93072,67.664671 C 543.30581,70.654037 545.12932,73.194986 547.40124,75.287527 C 549.67313,77.380079 552.30376,78.99433 555.29313,80.130283 C 558.34226,81.20645 561.54086,81.744534 564.88896,81.744534 C 568.71531,81.744534 572.18296,81.086876 575.29192,79.77156 C 578.40081,78.396459 581.03144,76.602848 583.18382,74.390721 C 585.39589,72.118819 587.06993,69.547976 588.20593,66.678184 C 589.40163,63.748633 589.9995,60.699494 589.99955,57.530757 M 552.15431,57.530757 C 552.1543,55.677382 552.48313,53.943558 553.1408,52.329279 C 553.79844,50.65527 554.69525,49.190488 555.83122,47.934927 C 556.96715,46.679432 558.31236,45.692946 559.86685,44.975465 C 561.42129,44.258057 563.09533,43.899334 564.88896,43.899297 C 566.62276,43.899334 568.26691,44.228163 569.8214,44.885785 C 571.37583,45.543478 572.72104,46.470177 573.85703,47.665885 C 575.05274,48.861659 575.97943,50.296548 576.63713,51.970556 C 577.35454,53.644623 577.71326,55.498021 577.7133,57.530757 C 577.71326,59.443966 577.35454,61.207684 576.63713,62.821916 C 575.91965,64.436184 574.96305,65.84118 573.76735,67.036907 C 572.57157,68.172874 571.19647,69.06968 569.64204,69.727326 C 568.08754,70.384995 566.50319,70.713824 564.88896,70.713814 C 562.91597,70.713824 561.15225,70.325208 559.5978,69.547965 C 558.04332,68.770745 556.69811,67.784259 555.56217,66.588503 C 554.48599,65.33299 553.64897,63.927994 553.05112,62.373513 C 552.45323,60.759281 552.1543,59.145031 552.15431,57.530757"
       style="font-size:89.68065643px;font-style:normal;font-variant:normal;font-weight:bold;font-stretch:normal;text-align:start;line-height:125%;writing-mode:lr-tb;text-anchor:start;fill:#ffffff;fill-opacity:1;stroke:none;stroke-width:1px;stroke-linecap:butt;stroke-linejoin:miter;stroke-opacity:1;font-family:Distro;-inkscape-font-specification:Distro Bold" />
  </g>
</svg>
