<?xml version="1.0" encoding="UTF-8" standalone="no"?>
<!-- Created with Inkscape (http://www.inkscape.org/) -->
<svg
   xmlns:dc="http://purl.org/dc/elements/1.1/"
   xmlns:cc="http://creativecommons.org/ns#"
   xmlns:rdf="http://www.w3.org/1999/02/22-rdf-syntax-ns#"
   xmlns:svg="http://www.w3.org/2000/svg"
   xmlns="http://www.w3.org/2000/svg"
   xmlns:sodipodi="http://sodipodi.sourceforge.net/DTD/sodipodi-0.dtd"
   xmlns:inkscape="http://www.inkscape.org/namespaces/inkscape"
   width="640"
   height="480"
   id="svg2409"
   sodipodi:version="0.32"
   inkscape:version="0.46"
   version="1.0"
   sodipodi:docname="exherbo-zebrapig-grub_legacy.svg"
   inkscape:output_extension="org.inkscape.output.svg.inkscape">
  <defs
     id="defs2411" />
  <sodipodi:namedview
     id="base"
     pagecolor="#99ff88"
     bordercolor="#666666"
     borderopacity="1.0"
     gridtolerance="10000"
     guidetolerance="10"
     objecttolerance="10"
     inkscape:pageopacity="1"
     inkscape:pageshadow="2"
     inkscape:zoom="1"
     inkscape:cx="401.83582"
     inkscape:cy="241.55891"
     inkscape:document-units="px"
     inkscape:current-layer="svg2409"
     showgrid="false"
     width="640px"
     inkscape:window-width="1280"
     inkscape:window-height="739"
     inkscape:window-x="-5"
     inkscape:window-y="36" />
  <metadata
     id="metadata2414">
    <rdf:RDF>
      <cc:Work
         rdf:about="">
        <dc:format>image/svg+xml</dc:format>
        <dc:type
           rdf:resource="http://purl.org/dc/dcmitype/StillImage" />
        <cc:license
           rdf:resource="http://creativecommons.org/licenses/by-sa/3.0/" />
      </cc:Work>
      <cc:License
         rdf:about="http://creativecommons.org/licenses/by-sa/3.0/">
        <cc:permits
           rdf:resource="http://creativecommons.org/ns#Reproduction" />
        <cc:permits
           rdf:resource="http://creativecommons.org/ns#Distribution" />
        <cc:requires
           rdf:resource="http://creativecommons.org/ns#Notice" />
        <cc:requires
           rdf:resource="http://creativecommons.org/ns#Attribution" />
        <cc:permits
           rdf:resource="http://creativecommons.org/ns#DerivativeWorks" />
        <cc:requires
           rdf:resource="http://creativecommons.org/ns#ShareAlike" />
      </cc:License>
    </rdf:RDF>
  </metadata>
  <g
     id="g2579-anchorRight"
     inkscape:label="#g2579">
    <g
       transform="matrix(1.7658233,0,0,1.7658218,-179.89205,-261.35111)"
       id="g3925">
      <path
         id="path6457"
         d="M 292.34172,208.19065 C 291.56926,207.73146 282.75492,202.35603 281.78914,195.59556 C 280.77899,188.52449 281.78914,184.48388 281.78914,184.48388 C 281.78915,184.48388 289.55296,186.92676 294.41604,192.06002 C 296.88969,194.6711 298.65291,196.79609 299.90915,198.50621"
         style="fill:#ffffff;fill-opacity:1;fill-rule:evenodd;stroke:#000000;stroke-width:5;stroke-linecap:butt;stroke-linejoin:miter;stroke-miterlimit:4;stroke-dasharray:none;stroke-opacity:1" />
      <path
         id="path6459"
         d="M 378.36021,299.15409 C 378.36021,299.15409 403.36684,292.90243 409.09752,301.23797 C 414.82821,309.57351 416.91209,310.61546 409.61849,312.17837 C 402.32489,313.74129 390.34255,314.26226 390.34255,314.26226 L 378.36021,299.15409 z"
         style="fill:#fff6f6;fill-opacity:1;fill-rule:evenodd;stroke:#000000;stroke-width:8;stroke-linecap:butt;stroke-linejoin:miter;stroke-miterlimit:4;stroke-dasharray:none;stroke-opacity:1" />
      <path
         id="path6461"
         d="M 310.63393,303.84283 C 310.63393,303.84283 289.2741,293.4234 276.24982,305.40574 C 263.22554,317.38809 305.42422,320.51391 305.42422,320.51391 L 310.63393,303.84283 z"
         style="fill:#fff6f6;fill-opacity:1;fill-rule:evenodd;stroke:#000000;stroke-width:8;stroke-linecap:butt;stroke-linejoin:miter;stroke-miterlimit:4;stroke-dasharray:none;stroke-opacity:1" />
      <path
         id="path6463"
         d="M 308.54061,287.23926 C 308.54061,287.23926 315.90826,293.87014 295.27884,318.92014 C 274.64943,343.97014 306.33032,369.75691 306.33032,369.75691 C 306.33032,369.75691 334.32738,401.4378 366.74503,393.33338 C 399.16268,385.22897 395.47885,385.96574 408.74062,372.70397 C 422.00239,359.4422 412.42445,335.86573 408.74062,323.34073 C 405.0568,310.81573 368.95532,280.60837 368.95532,280.60837 L 308.54061,287.23926 z"
         style="fill:#ffffff;fill-opacity:1;fill-rule:evenodd;stroke:#000000;stroke-width:5;stroke-linecap:butt;stroke-linejoin:miter;stroke-miterlimit:4;stroke-dasharray:none;stroke-opacity:1" />
      <path
         sodipodi:nodetypes="cccccccccc"
         id="path6465"
         d="M 306.53788,286.5093 C 296.65945,275.08798 286.65656,262.54849 283.68833,247.37375 C 282.60933,234.93998 283.4325,221.62901 290.11327,210.72527 C 294.69131,203.03537 300.61465,195.50849 309.37172,192.44709 C 320.89222,188.00099 333.76323,187.4708 345.83911,189.58767 C 365.29381,193.53459 385.04376,207.99602 392.01014,226.55575 C 397.66804,241.78734 403.77753,254.89513 390.96192,282.97375 C 383.8605,296.32533 366.26997,302.68427 356.78335,303.44234 C 349.56076,304.05505 337.77735,301.58008 330.58673,300.00581 C 323.90477,299.18734 311.6904,291.94989 306.53788,286.5093 z"
         style="fill:#ffffff;fill-opacity:1;fill-rule:evenodd;stroke:#000000;stroke-width:5;stroke-linecap:butt;stroke-linejoin:miter;stroke-miterlimit:4;stroke-dasharray:none;stroke-opacity:1" />
      <path
         id="path6467"
         d="M 371.39746,201.29314 C 374.33776,199.43107 382.07531,195.89988 388.86531,204.68693 C 393.45993,210.63291 390.53404,214.55413 386.82061,216.91494"
         style="fill:#ffffff;fill-opacity:1;fill-rule:evenodd;stroke:#000000;stroke-width:5;stroke-linecap:butt;stroke-linejoin:miter;stroke-miterlimit:4;stroke-dasharray:none;stroke-opacity:1" />
      <path
         id="path6469"
         d="M 332.04572,188.40142 C 324.31416,188.43071 316.55854,189.65386 309.35822,192.43267 C 306.27525,193.51045 303.55369,195.15445 301.10822,197.15142 L 300.98322,197.62017 C 304.51876,218.32829 303.50432,209.75262 304.51447,218.33892 C 305.52461,226.92521 302.99654,204.19044 314.10822,194.08892 C 325.2199,183.98739 320.27786,204.0041 320.27786,204.0041 C 320.27786,204.0041 322.6934,205.6944 329.76447,210.74517 C 336.83555,215.79592 331.79572,211.24517 331.79572,211.24517 C 331.79572,211.24517 329.27034,197.60922 331.79572,195.58892 C 334.3211,193.56861 340.89026,187.01278 343.92072,194.58892 C 346.95118,202.16507 342.88947,210.24517 342.88947,210.24517 C 342.88948,210.24517 356.55238,217.30879 362.10822,201.65142 C 363.0875,198.89162 363.87583,197.32408 364.51447,196.58892 C 358.56081,193.28785 352.17143,190.87607 345.82697,189.58892 C 341.29851,188.79509 336.68465,188.38385 332.04572,188.40142 z M 366.38947,197.65142 C 367.29994,200.92629 367.13947,208.21392 367.13947,208.21392 C 367.13946,208.21392 367.15121,211.24009 372.20197,211.74517 C 377.25273,212.25024 366.56804,220.01749 366.56804,220.01749 C 366.56805,220.01748 364.11488,225.40142 369.67072,225.40142 C 375.22657,225.40142 367.13757,221.87017 379.76447,221.87017 C 392.39138,221.87017 393.50227,241.55767 393.50227,241.55767 C 395.05866,248.09455 398.08753,260.75421 388.99616,275.40142 C 379.90479,290.04863 370.20742,296.06218 358.357,297.70172 C 333.23199,298.81652 318.67072,289.02642 318.67072,289.02642 C 318.67072,289.02643 308.5535,284.49787 298.45197,274.90142 C 297.77436,274.25769 297.06513,273.94859 296.32697,273.90142 C 299.53741,278.29189 303.04893,282.45222 306.54572,286.49517 C 311.69824,291.93576 323.895,299.17669 330.57697,299.99517 C 337.76759,301.56944 349.57312,304.04538 356.79572,303.43267 C 366.28234,302.6746 384.78805,296.3155 391.88947,282.96392 C 404.70508,254.8853 397.67237,241.78926 392.01447,226.55767 C 387.55937,214.68845 377.88025,204.49025 366.38947,197.65142 z"
         style="fill:#000000;fill-opacity:1;fill-rule:evenodd;stroke:#000000;stroke-width:1px;stroke-linecap:butt;stroke-linejoin:miter;stroke-opacity:1"
         sodipodi:nodetypes="ccccsscscsscscccccscsscsccsccccccc" />
      <path
         sodipodi:nodetypes="cscsssc"
         id="path6471"
         d="M 299.97188,262.26563 C 299.97188,262.26563 303.00234,240.04227 326.74092,240.54735 C 350.47951,241.05242 367.14703,249.63872 367.14703,249.63872 C 367.14703,249.63872 380.78409,259.23517 380.27901,268.32654 C 379.77393,277.41791 371.18764,284.99406 360.07596,286.50929 C 353.10557,287.4598 319.16478,283.98391 311.08356,280.44837 C 303.00234,276.91284 299.4668,266.30624 299.97188,262.26563 z"
         style="fill:#ba7e8d;fill-opacity:1;fill-rule:evenodd;stroke:#000000;stroke-width:5;stroke-linecap:butt;stroke-linejoin:miter;stroke-miterlimit:4;stroke-dasharray:none;stroke-opacity:1" />
      <path
         sodipodi:nodetypes="cscsc"
         id="path6473"
         d="M 323.24709,224.4683 C 323.24709,224.4683 313.78154,223.61459 316.6811,230.02414 C 319.08021,235.32744 321.73186,235.20117 321.73186,235.20117 C 321.73186,235.20117 326.02501,236.59014 327.79278,230.52922 C 329.77773,223.7237 324.88859,224.34203 323.24709,224.4683 z"
         style="fill:#758fff;fill-opacity:1;fill-rule:evenodd;stroke:#000000;stroke-width:8;stroke-linecap:butt;stroke-linejoin:miter;stroke-miterlimit:4;stroke-dasharray:none;stroke-opacity:1" />
      <path
         sodipodi:nodetypes="csssc"
         id="path6475"
         d="M 353.10914,216.42996 C 353.10914,216.42996 344.77538,218.82907 345.40673,225.77386 C 346.03808,232.71866 350.58376,236.38047 353.74049,235.87539 C 356.89722,235.37031 362.57932,234.36016 361.56917,226.78402 C 360.55902,219.20787 356.51841,215.92488 353.10914,216.42996 z"
         style="fill:#758fff;fill-opacity:1;fill-rule:evenodd;stroke:#000000;stroke-width:8;stroke-linecap:butt;stroke-linejoin:miter;stroke-miterlimit:4;stroke-dasharray:none;stroke-opacity:1" />
      <path
         id="path6477"
         d="M 361.59119,258.09875 C 361.59119,258.09875 354.26758,257.4674 353.25743,265.04354 C 352.24728,272.61969 357.92938,275.27134 359.69715,275.14507 C 361.46492,275.0188 367.02076,276.40776 367.77837,267.69519 C 368.53599,258.98263 361.46492,257.71994 361.59119,258.09875 z"
         style="fill:#000000;fill-opacity:1;fill-rule:evenodd;stroke:none;stroke-width:1px;stroke-linecap:butt;stroke-linejoin:miter;stroke-opacity:1" />
      <path
         sodipodi:nodetypes="csssc"
         id="path6479"
         d="M 321.05882,253.80559 C 321.05882,253.80559 314.36656,254.94202 315.12417,259.86651 C 315.88179,264.79101 318.40717,265.92743 322.19524,265.67489 C 325.98331,265.42235 328.12988,259.99278 326.74092,257.21486 C 325.35197,254.43694 321.18509,253.67932 321.05882,253.80559 z"
         style="fill:#000000;fill-opacity:1;fill-rule:evenodd;stroke:none;stroke-width:1px;stroke-linecap:butt;stroke-linejoin:miter;stroke-opacity:1" />
      <path
         style="fill:#000000;fill-opacity:1;fill-rule:evenodd;stroke:none;stroke-width:1px;stroke-linecap:butt;stroke-linejoin:miter;stroke-opacity:1"
         d="M 295.26529,324.16071 C 300.14751,320.4518 303.57999,315.61565 309.26031,311.75825 C 315.41227,308.75453 321.25072,306.62393 327.35195,308.14947 C 336.02462,308.40573 344.60447,309.90034 353.23991,310.52529 C 360.03395,310.30536 366.64869,308.37541 372.91367,305.83987 C 376.24429,304.78106 380.27737,302.83457 380.20195,306.55585 C 379.1574,309.42383 376.55008,311.38183 374.71306,313.75276 C 372.87747,315.80598 371.75462,318.56166 369.04445,319.68148 C 362.81561,322.79577 355.67922,321.13027 349.04953,320.83231 C 339.02637,320.03329 329.01435,318.50409 318.94227,318.71725 C 311.85549,319.27268 305.01151,321.58671 298.65158,324.6817"
         id="path6481"
         sodipodi:nodetypes="ccccccccccc" />
      <path
         style="fill:#000000;fill-opacity:1;fill-rule:evenodd;stroke:none;stroke-width:1px;stroke-linecap:butt;stroke-linejoin:miter;stroke-opacity:1"
         d="M 305.16373,339.52939 C 300.51268,340.3682 298.39745,332.3191 302.95862,330.8816 C 308.93648,327.10654 316.73242,324.23373 323.56071,327.52411 C 336.17323,332.53278 349.95367,331.96997 363.26598,332.40947 C 370.09484,332.67038 376.20036,328.65191 381.48905,324.75233 C 385.65299,322.62308 387.45472,317.69877 391.74727,315.95812 C 395.22978,316.09292 395.0313,320.80343 394.43299,323.30271 C 392.13593,331.73149 384.11463,336.8265 376.63211,340.26672 C 372.2995,342.45735 367.64083,344.02218 362.76028,344.23956 C 356.42175,344.6352 350.04801,344.17323 343.74198,343.57579 C 335.87652,342.24156 328.33932,337.34659 320.15022,339.09186 C 315.81708,340.23881 305.68385,339.5298 305.16373,339.52939 z"
         id="path6483"
         sodipodi:nodetypes="cccccccccccc" />
      <path
         sodipodi:nodetypes="cccccccccccc"
         id="path6485"
         d="M 314.54123,361.41018 C 318.20352,361.54674 322.30216,360.67501 325.49412,362.98622 C 335.85429,365.44821 346.55329,363.87471 357.05717,363.76058 C 365.08025,362.81411 372.68448,359.87509 380.27528,357.28274 C 383.71051,355.11747 386.762,352.39095 390.18353,350.23165 C 392.15569,347.70142 399.53504,343.79643 396.82574,347.0548 C 394.15972,353.8549 390.88443,357.89945 388.09195,359.7389 C 384.65214,365.14973 382.24086,372.13716 375.85584,374.77343 C 367.73205,377.93141 359.30862,378.44176 350.54093,377.87848 C 343.48331,377.62072 336.12712,379.25936 329.10484,378.46809 C 325.35195,378.04972 321.20184,376.40974 319.81742,372.57972 C 317.7722,369.07056 313.75163,365.92113 314.54123,361.41018 z"
         style="fill:none;fill-opacity:1;fill-rule:evenodd;stroke:none;stroke-width:1px;stroke-linecap:butt;stroke-linejoin:miter;stroke-opacity:1" />
      <path
         id="path6487"
         d="M 320.53238,364.2755 C 338.95776,364.37867 357.99411,365.05991 375.56091,358.56305 C 379.6294,356.9299 383.98832,355.45262 386.98602,352.07608 C 388.87802,350.37979 391.12523,348.05276 393.90705,348.62408 C 396.20111,350.82286 392.93135,354.16298 391.35898,356.01313 C 388.1156,358.9291 386.09125,362.94366 383.46286,366.39525 C 380.8874,369.9992 377.92286,373.47892 374.03123,375.7068 C 359.37416,378.64774 344.37434,378.97062 329.53241,380.33997 C 324.10888,380.25183 317.94495,379.28493 314.23191,374.94733 C 311.97241,371.42083 313.76587,366.10854 317.39872,364.31218 C 317.75596,364.2384 318.10247,364.12917 318.44849,364.01501"
         style="fill:#000000;fill-opacity:1;fill-rule:evenodd;stroke:none;stroke-width:1px;stroke-linecap:butt;stroke-linejoin:miter;stroke-opacity:1" />
      <path
         style="opacity:0.22105264;fill:#000000;fill-opacity:1;fill-rule:evenodd;stroke:none;stroke-width:1px;stroke-linecap:butt;stroke-linejoin:miter;stroke-opacity:1"
         d="M 395.30844,305.13847 C 384.63584,342.79527 342.38413,363.2609 310.18344,373.63847 C 318.88893,381.80564 341.44287,399.65174 366.74594,393.32597 C 399.1636,385.22158 395.48417,385.96274 408.74594,372.70097 C 422.00772,359.43921 412.42977,335.85097 408.74594,323.32597 C 407.41762,318.80967 401.85426,312.00767 395.30844,305.13847 z"
         id="path7505" />
      <path
         sodipodi:nodetypes="cssssc"
         id="path6489"
         d="M 261.75605,349.1275 C 261.75605,349.1275 281.30305,334.28209 300.4362,346.9172 C 319.96047,359.81059 324.74944,363.49441 331.01194,378.22971 C 337.27444,392.965 329.90679,400.33265 327.32811,402.91133 C 324.46277,405.77667 320.69723,413.59442 284.22737,394.07015 C 247.75752,374.54588 258.58614,350.37262 261.75605,349.1275 z"
         style="fill:#ffffff;fill-opacity:1;fill-rule:evenodd;stroke:#000000;stroke-width:8;stroke-linecap:butt;stroke-linejoin:miter;stroke-miterlimit:4;stroke-dasharray:none;stroke-opacity:1" />
      <path
         style="fill:#000000;fill-opacity:1;fill-rule:evenodd;stroke:none;stroke-width:1px;stroke-linecap:butt;stroke-linejoin:miter;stroke-opacity:1"
         d="M 263.59796,374.91428 C 265.47473,373.18277 268.41311,372.63382 269.60585,370.18829 C 271.97395,366.74812 273.64378,364.53939 274.89127,361.29609 C 276.92935,357.5894 279.00398,352.46901 279.24591,351.19988 C 279.10012,349.41473 281.13198,347.29076 282.60726,348.75878 C 284.3354,350.96667 283.89766,353.98068 284.99689,356.45393 C 286.45086,361.38572 287.38121,366.73677 285.87714,371.77238 C 285.10184,374.27675 283.3141,376.47554 280.88239,377.52077 C 278.96244,378.60115 276.87532,379.60114 275.52773,381.41474 C 274.95702,383.09055 273.60189,385.04952 271.58704,384.76363 C 269.23637,384.18624 268.41202,381.66183 267.07996,379.93792 C 265.67081,378.5021 265.63668,375.93794 263.92765,374.93368 L 263.59796,374.91428 L 263.59796,374.91428 z"
         id="path6491"
         sodipodi:nodetypes="cccccccccccccc" />
      <path
         style="fill:#000000;fill-opacity:1;fill-rule:evenodd;stroke:none;stroke-width:1px;stroke-linecap:butt;stroke-linejoin:miter;stroke-opacity:1"
         d="M 276.49133,390.01794 C 281.08485,390.56634 286.04969,389.63092 289.67486,386.62152 C 293.72066,383.62701 294.44231,382.37393 297.17554,378.73594 C 299.50743,375.50949 300.26408,371.44955 302.54711,368.19486 C 305.10883,365.61691 305.91158,364.60925 306.94213,366.725 C 308.48314,370.615 306.54105,374.71718 306.98445,378.71242 C 306.8976,385.02371 304.6822,391.73258 299.48741,395.65707 C 298.16586,396.62127 296.58447,397.27531 295.62814,398.66567 C 294.51341,400.03173 292.71987,401.52648 290.87214,400.66172 C 288.59009,399.67373 287.36534,397.09209 284.8634,396.47853 C 281.62055,394.9107 280.30309,390.60979 276.49133,390.01794 z"
         id="path6493"
         sodipodi:nodetypes="ccccccccccc" />
      <path
         sodipodi:nodetypes="csscsc"
         id="path6495"
         d="M 388.77964,393.44991 C 388.77964,393.44991 384.09089,370.52717 398.15712,356.46094 C 412.22335,342.39471 429.4154,339.26888 446.60746,350.20928 C 463.79952,361.14968 448.0753,389.9047 448.0753,389.9047 C 448.0753,389.9047 434.36036,411.33123 413.78626,410.12099 C 404.92975,409.60002 389.42176,399.3968 388.77964,393.44991 z"
         style="fill:#ffffff;fill-opacity:1;fill-rule:evenodd;stroke:#000000;stroke-width:8;stroke-linecap:butt;stroke-linejoin:miter;stroke-miterlimit:4;stroke-dasharray:none;stroke-opacity:1" />
      <path
         style="fill:#000000;fill-opacity:1;fill-rule:evenodd;stroke:none;stroke-width:1px;stroke-linecap:butt;stroke-linejoin:miter;stroke-opacity:1"
         d="M 390.86353,371.56912 C 393.03946,370.99621 391.88757,372.64714 394.63232,375.24786 C 396.08373,378.32522 400.58927,378.11476 403.77471,379.47689 C 407.6971,380.49868 411.42704,382.10895 415.19021,383.58862 C 418.3442,385.6537 419.33638,388.05858 424.69026,389.7941 C 426.54409,390.21073 429.55658,390.00189 429.48784,392.36027 C 429.11297,394.39363 426.60847,394.97139 424.86416,394.54858 C 419.65609,394.20061 414.09268,395.16807 409.25812,392.69091 C 404.47435,390.36402 399.31841,388.95929 394.28537,387.31677 C 392.31313,386.28407 389.67471,385.62676 388.86497,383.28589 C 387.92871,380.41686 388.454,377.34513 388.0953,374.40096 C 388.25138,373.01488 389.26576,371.36317 390.86353,371.56912 z"
         id="path6497"
         sodipodi:nodetypes="cccccccccccc" />
      <path
         sodipodi:nodetypes="cccccc"
         id="path6499"
         d="M 398.93857,355.80971 C 404.82002,363.89572 415.15757,366.50781 423.31648,371.61084 C 431.0509,375.42883 439.17931,381.8099 448.92361,374.35078 C 445.27856,367.37605 438.81348,368.39795 434.17035,365.34199 C 426.59271,360.40105 417.09012,357.32612 412.41393,348.99087 C 407.25106,344.80981 402.99967,352.85531 399.58979,355.54924"
         style="fill:#000000;fill-opacity:1;fill-rule:evenodd;stroke:none;stroke-width:1px;stroke-linecap:butt;stroke-linejoin:miter;stroke-opacity:1" />
      <path
         style="opacity:0.22631579;fill:#000000;fill-opacity:1;fill-rule:evenodd;stroke:#000000;stroke-width:1px;stroke-linecap:butt;stroke-linejoin:miter;stroke-opacity:1"
         d="M 454.93344,363.20097 C 424.40896,390.62562 401.19879,393.54414 388.55844,392.13847 C 388.67933,392.96235 388.77719,393.45097 388.77719,393.45097 C 393.46594,401.26554 404.92069,409.58623 413.77719,410.10722 C 434.35129,411.31746 447.75569,388.67215 447.7557,388.67216 C 447.7557,388.67216 456.99158,375.28677 454.93344,363.20097 z"
         id="path6503"
         sodipodi:nodetypes="cccscc" />
      <path
         style="opacity:0.2157895;fill:#000000;fill-opacity:1;fill-rule:evenodd;stroke:none;stroke-width:1px;stroke-linecap:butt;stroke-linejoin:miter;stroke-opacity:1"
         d="M 262.52719,348.57597 C 262.06557,348.88848 261.74594,349.13847 261.74594,349.13847 C 261.37755,349.13847 247.74484,374.55168 284.21469,394.07597 C 310.55631,408.17805 319.856,408.02084 324.05844,405.76347 C 297.23708,397.64828 276.09558,370.89679 262.52719,348.57597 z"
         id="path7477" />
    </g>
  </g>
  <g
     id="g2612-anchorLeft"
     inkscape:label="#g2612">
    <path
       id="text2607"
       d="M 49.858722,444.45947 C 49.85868,441.93124 49.368509,439.63517 48.388206,437.57126 C 47.45942,435.45582 46.195293,433.64992 44.595823,432.15357 C 42.996279,430.6057 41.138787,429.41897 39.023341,428.59337 C 36.959431,427.76786 34.766558,427.35509 32.444717,427.35505 C 29.090888,427.35509 26.046665,427.81946 23.312039,428.74817 C 20.577383,429.67695 18.203921,431.04427 16.191646,432.85013 C 14.230952,434.60446 12.708841,436.82314 11.625307,439.50615 C 10.541767,442.13763 9.9999983,445.15605 9.9999999,448.56143 L 9.9999999,448.71622 C 9.9999983,451.39929 10.593364,453.92754 11.780098,456.30099 C 12.966826,458.67446 14.514736,460.76414 16.423833,462.57003 C 18.384511,464.32434 20.62898,465.71746 23.157248,466.74939 C 25.685486,467.78134 28.291135,468.29731 30.974201,468.29731 L 31.128992,468.29731 C 33.450835,468.29731 35.437319,468.06512 37.088452,467.60075 C 38.739527,467.13637 40.081049,466.56881 41.113022,465.89804 C 42.144929,465.22728 42.893085,464.55652 43.357493,463.88576 C 43.821831,463.1634 44.054018,462.57004 44.054054,462.10566 C 44.054018,460.81574 43.770234,459.8354 43.202702,459.16463 C 42.686697,458.49388 41.757951,458.15849 40.416461,458.15848 C 39.590877,458.15849 38.791124,458.28749 38.017199,458.54546 C 37.243214,458.80346 36.469259,459.08724 35.695331,459.39681 C 34.972946,459.65481 34.22479,459.91279 33.45086,460.17077 C 32.67688,460.42876 31.773932,460.55776 30.742014,460.55775 C 29.864843,460.55776 28.961896,460.42876 28.033169,460.17077 C 27.104404,459.91279 26.227255,459.55161 25.40172,459.08723 C 24.576151,458.57127 23.90539,457.95211 23.389435,457.22974 C 22.87345,456.50739 22.615465,455.68184 22.615479,454.75308 C 22.615465,453.87594 22.847651,453.15359 23.312039,452.586 C 23.827994,452.01845 24.447158,451.57988 25.169533,451.27028 C 25.943471,450.90912 26.769023,450.67693 27.646191,450.57372 C 28.523321,450.41894 29.348873,450.34155 30.12285,450.34153 C 31.773932,450.34155 33.218648,450.41894 34.457002,450.57372 C 35.746901,450.72853 36.882035,450.85752 37.862407,450.9607 C 38.533139,451.06391 39.152303,451.1413 39.719901,451.19288 C 40.287437,451.2445 40.932399,451.2703 41.654791,451.27028 C 44.286204,451.2703 46.298487,450.65113 47.691646,449.41278 C 49.136322,448.17448 49.85868,446.52337 49.858722,444.45947 M 22.460688,439.97052 C 22.460674,439.1966 22.641263,438.44844 23.002457,437.72605 C 23.415218,436.95213 23.931188,436.28137 24.550368,435.71377 C 25.221113,435.14623 25.995068,434.70766 26.872236,434.39804 C 27.749366,434.0369 28.652314,433.85631 29.581081,433.85627 C 30.561403,433.85631 31.541746,434.0111 32.522113,434.32065 C 33.554029,434.57867 34.482775,434.99144 35.308353,435.55898 C 36.133879,436.07498 36.778841,436.71994 37.243243,437.49387 C 37.759184,438.26785 38.017169,439.145 38.017199,440.12532 C 38.017169,441.67325 37.269013,442.78259 35.772727,443.45333 C 34.327984,444.12411 32.573686,444.45949 30.509828,444.45947 C 29.735851,444.45949 28.858702,444.40789 27.878378,444.30468 C 26.949613,444.14991 26.072464,443.91772 25.246928,443.60812 C 24.472957,443.24696 23.802196,442.78259 23.234643,442.215 C 22.718659,441.64745 22.460674,440.8993 22.460688,439.97052 M 55.269156,428.51598 C 54.03082,428.51602 53.050477,428.74821 52.328124,429.21254 C 51.605761,429.62535 51.244582,430.5025 51.244586,431.84399 C 51.244582,433.03076 51.554164,434.14009 52.173333,435.172 C 52.792492,436.15237 53.489052,437.23591 54.263014,438.42261 C 55.140156,439.66097 55.965708,441.00249 56.739672,442.44718 C 57.513618,443.84033 57.900595,445.31084 57.900606,446.85873 C 57.900595,447.47792 57.745804,448.17448 57.436232,448.94841 C 57.12664,449.67079 56.713864,450.47054 56.197903,451.34767 C 55.733521,452.17324 55.191753,453.02459 54.572596,453.90173 C 53.953425,454.72729 53.360059,455.55285 52.792498,456.37839 C 51.812149,457.71992 50.960799,458.95825 50.238444,460.09337 C 49.516083,461.17692 49.154904,462.18306 49.154905,463.1118 C 49.154904,464.76291 49.38709,465.89804 49.851466,466.51721 C 50.315836,467.13637 51.399373,467.44595 53.10208,467.44595 C 54.598387,467.44595 55.914111,466.92998 57.049254,465.89804 C 58.184379,464.81451 59.293714,463.60198 60.377264,462.26045 C 61.2544,461.12532 62.157348,460.09338 63.086109,459.16463 C 64.066437,458.23589 65.098377,457.77152 66.181932,457.77151 C 67.265451,457.77152 68.323189,458.28749 69.355151,459.31942 C 70.387069,460.29977 71.367412,461.35751 72.296183,462.49264 L 72.296183,462.41524 C 73.328098,463.75677 74.385836,464.9435 75.469401,465.97544 C 76.55291,466.95578 77.791238,467.44595 79.184389,467.44595 C 80.525879,467.44595 81.583618,467.23957 82.357608,466.82679 C 83.183125,466.41401 83.595901,465.40787 83.595937,463.80836 C 83.595901,462.62164 83.183125,461.38331 82.357608,460.09337 C 81.583618,458.80346 80.68067,457.41034 79.648763,455.91401 C 78.513596,454.31452 77.430059,452.71501 76.398148,451.11549 C 75.417776,449.516 74.927605,448.04548 74.927632,446.70394 C 74.927605,445.05286 75.288784,443.53075 76.011171,442.1376 C 76.785097,440.74451 77.559052,439.45458 78.333038,438.26782 C 79.055365,437.13272 79.674529,436.10078 80.190532,435.172 C 80.758066,434.24329 81.041849,433.26294 81.041883,432.23097 C 81.041849,429.90914 79.82932,428.74821 77.404291,428.74817 C 76.011142,428.74821 74.850209,429.16098 73.92149,429.98649 C 72.992717,430.76049 72.08977,431.66344 71.212645,432.69534 C 70.490263,433.52093 69.742107,434.29488 68.968173,435.01721 C 68.245794,435.7396 67.394443,436.10078 66.414119,436.10075 C 65.433757,436.10078 64.582407,435.7396 63.860065,435.01721 C 63.137691,434.29488 62.415333,433.52093 61.692989,432.69534 C 60.764229,431.66344 59.809684,430.70889 58.829353,429.8317 C 57.900595,428.95459 56.713864,428.51602 55.269156,428.51598 M 98.288998,416.13269 C 98.288983,412.93372 97.82461,410.68926 96.895878,409.39927 C 95.967118,408.05781 94.677193,407.38705 93.026099,407.38699 C 92.097343,407.38705 91.323388,407.64503 90.704232,408.16094 C 90.085061,408.62538 89.569091,409.27034 89.15632,410.09583 C 88.795136,410.92144 88.511352,411.85019 88.304969,412.88207 C 88.150173,413.86247 88.072778,414.84281 88.072782,415.8231 L 88.072782,460.24817 C 88.072778,462.72483 88.511352,464.68552 89.388507,466.13023 C 90.317247,467.52335 91.581373,468.21991 93.18089,468.21991 C 94.21282,468.21991 95.064171,467.98772 95.734944,467.52335 C 96.405693,467.00738 96.921663,466.36242 97.282856,465.58846 C 97.695618,464.81451 97.953603,463.93736 98.056812,462.95701 C 98.211588,461.92508 98.288983,460.86734 98.288998,459.78379 L 98.288998,448.71622 C 98.288983,447.37472 98.546968,445.90421 99.062954,444.30468 C 99.630505,442.6536 100.50765,441.20888 101.6944,439.97052 L 102.00399,439.66094 C 102.41674,439.1966 102.98431,438.73222 103.70669,438.26782 C 104.42903,437.80348 105.53836,437.57129 107.0347,437.57126 C 109.04696,437.57129 110.72386,437.90667 112.06541,438.5774 C 113.4585,439.1966 114.56784,440.09955 115.39342,441.28625 C 116.27054,442.42141 116.8897,443.78873 117.25091,445.38821 C 117.66366,446.98774 117.87004,448.74204 117.87008,450.65111 L 117.87008,460.01598 C 117.87004,463.00861 118.33442,465.12409 119.2632,466.36242 C 120.19191,467.60075 121.48183,468.21991 123.13298,468.21991 C 124.83564,468.21991 126.07397,467.47175 126.84797,465.97544 C 127.67347,464.42753 128.08625,462.36365 128.0863,459.78379 L 128.0863,445.92998 C 128.08625,444.2273 127.90566,442.34401 127.54453,440.28011 C 127.1833,438.21625 126.46095,436.30717 125.37745,434.55283 C 124.29387,432.74697 122.72016,431.25066 120.65632,430.06389 C 118.644,428.8256 115.96096,428.20644 112.60718,428.2064 C 110.80126,428.20644 109.38234,428.36123 108.35042,428.67077 C 107.31846,428.98039 106.36391,429.28997 105.48679,429.59952 C 105.02239,429.80594 104.55802,429.98653 104.09367,430.14129 C 103.62927,430.24452 103.06171,430.29612 102.39096,430.29608 C 101.25581,430.29612 100.27547,429.83174 99.449932,428.90296 C 98.675961,427.92265 98.288983,426.60693 98.288998,424.95578 L 98.288998,416.13269 M 170.78931,444.45947 C 170.78927,441.93124 170.2991,439.63517 169.31879,437.57126 C 168.39001,435.45582 167.12588,433.64992 165.52641,432.15357 C 163.92687,430.6057 162.06938,429.41897 159.95393,428.59337 C 157.89002,427.76786 155.69715,427.35509 153.3753,427.35505 C 150.02148,427.35509 146.97725,427.81946 144.24263,428.74817 C 141.50797,429.67695 139.13451,431.04427 137.12223,432.85013 C 135.16154,434.60446 133.63943,436.82314 132.55589,439.50615 C 131.47235,442.13763 130.93059,445.15605 130.93059,448.56143 L 130.93059,448.71622 C 130.93059,451.39929 131.52395,453.92754 132.71069,456.30099 C 133.89741,458.67446 135.44532,460.76414 137.35442,462.57003 C 139.3151,464.32434 141.55957,465.71746 144.08784,466.74939 C 146.61607,467.78134 149.22172,468.29731 151.90479,468.29731 L 152.05958,468.29731 C 154.38142,468.29731 156.36791,468.06512 158.01904,467.60075 C 159.67011,467.13637 161.01164,466.56881 162.04361,465.89804 C 163.07552,465.22728 163.82367,464.55652 164.28808,463.88576 C 164.75242,463.1634 164.98461,462.57004 164.98464,462.10566 C 164.98461,460.81574 164.70082,459.8354 164.13329,459.16463 C 163.61729,458.49388 162.68854,458.15849 161.34705,458.15848 C 160.52147,458.15849 159.72171,458.28749 158.94779,458.54546 C 158.1738,458.80346 157.39985,459.08724 156.62592,459.39681 C 155.90353,459.65481 155.15538,459.91279 154.38145,460.17077 C 153.60747,460.42876 152.70452,460.55776 151.6726,460.55775 C 150.79543,460.55776 149.89248,460.42876 148.96376,460.17077 C 148.03499,459.91279 147.15784,459.55161 146.33231,459.08723 C 145.50674,458.57127 144.83598,457.95211 144.32002,457.22974 C 143.80404,456.50739 143.54605,455.68184 143.54607,454.75308 C 143.54605,453.87594 143.77824,453.15359 144.24263,452.586 C 144.75858,452.01845 145.37775,451.57988 146.10012,451.27028 C 146.87406,450.90912 147.69961,450.67693 148.57678,450.57372 C 149.45391,450.41894 150.27946,450.34155 151.05344,450.34153 C 152.70452,450.34155 154.14924,450.41894 155.38759,450.57372 C 156.67749,450.72853 157.81262,450.85752 158.793,450.9607 C 159.46373,451.06391 160.08289,451.1413 160.65049,451.19288 C 161.21802,451.2445 161.86299,451.2703 162.58538,451.27028 C 165.21679,451.2703 167.22908,450.65113 168.62223,449.41278 C 170.06691,448.17448 170.78927,446.52337 170.78931,444.45947 M 143.39128,439.97052 C 143.39126,439.1966 143.57185,438.44844 143.93304,437.72605 C 144.34581,436.95213 144.86178,436.28137 145.48096,435.71377 C 146.1517,435.14623 146.92566,434.70766 147.80282,434.39804 C 148.67995,434.0369 149.5829,433.85631 150.51167,433.85627 C 151.49199,433.85631 152.47233,434.0111 153.4527,434.32065 C 154.48462,434.57867 155.41336,434.99144 156.23894,435.55898 C 157.06447,436.07498 157.70943,436.71994 158.17383,437.49387 C 158.68977,438.26785 158.94776,439.145 158.94779,440.12532 C 158.94776,441.67325 158.1996,442.78259 156.70331,443.45333 C 155.25857,444.12411 153.50427,444.45949 151.44042,444.45947 C 150.66644,444.45949 149.78929,444.40789 148.80897,444.30468 C 147.8802,444.14991 147.00305,443.91772 146.17752,443.60812 C 145.40354,443.24696 144.73278,442.78259 144.16523,442.215 C 143.64925,441.64745 143.39126,440.8993 143.39128,439.97052 M 194.06361,427.74202 C 193.08324,427.74206 192.25769,427.84526 191.58695,428.05161 C 190.91617,428.25803 190.297,428.49022 189.72946,428.74817 C 189.21347,429.00619 188.6717,429.23838 188.10415,429.44473 C 187.58816,429.59956 186.8916,429.67695 186.01447,429.67691 C 185.44689,429.67695 184.98251,429.65115 184.62135,429.59952 C 184.26015,429.49636 183.87318,429.39317 183.46042,429.28993 C 182.89283,429.18678 182.32527,429.08359 181.75771,428.98035 C 181.24173,428.8256 180.64836,428.74821 179.97761,428.74817 C 178.48129,428.74821 177.29456,429.03199 176.41742,429.59952 C 175.59186,430.16712 174.9469,430.88948 174.48253,431.76659 C 174.06975,432.59218 173.81176,433.52093 173.70857,434.55283 C 173.60537,435.53321 173.55378,436.43616 173.55378,437.26168 L 173.55378,460.40296 C 173.55378,461.28011 173.65697,462.15726 173.86336,463.03441 C 174.06975,463.91156 174.37933,464.73711 174.79211,465.51106 C 175.25648,466.23343 175.79825,466.82679 176.41742,467.29116 C 177.08817,467.75554 177.88793,467.98772 178.81668,467.98772 C 179.69382,467.98772 180.44198,467.75554 181.06115,467.29116 C 181.7319,466.82679 182.27367,466.20763 182.68646,465.43367 C 183.09922,464.65972 183.4088,463.78257 183.61521,462.80222 C 183.82158,461.77028 183.92477,460.71255 183.92479,459.629 L 183.92479,450.10934 C 183.92477,448.61305 184.00217,447.32312 184.15698,446.23957 C 184.36335,445.10445 184.59554,444.14991 184.85354,443.37593 C 185.1631,442.602 185.49848,441.95704 185.85968,441.44104 C 186.22084,440.9251 186.58202,440.48652 186.94322,440.12532 C 187.87194,439.1966 188.74909,438.52584 189.57467,438.11303 C 190.45179,437.64869 191.63853,437.26171 193.13486,436.9521 C 193.96039,436.79734 194.73435,436.61675 195.45673,436.41033 C 196.23066,436.20397 196.90142,435.94599 197.46902,435.63637 C 198.03655,435.27523 198.47513,434.81085 198.78474,434.24325 C 199.14589,433.62412 199.32648,432.79857 199.32651,431.76659 C 199.32648,430.6315 198.8879,429.67695 198.01078,428.90296 C 197.13361,428.12904 195.81788,427.74206 194.06361,427.74202 M 215.66786,430.14129 C 214.01674,430.14132 212.90741,429.36737 212.33985,427.81942 C 211.77227,426.27155 211.48849,424.25927 211.4885,421.78256 L 211.4885,414.1978 C 211.48849,412.95952 211.3079,411.87599 210.94673,410.94718 C 210.63714,410.01849 210.22436,409.27034 209.7084,408.70271 C 209.24402,408.1352 208.70225,407.72243 208.0831,407.46438 C 207.46392,407.15486 206.87056,407.00007 206.303,407.00001 C 204.96147,407.00007 203.82633,407.69663 202.89759,409.08969 C 201.96884,410.43127 201.50447,412.26296 201.50447,414.58478 L 201.50447,460.78993 C 201.50447,461.35751 201.55607,462.07987 201.65926,462.95701 C 201.76245,463.78257 202.02044,464.58232 202.43322,465.35627 C 202.84599,466.13023 203.41356,466.80099 204.13592,467.36856 C 204.90987,467.88453 205.96761,468.14251 207.30914,468.14251 C 208.49586,468.14251 209.29562,468.09092 209.7084,467.98772 C 210.17276,467.83293 210.61134,467.67814 211.02413,467.52335 C 211.17891,467.42016 211.41109,467.34276 211.72069,467.29116 C 212.03026,467.23957 212.64942,467.21377 213.57818,467.21377 C 214.61011,467.21377 215.43566,467.31696 216.05484,467.52335 C 216.67399,467.72974 217.26735,467.96192 217.83494,468.21991 C 218.71207,468.63269 219.76981,469.01966 221.00816,469.38084 C 222.24646,469.79362 224.18135,470.00001 226.81283,470.00001 C 228.20592,470.00001 229.90862,469.61303 231.92093,468.83907 C 233.93318,468.06512 235.86807,466.85259 237.7256,465.20148 C 239.58305,463.55038 241.15676,461.4349 242.44673,458.85504 C 243.78821,456.2752 244.45897,453.20518 244.45902,449.64497 C 244.45897,446.18799 243.943,443.11797 242.91111,440.4349 C 241.93072,437.75188 240.5634,435.50741 238.80914,433.70148 C 237.1064,431.84403 235.09411,430.45091 232.77229,429.52212 C 230.50198,428.54182 228.10272,428.05165 225.5745,428.05161 C 224.07816,428.05165 222.76243,428.20644 221.62732,428.51598 C 220.49216,428.774 219.48602,429.05779 218.60889,429.36733 C 218.04131,429.57376 217.49954,429.75435 216.98359,429.9091 C 216.51919,430.06393 216.08062,430.14132 215.66786,430.14129 M 222.16909,460.63514 C 220.67275,460.63515 219.27963,460.32557 217.98973,459.7064 C 216.75138,459.03564 215.66784,458.15849 214.73912,457.07495 C 213.81035,455.99142 213.08799,454.77889 212.57204,453.43735 C 212.05605,452.09585 211.79807,450.72853 211.79808,449.33539 C 211.79807,447.58111 212.08185,445.9558 212.64944,444.45947 C 213.26858,442.96318 214.06834,441.67325 215.0487,440.58969 C 216.02902,439.50618 217.13836,438.68063 218.37671,438.11303 C 219.61501,437.4939 220.90494,437.18431 222.24649,437.18428 C 223.79437,437.18431 225.26489,437.4681 226.65803,438.03563 C 228.10272,438.60323 229.34105,439.40299 230.37302,440.4349 C 231.45653,441.46687 232.30788,442.70519 232.92708,444.14989 C 233.5462,445.54303 233.85579,447.09094 233.85582,448.79362 L 233.85582,448.94841 C 233.85579,450.49634 233.572,451.99265 233.00447,453.43735 C 232.43687,454.83049 231.63712,456.06882 230.60521,457.15234 C 229.57324,458.23589 228.33491,459.08724 226.89022,459.7064 C 225.44548,460.32557 223.87177,460.63515 222.16909,460.63514 M 287.46798,448.01966 C 287.46793,444.61428 286.84877,441.62166 285.61048,439.04178 C 284.42371,436.41036 282.8242,434.19169 280.81196,432.38576 C 278.79964,430.5799 276.47777,429.21258 273.84635,428.28379 C 271.26647,427.35509 268.58343,426.89071 265.79721,426.89067 C 263.06255,426.89071 260.40531,427.38088 257.82547,428.36119 C 255.24561,429.28997 252.94954,430.68309 250.93726,432.54055 C 248.92497,434.34648 247.29967,436.56515 246.06134,439.19657 C 244.87461,441.77645 244.28124,444.71748 244.28124,448.01966 C 244.28124,451.2703 244.84881,454.18553 245.98395,456.76536 C 247.17068,459.34523 248.74438,461.5381 250.70508,463.34399 C 252.66576,465.14989 254.93602,466.54301 257.51589,467.52335 C 260.14732,468.4521 262.90776,468.91647 265.79721,468.91647 C 269.0994,468.91647 272.09203,468.3489 274.7751,467.21377 C 277.45811,466.02704 279.72838,464.47913 281.58591,462.57003 C 283.49496,460.60935 284.93968,458.39068 285.92006,455.91401 C 286.95196,453.38577 287.46793,450.75433 287.46798,448.01966 M 254.80704,448.01966 C 254.80703,446.42018 255.09082,444.92386 255.65839,443.53072 C 256.22595,442.08603 256.9999,440.8219 257.98026,439.73834 C 258.96059,438.65483 260.12152,437.80348 261.46306,437.18428 C 262.80457,436.56515 264.24928,436.25557 265.79721,436.25554 C 267.29351,436.25557 268.71242,436.53935 270.05397,437.10689 C 271.39547,437.67449 272.5564,438.47424 273.53677,439.50615 C 274.56868,440.53812 275.36844,441.77645 275.93604,443.22114 C 276.55517,444.66588 276.86475,446.26539 276.86478,448.01966 C 276.86475,449.67079 276.55517,451.1929 275.93604,452.586 C 275.31684,453.97914 274.49129,455.19167 273.45938,456.2236 C 272.42741,457.20395 271.24068,457.97791 269.89918,458.54546 C 268.55763,459.11304 267.19031,459.39682 265.79721,459.39681 C 264.09449,459.39682 262.57238,459.06144 261.23088,458.39067 C 259.88934,457.71992 258.7284,456.86857 257.74807,455.83662 C 256.81931,454.75309 256.09696,453.54056 255.581,452.19903 C 255.06502,450.80592 254.80703,449.4128 254.80704,448.01966"
       style="font-size:77.39557648px;font-style:normal;font-variant:normal;font-weight:bold;font-stretch:normal;text-align:start;line-height:125%;writing-mode:lr-tb;text-anchor:start;fill:#ffffff;fill-opacity:1;stroke:none;stroke-width:1px;stroke-linecap:butt;stroke-linejoin:miter;stroke-opacity:1;font-family:Distro;-inkscape-font-specification:Distro Bold" />
  </g>
</svg>
