<?xml version="1.0" encoding="UTF-8" standalone="no"?>
<!-- Created with Inkscape (http://www.inkscape.org/) -->
<svg
   xmlns:dc="http://purl.org/dc/elements/1.1/"
   xmlns:cc="http://creativecommons.org/ns#"
   xmlns:rdf="http://www.w3.org/1999/02/22-rdf-syntax-ns#"
   xmlns:svg="http://www.w3.org/2000/svg"
   xmlns="http://www.w3.org/2000/svg"
   xmlns:sodipodi="http://sodipodi.sourceforge.net/DTD/sodipodi-0.dtd"
   xmlns:inkscape="http://www.inkscape.org/namespaces/inkscape"
   width="640"
   height="480"
   id="svg2"
   sodipodi:version="0.32"
   inkscape:version="0.46"
   version="1.0"
   sodipodi:docname="exherbo-zebrapig-zoink.svg"
   inkscape:output_extension="org.inkscape.output.svg.inkscape">
  <defs
     id="defs4" />
  <sodipodi:namedview
     id="base"
     pagecolor="#99ff88"
     bordercolor="#666666"
     borderopacity="1.0"
     gridtolerance="10000"
     guidetolerance="10"
     objecttolerance="10"
     inkscape:pageopacity="1"
     inkscape:pageshadow="2"
     inkscape:zoom="0.99674932"
     inkscape:cx="518.53673"
     inkscape:cy="244.76575"
     inkscape:document-units="px"
     inkscape:current-layer="svg2"
     showgrid="false"
     width="640px"
     inkscape:window-width="1280"
     inkscape:window-height="739"
     inkscape:window-x="-5"
     inkscape:window-y="36" />
  <metadata
     id="metadata7">
    <rdf:RDF>
      <cc:Work
         rdf:about="">
        <dc:format>image/svg+xml</dc:format>
        <dc:type
           rdf:resource="http://purl.org/dc/dcmitype/StillImage" />
        <cc:license
           rdf:resource="http://creativecommons.org/licenses/by-nc/3.0/" />
      </cc:Work>
      <cc:License
         rdf:about="http://creativecommons.org/licenses/by-nc/3.0/">
        <cc:permits
           rdf:resource="http://creativecommons.org/ns#Reproduction" />
        <cc:permits
           rdf:resource="http://creativecommons.org/ns#Distribution" />
        <cc:requires
           rdf:resource="http://creativecommons.org/ns#Notice" />
        <cc:requires
           rdf:resource="http://creativecommons.org/ns#Attribution" />
        <cc:prohibits
           rdf:resource="http://creativecommons.org/ns#CommercialUse" />
        <cc:permits
           rdf:resource="http://creativecommons.org/ns#DerivativeWorks" />
      </cc:License>
    </rdf:RDF>
  </metadata>
  <g
     id="g3468-anchorRight"
     inkscape:label="#g3468">
    <path
       id="text2597"
       d="M 76.081566,-567.89818 C 76.081497,-572.08959 75.26887,-575.8961 73.643684,-579.31774 C 72.103904,-582.82481 70.008183,-585.8187 67.356514,-588.29941 C 64.704725,-590.86554 61.625298,-592.83295 58.118224,-594.20165 C 54.696587,-595.57022 51.061153,-596.25453 47.211909,-596.2546 C 41.651793,-596.25453 36.604954,-595.48468 32.071378,-593.94503 C 27.537752,-592.40525 23.602929,-590.13845 20.266896,-587.14462 C 17.016377,-584.23622 14.492958,-580.55801 12.69663,-576.11 C 10.900293,-571.74743 10.002127,-566.74336 10.002129,-561.09778 L 10.002129,-560.84116 C 10.002127,-556.39306 10.985832,-552.20162 12.95325,-548.26682 C 14.920656,-544.33197 17.486845,-540.86762 20.651825,-537.87374 C 23.902318,-534.96538 27.623292,-532.65581 31.814759,-530.94502 C 36.006177,-529.23423 40.325928,-528.37883 44.774027,-528.37883 L 45.030646,-528.37883 C 48.879892,-528.37883 52.173168,-528.76376 54.910484,-529.53362 C 57.647705,-530.30347 59.871736,-531.24441 61.582583,-532.35643 C 63.293321,-533.46844 64.533646,-534.58046 65.30356,-535.69248 C 66.073359,-536.89003 66.458288,-537.87373 66.458347,-538.6436 C 66.458288,-540.78208 65.98782,-542.40733 65.046941,-543.51936 C 64.191487,-544.63136 62.651774,-545.18737 60.427796,-545.18739 C 59.059109,-545.18737 57.733245,-544.97352 56.450199,-544.54584 C 55.167056,-544.11813 53.883961,-543.64766 52.600912,-543.13443 C 51.403311,-542.70672 50.162987,-542.27902 48.879934,-541.85134 C 47.596798,-541.42363 46.099854,-541.20978 44.389098,-541.20979 C 42.934887,-541.20978 41.437944,-541.42363 39.898263,-541.85134 C 38.358517,-542.27902 36.904343,-542.8778 35.535737,-543.64767 C 34.167074,-544.50305 33.055059,-545.52953 32.199687,-546.7271 C 31.344266,-547.92464 30.916568,-549.29327 30.916592,-550.83301 C 30.916568,-552.28716 31.301496,-553.48472 32.071378,-554.42568 C 32.92675,-555.36659 33.953225,-556.09367 35.150808,-556.60694 C 36.433875,-557.20569 37.802509,-557.59062 39.256715,-557.76173 C 40.710857,-558.01832 42.079491,-558.14663 43.362621,-558.14666 C 46.099854,-558.14663 48.494964,-558.01832 50.547958,-557.76173 C 52.686406,-557.50508 54.568278,-557.29123 56.19358,-557.12018 C 57.305546,-556.94907 58.332022,-556.82076 59.27301,-556.73525 C 60.213894,-556.64968 61.28314,-556.60691 62.48075,-556.60694 C 66.843216,-556.60691 70.179262,-557.63339 72.488897,-559.68637 C 74.883942,-561.73929 76.081497,-564.47656 76.081566,-567.89818 M 30.659972,-575.34014 C 30.659949,-576.62319 30.959338,-577.86351 31.558139,-579.06112 C 32.242432,-580.34416 33.097829,-581.45618 34.124331,-582.39717 C 35.23632,-583.33805 36.519414,-584.06514 37.973619,-584.57843 C 39.427762,-585.17715 40.924706,-585.47654 42.464454,-585.4766 C 44.089672,-585.47654 45.714925,-585.21992 47.340219,-584.70674 C 49.050971,-584.27899 50.590685,-583.59467 51.959364,-582.65379 C 53.327953,-581.79834 54.397199,-580.72909 55.167103,-579.44605 C 56.022452,-578.1629 56.45015,-576.70873 56.450199,-575.08352 C 56.45015,-572.51728 55.209825,-570.67818 52.729221,-569.56621 C 50.334066,-568.45415 47.425718,-567.89814 44.004169,-567.89818 C 42.721038,-567.89814 41.266864,-567.98368 39.641643,-568.1548 C 38.101898,-568.41138 36.647724,-568.79631 35.279117,-569.30959 C 33.995995,-569.90833 32.88398,-570.67818 31.943068,-571.61916 C 31.087647,-572.56005 30.659949,-573.80038 30.659972,-575.34014 M 85.051211,-594.32996 C 82.998247,-594.32989 81.372994,-593.94496 80.175447,-593.17517 C 78.977884,-592.49079 78.379107,-591.03662 78.379113,-588.81265 C 78.379107,-586.84517 78.892344,-585.00607 79.918828,-583.29533 C 80.945296,-581.67003 82.100081,-579.87369 83.383187,-577.90633 C 84.837349,-575.85333 86.205984,-573.6293 87.489094,-571.23423 C 88.772173,-568.92462 89.41372,-566.48674 89.413737,-563.92059 C 89.41372,-562.89408 89.157101,-561.73929 88.64388,-560.45623 C 88.130625,-559.25864 87.446308,-557.93278 86.590926,-556.47863 C 85.821055,-555.10997 84.922889,-553.69856 83.896425,-552.24441 C 82.869938,-550.87576 81.886232,-549.50712 80.945305,-548.13851 C 79.320043,-545.91446 77.908639,-543.86151 76.711088,-541.97965 C 75.513529,-540.1833 74.914751,-538.51528 74.914754,-536.97557 C 74.914751,-534.2383 75.29968,-532.35642 76.06954,-531.32995 C 76.839393,-530.30347 78.635726,-529.79024 81.458543,-529.79024 C 83.939183,-529.79024 86.120444,-530.64563 88.002332,-532.35643 C 89.884188,-534.15276 91.72329,-536.16294 93.519644,-538.38698 C 94.973796,-540.26884 96.47074,-541.97963 98.01048,-543.51936 C 99.635707,-545.05906 101.3465,-545.82892 103.14286,-545.82894 C 104.93916,-545.82892 106.69273,-544.97352 108.40356,-543.26274 C 110.11431,-541.63748 111.73957,-539.88391 113.27932,-538.00205 L 113.27932,-538.13036 C 114.99007,-535.90632 116.74363,-533.93891 118.54001,-532.22812 C 120.3363,-530.60286 122.38925,-529.79024 124.69887,-529.79024 C 126.92285,-529.79024 128.67641,-530.13239 129.95957,-530.81671 C 131.32814,-531.50103 132.01246,-533.16905 132.01252,-535.82079 C 132.01246,-537.78819 131.32814,-539.84114 129.95957,-541.97965 C 128.67641,-544.11813 127.17947,-546.4277 125.46873,-548.90837 C 123.58681,-551.56007 121.79047,-554.2118 120.07973,-556.86356 C 118.45443,-559.51526 117.6418,-561.95314 117.64185,-564.17721 C 117.6418,-566.91444 118.24058,-569.43786 119.43818,-571.74747 C 120.72123,-574.057 122.00432,-576.19549 123.28747,-578.16295 C 124.48497,-580.04477 125.51145,-581.75557 126.3669,-583.29533 C 127.30778,-584.83499 127.77825,-586.46025 127.7783,-588.1711 C 127.77825,-592.02032 125.76807,-593.94496 121.74775,-593.94503 C 119.43813,-593.94496 117.51349,-593.26065 115.97382,-591.89208 C 114.43406,-590.60892 112.93712,-589.11197 111.48299,-587.40124 C 110.28539,-586.03255 109.04507,-584.74945 107.76201,-583.55195 C 106.56442,-582.35434 105.15301,-581.75557 103.52779,-581.75562 C 101.90251,-581.75557 100.4911,-582.35434 99.293575,-583.55195 C 98.095993,-584.74945 96.898438,-586.03255 95.700907,-587.40124 C 94.16117,-589.11197 92.578687,-590.69446 90.953452,-592.1487 C 89.41372,-593.60281 87.446308,-594.32989 85.051211,-594.32996 M 156.37129,-614.85949 C 156.37126,-620.16286 155.60141,-623.88384 154.06172,-626.02243 C 152.52198,-628.24636 150.38349,-629.35837 147.64624,-629.35848 C 146.10651,-629.35837 144.82341,-628.93068 143.79695,-628.07538 C 142.77046,-627.30542 141.91507,-626.23618 141.23076,-624.86764 C 140.63197,-623.49891 140.1615,-621.9592 139.81935,-620.24849 C 139.56273,-618.62315 139.43442,-616.9979 139.43442,-615.37273 L 139.43442,-541.72303 C 139.43442,-537.61711 140.1615,-534.36661 141.61569,-531.9715 C 143.15539,-529.66193 145.25111,-528.50714 147.90286,-528.50714 C 149.61363,-528.50714 151.02504,-528.89207 152.13707,-529.66193 C 153.24907,-530.51732 154.10446,-531.58657 154.70326,-532.86967 C 155.38756,-534.15276 155.81526,-535.60693 155.98636,-537.23219 C 156.24296,-538.94298 156.37126,-540.69654 156.37129,-542.49289 L 156.37129,-560.84116 C 156.37126,-563.06515 156.79896,-565.50303 157.65439,-568.1548 C 158.5953,-570.89203 160.04947,-573.28714 162.01691,-575.34014 L 162.53015,-575.85338 C 163.21444,-576.62319 164.15537,-577.39304 165.35296,-578.16295 C 166.55048,-578.93276 168.38958,-579.31769 170.87027,-579.31774 C 174.20628,-579.31769 176.98632,-578.76168 179.2104,-577.64971 C 181.51992,-576.62319 183.35902,-575.12624 184.72771,-573.15888 C 186.18183,-571.27696 187.2083,-569.01016 187.80714,-566.35847 C 188.4914,-563.7067 188.83356,-560.79835 188.83361,-557.63342 L 188.83361,-542.10796 C 188.83356,-537.14664 189.60341,-533.63952 191.14319,-531.58657 C 192.68284,-529.53362 194.82133,-528.50714 197.55867,-528.50714 C 200.38141,-528.50714 202.43436,-529.74747 203.71753,-532.22812 C 205.08609,-534.7943 205.77041,-538.21589 205.77048,-542.49289 L 205.77048,-565.4603 C 205.77041,-568.28307 205.47102,-571.40527 204.87231,-574.8269 C 204.27346,-578.24844 203.07591,-581.41341 201.27964,-584.32181 C 199.48324,-587.31564 196.87428,-589.79629 193.45276,-591.76377 C 190.11665,-593.81665 185.66859,-594.84313 180.10856,-594.8432 C 177.11463,-594.84313 174.76229,-594.58651 173.05154,-594.07334 C 171.3407,-593.56004 169.75822,-593.0468 168.30408,-592.53362 C 167.53419,-592.1914 166.76433,-591.89201 165.99451,-591.63546 C 165.22462,-591.46431 164.28368,-591.37878 163.1717,-591.37884 C 161.28979,-591.37878 159.66454,-592.14863 158.29593,-593.68841 C 157.01281,-595.3136 156.37126,-597.49486 156.37129,-600.2322 L 156.37129,-614.85949 M 276.5653,-567.89818 C 276.56523,-572.08959 275.7526,-575.8961 274.12742,-579.31774 C 272.58764,-582.82481 270.49192,-585.8187 267.84025,-588.29941 C 265.18846,-590.86554 262.10903,-592.83295 258.60196,-594.20165 C 255.18032,-595.57022 251.54489,-596.25453 247.69564,-596.2546 C 242.13553,-596.25453 237.08869,-595.48468 232.55511,-593.94503 C 228.02149,-592.40525 224.08666,-590.13845 220.75063,-587.14462 C 217.50011,-584.23622 214.97669,-580.55801 213.18036,-576.11 C 211.38403,-571.74743 210.48586,-566.74336 210.48586,-561.09778 L 210.48586,-560.84116 C 210.48586,-556.39306 211.46957,-552.20162 213.43698,-548.26682 C 215.40439,-544.33197 217.97058,-540.86762 221.13556,-537.87374 C 224.38605,-534.96538 228.10703,-532.65581 232.29849,-530.94502 C 236.48991,-529.23423 240.80966,-528.37883 245.25776,-528.37883 L 245.51438,-528.37883 C 249.36363,-528.37883 252.6569,-528.76376 255.39422,-529.53362 C 258.13144,-530.30347 260.35547,-531.24441 262.06632,-532.35643 C 263.77706,-533.46844 265.01738,-534.58046 265.78729,-535.69248 C 266.55709,-536.89003 266.94202,-537.87373 266.94208,-538.6436 C 266.94202,-540.78208 266.47155,-542.40733 265.53068,-543.51936 C 264.67522,-544.63136 263.13551,-545.18737 260.91153,-545.18739 C 259.54284,-545.18737 258.21698,-544.97352 256.93393,-544.54584 C 255.65079,-544.11813 254.3677,-543.64766 253.08465,-543.13443 C 251.88705,-542.70672 250.64672,-542.27902 249.36367,-541.85134 C 248.08053,-541.42363 246.58359,-541.20978 244.87283,-541.20979 C 243.41862,-541.20978 241.92168,-541.42363 240.382,-541.85134 C 238.84225,-542.27902 237.38808,-542.8778 236.01947,-543.64767 C 234.65081,-544.50305 233.53879,-545.52953 232.68342,-546.7271 C 231.828,-547.92464 231.4003,-549.29327 231.40033,-550.83301 C 231.4003,-552.28716 231.78523,-553.48472 232.55511,-554.42568 C 233.41048,-555.36659 234.43696,-556.09367 235.63454,-556.60694 C 236.91761,-557.20569 238.28624,-557.59062 239.74045,-557.76173 C 241.19459,-558.01832 242.56322,-558.14663 243.84636,-558.14666 C 246.58359,-558.14663 248.9787,-558.01832 251.03169,-557.76173 C 253.17014,-557.50508 255.05201,-557.29123 256.67731,-557.12018 C 257.78928,-556.94907 258.81576,-556.82076 259.75674,-556.73525 C 260.69763,-556.64968 261.76687,-556.60691 262.96448,-556.60694 C 267.32695,-556.60691 270.663,-557.63339 272.97263,-559.68637 C 275.36768,-561.73929 276.56523,-564.47656 276.5653,-567.89818 M 231.14371,-575.34014 C 231.14368,-576.62319 231.44307,-577.86351 232.04187,-579.06112 C 232.72617,-580.34416 233.58156,-581.45618 234.60807,-582.39717 C 235.72005,-583.33805 237.00315,-584.06514 238.45735,-584.57843 C 239.9115,-585.17715 241.40844,-585.47654 242.94819,-585.4766 C 244.57341,-585.47654 246.19866,-585.21992 247.82395,-584.70674 C 249.53471,-584.27899 251.07442,-583.59467 252.4431,-582.65379 C 253.81169,-581.79834 254.88093,-580.72909 255.65084,-579.44605 C 256.50619,-578.1629 256.93388,-576.70873 256.93393,-575.08352 C 256.93388,-572.51728 255.69356,-570.67818 253.21296,-569.56621 C 250.8178,-568.45415 247.90945,-567.89814 244.4879,-567.89818 C 243.20477,-567.89814 241.7506,-567.98368 240.12538,-568.1548 C 238.58563,-568.41138 237.13146,-568.79631 235.76285,-569.30959 C 234.47973,-569.90833 233.36771,-570.67818 232.4268,-571.61916 C 231.57138,-572.56005 231.14368,-573.80038 231.14371,-575.34014 M 315.15039,-595.61305 C 313.5251,-595.61299 312.15647,-595.44191 311.04449,-595.09982 C 309.93243,-594.75759 308.90596,-594.37266 307.96506,-593.94503 C 307.10963,-593.51727 306.21146,-593.13234 305.27056,-592.79024 C 304.41513,-592.53356 303.26034,-592.40525 301.8062,-592.40531 C 300.86523,-592.40525 300.09538,-592.44802 299.49662,-592.53362 C 298.89782,-592.70464 298.25627,-592.87572 297.57198,-593.04686 C 296.63102,-593.21788 295.69008,-593.38896 294.74917,-593.5601 C 293.89375,-593.81665 292.91005,-593.94496 291.79805,-593.94503 C 289.31738,-593.94496 287.34997,-593.4745 285.89581,-592.53362 C 284.52716,-591.59262 283.45792,-590.39507 282.68807,-588.94096 C 282.00374,-587.57226 281.57604,-586.03255 281.40497,-584.32181 C 281.23389,-582.6965 281.14835,-581.19956 281.14835,-579.83098 L 281.14835,-541.46641 C 281.14835,-540.01222 281.31943,-538.55805 281.66159,-537.10388 C 282.00374,-535.6497 282.51698,-534.28107 283.20131,-532.99798 C 283.97115,-531.80042 284.86932,-530.81671 285.89581,-530.04686 C 287.00781,-529.277 288.33368,-528.89207 289.87341,-528.89207 C 291.32756,-528.89207 292.56789,-529.277 293.59438,-530.04686 C 294.70638,-530.81671 295.60455,-531.84319 296.28888,-533.12629 C 296.97318,-534.40938 297.48642,-535.86355 297.8286,-537.48881 C 298.17073,-539.1996 298.34181,-540.95316 298.34184,-542.74951 L 298.34184,-558.53158 C 298.34181,-561.0122 298.47012,-563.15069 298.72677,-564.94706 C 299.0689,-566.8289 299.45383,-568.41138 299.88155,-569.69452 C 300.39476,-570.97757 300.95077,-572.04682 301.54958,-572.90226 C 302.14833,-573.75761 302.7471,-574.4847 303.34591,-575.08352 C 304.8856,-576.62319 306.33977,-577.7352 307.70844,-578.41957 C 309.16258,-579.18938 311.12999,-579.83092 313.61068,-580.34421 C 314.97927,-580.60078 316.26237,-580.90017 317.45997,-581.24238 C 318.74302,-581.58449 319.85503,-582.01218 320.79602,-582.52548 C 321.7369,-583.1242 322.46399,-583.89406 322.97728,-584.83505 C 323.57601,-585.86147 323.8754,-587.2301 323.87545,-588.94096 C 323.8754,-590.82277 323.14831,-592.40525 321.69418,-593.68841 C 320.23996,-594.97144 318.0587,-595.61299 315.15039,-595.61305 M 350.96682,-591.63546 C 348.22952,-591.63539 346.39042,-592.91849 345.44951,-595.48474 C 344.50855,-598.05087 344.03808,-601.38691 344.0381,-605.49289 L 344.0381,-618.06723 C 344.03808,-620.12009 343.73869,-621.91643 343.13993,-623.45623 C 342.62667,-624.99585 341.94236,-626.23618 341.08698,-627.17721 C 340.3171,-628.11805 339.41894,-628.80237 338.39248,-629.23017 C 337.36599,-629.7433 336.38228,-629.99992 335.44136,-630.00002 C 333.21731,-629.99992 331.33544,-628.84514 329.79574,-626.53566 C 328.25602,-624.31154 327.48616,-621.27488 327.48617,-617.42568 L 327.48617,-540.82486 C 327.48616,-539.88391 327.5717,-538.68636 327.74278,-537.23219 C 327.91386,-535.86355 328.34156,-534.53769 329.02588,-533.2546 C 329.71019,-531.9715 330.65113,-530.85948 331.84869,-529.91855 C 333.13178,-529.06315 334.88534,-528.63545 337.10938,-528.63545 C 339.07678,-528.63545 340.40264,-528.72099 341.08698,-528.89207 C 341.85682,-529.14869 342.58391,-529.40531 343.26824,-529.66193 C 343.52484,-529.83301 343.90977,-529.96131 344.42303,-530.04686 C 344.93625,-530.13239 345.96272,-530.17516 347.50246,-530.17517 C 349.21323,-530.17516 350.58186,-530.00408 351.60837,-529.66193 C 352.63481,-529.31977 353.61852,-528.93484 354.55949,-528.50714 C 356.01363,-527.82282 357.76719,-527.18128 359.82018,-526.5825 C 361.87309,-525.89818 365.08083,-525.55602 369.4434,-525.55602 C 371.75292,-525.55602 374.57573,-526.19757 377.91183,-527.48066 C 381.24782,-528.76376 384.45556,-530.77394 387.53505,-533.51121 C 390.61441,-536.24848 393.22337,-539.7556 395.36194,-544.0326 C 397.58589,-548.30957 398.69791,-553.39918 398.69799,-559.30144 C 398.69791,-565.03257 397.84251,-570.12218 396.13179,-574.57028 C 394.50647,-579.0183 392.23967,-582.73927 389.33139,-585.73322 C 386.50851,-588.81259 383.17246,-591.12216 379.32324,-592.66193 C 375.55944,-594.28712 371.58184,-595.09975 367.39045,-595.09982 C 364.90975,-595.09975 362.72849,-594.84313 360.84666,-594.32996 C 358.96475,-593.90219 357.29672,-593.43173 355.84258,-592.91855 C 354.90161,-592.57633 354.00345,-592.27694 353.14808,-592.02039 C 352.37819,-591.7637 351.65111,-591.63539 350.96682,-591.63546 M 361.74482,-541.08148 C 359.26413,-541.08147 356.95456,-541.59471 354.81611,-542.6212 C 352.76312,-543.7332 350.96679,-545.18737 349.4271,-546.98372 C 347.88736,-548.78004 346.68981,-550.79022 345.83444,-553.01427 C 344.97901,-555.23828 344.55132,-557.50508 344.55134,-559.81468 C 344.55132,-562.723 345.02178,-565.41749 345.96275,-567.89818 C 346.9892,-570.37879 348.31506,-572.51728 349.94034,-574.31366 C 351.56557,-576.10995 353.40467,-577.47858 355.45766,-578.41957 C 357.51057,-579.446 359.64906,-579.95923 361.87313,-579.95928 C 364.43928,-579.95923 366.87716,-579.48877 369.18678,-578.54788 C 371.58184,-577.60689 373.63479,-576.28103 375.34564,-574.57028 C 377.14192,-572.85944 378.55332,-570.80649 379.57986,-568.41142 C 380.60627,-566.10181 381.11951,-563.53562 381.11957,-560.71285 L 381.11957,-560.45623 C 381.11951,-557.89001 380.64904,-555.40936 379.70817,-553.01427 C 378.76717,-550.70468 377.44131,-548.65173 375.73057,-546.85541 C 374.01972,-545.05906 371.96677,-543.64766 369.57171,-542.6212 C 367.17655,-541.59471 364.56759,-541.08147 361.74482,-541.08148 M 470.00002,-561.99594 C 469.99995,-567.64153 468.97347,-572.60282 466.92059,-576.87985 C 464.95311,-581.24233 462.30138,-584.92053 458.9654,-587.91448 C 455.62929,-590.90831 451.78,-593.17511 447.41753,-594.71489 C 443.1405,-596.25453 438.69244,-597.02439 434.07334,-597.02446 C 429.5397,-597.02439 425.13441,-596.21176 420.85745,-594.58658 C 416.58044,-593.0468 412.77393,-590.73723 409.4379,-587.65786 C 406.10184,-584.66391 403.40734,-580.98571 401.35439,-576.62324 C 399.38698,-572.34621 398.40327,-567.47045 398.40327,-561.99594 C 398.40327,-556.60691 399.34421,-551.77392 401.22608,-547.49696 C 403.19349,-543.21996 405.80245,-539.58452 409.05297,-536.59065 C 412.30346,-533.59675 416.06721,-531.28718 420.34421,-529.66193 C 424.70671,-528.12221 429.28308,-527.35236 434.07334,-527.35235 C 439.54784,-527.35236 444.50913,-528.29329 448.95725,-530.17517 C 453.40526,-532.14258 457.169,-534.70876 460.24849,-537.87374 C 463.4134,-541.12424 465.8085,-544.80244 467.43383,-548.90837 C 469.14455,-553.09979 469.99995,-557.46231 470.00002,-561.99594 M 415.85337,-561.99594 C 415.85336,-564.64764 416.32382,-567.12829 417.26478,-569.4379 C 418.2057,-571.83297 419.48879,-573.92869 421.11407,-575.72507 C 422.7393,-577.52135 424.66394,-578.93276 426.888,-579.95928 C 429.112,-580.98571 431.50711,-581.49895 434.07334,-581.499 C 436.55395,-581.49895 438.90629,-581.02848 441.13036,-580.08759 C 443.35435,-579.14661 445.27899,-577.82074 446.90429,-576.11 C 448.61504,-574.39916 449.9409,-572.34621 450.88189,-569.95114 C 451.90831,-567.55599 452.42155,-564.90426 452.42161,-561.99594 C 452.42155,-559.25864 451.90831,-556.73522 450.88189,-554.42568 C 449.85536,-552.11608 448.48673,-550.1059 446.77598,-548.39513 C 445.06514,-546.76985 443.09773,-545.48676 440.87374,-544.54584 C 438.64967,-543.60489 436.38287,-543.13442 434.07334,-543.13443 C 431.25049,-543.13442 428.72707,-543.69043 426.50307,-544.80246 C 424.27901,-545.91446 422.35437,-547.32586 420.72914,-549.03667 C 419.1894,-550.83299 417.99185,-552.84317 417.13647,-555.06723 C 416.28105,-557.37677 415.85336,-559.68634 415.85337,-561.99594"
       style="font-size:128.30958557px;font-style:normal;font-variant:normal;font-weight:bold;font-stretch:normal;text-align:start;line-height:125%;writing-mode:lr-tb;text-anchor:start;fill:#ffffff;fill-opacity:1;stroke:none;stroke-width:1px;stroke-linecap:butt;stroke-linejoin:miter;stroke-opacity:1;font-family:Distro;-inkscape-font-specification:Distro Bold"
       transform="matrix(0,1,-1,0,0,0)" />
  </g>
  <g
     id="g3435-anchorLeft"
     inkscape:label="#g3435">
    <g
       inkscape:label="Layer 1"
       id="layer1"
       transform="matrix(1.3480542,0,0,1.3480542,9.7089476,156.17101)">
      <g
         id="g3925"
         transform="translate(-253.56433,-181.36893)">
        <path
           style="fill:#ffffff;fill-opacity:1;fill-rule:evenodd;stroke:#000000;stroke-width:5;stroke-linecap:butt;stroke-linejoin:miter;stroke-miterlimit:4;stroke-dasharray:none;stroke-opacity:1"
           d="M 292.34172,208.19065 C 291.56926,207.73146 282.75492,202.35603 281.78914,195.59556 C 280.77899,188.52449 281.78914,184.48388 281.78914,184.48388 C 281.78915,184.48388 289.55296,186.92676 294.41604,192.06002 C 296.88969,194.6711 298.65291,196.79609 299.90915,198.50621"
           id="path6457" />
        <path
           style="fill:#fff6f6;fill-opacity:1;fill-rule:evenodd;stroke:#000000;stroke-width:8;stroke-linecap:butt;stroke-linejoin:miter;stroke-miterlimit:4;stroke-dasharray:none;stroke-opacity:1"
           d="M 378.36021,299.15409 C 378.36021,299.15409 403.36684,292.90243 409.09752,301.23797 C 414.82821,309.57351 416.91209,310.61546 409.61849,312.17837 C 402.32489,313.74129 390.34255,314.26226 390.34255,314.26226 L 378.36021,299.15409 z"
           id="path6459" />
        <path
           style="fill:#fff6f6;fill-opacity:1;fill-rule:evenodd;stroke:#000000;stroke-width:8;stroke-linecap:butt;stroke-linejoin:miter;stroke-miterlimit:4;stroke-dasharray:none;stroke-opacity:1"
           d="M 310.63393,303.84283 C 310.63393,303.84283 289.2741,293.4234 276.24982,305.40574 C 263.22554,317.38809 305.42422,320.51391 305.42422,320.51391 L 310.63393,303.84283 z"
           id="path6461" />
        <path
           style="fill:#ffffff;fill-opacity:1;fill-rule:evenodd;stroke:#000000;stroke-width:5;stroke-linecap:butt;stroke-linejoin:miter;stroke-miterlimit:4;stroke-dasharray:none;stroke-opacity:1"
           d="M 308.54061,287.23926 C 308.54061,287.23926 315.90826,293.87014 295.27884,318.92014 C 274.64943,343.97014 306.33032,369.75691 306.33032,369.75691 C 306.33032,369.75691 334.32738,401.4378 366.74503,393.33338 C 399.16268,385.22897 395.47885,385.96574 408.74062,372.70397 C 422.00239,359.4422 412.42445,335.86573 408.74062,323.34073 C 405.0568,310.81573 368.95532,280.60837 368.95532,280.60837 L 308.54061,287.23926 z"
           id="path6463" />
        <path
           style="fill:#ffffff;fill-opacity:1;fill-rule:evenodd;stroke:#000000;stroke-width:5;stroke-linecap:butt;stroke-linejoin:miter;stroke-miterlimit:4;stroke-dasharray:none;stroke-opacity:1"
           d="M 306.53788,286.5093 C 296.65945,275.08798 286.65656,262.54849 283.68833,247.37375 C 282.60933,234.93998 283.4325,221.62901 290.11327,210.72527 C 294.69131,203.03537 300.61465,195.50849 309.37172,192.44709 C 320.89222,188.00099 333.76323,187.4708 345.83911,189.58767 C 365.29381,193.53459 385.04376,207.99602 392.01014,226.55575 C 397.66804,241.78734 403.77753,254.89513 390.96192,282.97375 C 383.8605,296.32533 366.26997,302.68427 356.78335,303.44234 C 349.56076,304.05505 337.77735,301.58008 330.58673,300.00581 C 323.90477,299.18734 311.6904,291.94989 306.53788,286.5093 z"
           id="path6465"
           sodipodi:nodetypes="cccccccccc" />
        <path
           style="fill:#ffffff;fill-opacity:1;fill-rule:evenodd;stroke:#000000;stroke-width:5;stroke-linecap:butt;stroke-linejoin:miter;stroke-miterlimit:4;stroke-dasharray:none;stroke-opacity:1"
           d="M 371.39746,201.29314 C 374.33776,199.43107 382.07531,195.89988 388.86531,204.68693 C 393.45993,210.63291 390.53404,214.55413 386.82061,216.91494"
           id="path6467" />
        <path
           sodipodi:nodetypes="ccccsscscsscscccccscsscsccsccccccc"
           style="fill:#000000;fill-opacity:1;fill-rule:evenodd;stroke:#000000;stroke-width:1px;stroke-linecap:butt;stroke-linejoin:miter;stroke-opacity:1"
           d="M 332.04572,188.40142 C 324.31416,188.43071 316.55854,189.65386 309.35822,192.43267 C 306.27525,193.51045 303.55369,195.15445 301.10822,197.15142 L 300.98322,197.62017 C 304.51876,218.32829 303.50432,209.75262 304.51447,218.33892 C 305.52461,226.92521 302.99654,204.19044 314.10822,194.08892 C 325.2199,183.98739 320.27786,204.0041 320.27786,204.0041 C 320.27786,204.0041 322.6934,205.6944 329.76447,210.74517 C 336.83555,215.79592 331.79572,211.24517 331.79572,211.24517 C 331.79572,211.24517 329.27034,197.60922 331.79572,195.58892 C 334.3211,193.56861 340.89026,187.01278 343.92072,194.58892 C 346.95118,202.16507 342.88947,210.24517 342.88947,210.24517 C 342.88948,210.24517 356.55238,217.30879 362.10822,201.65142 C 363.0875,198.89162 363.87583,197.32408 364.51447,196.58892 C 358.56081,193.28785 352.17143,190.87607 345.82697,189.58892 C 341.29851,188.79509 336.68465,188.38385 332.04572,188.40142 z M 366.38947,197.65142 C 367.29994,200.92629 367.13947,208.21392 367.13947,208.21392 C 367.13946,208.21392 367.15121,211.24009 372.20197,211.74517 C 377.25273,212.25024 366.56804,220.01749 366.56804,220.01749 C 366.56805,220.01748 364.11488,225.40142 369.67072,225.40142 C 375.22657,225.40142 367.13757,221.87017 379.76447,221.87017 C 392.39138,221.87017 393.50227,241.55767 393.50227,241.55767 C 395.05866,248.09455 398.08753,260.75421 388.99616,275.40142 C 379.90479,290.04863 370.20742,296.06218 358.357,297.70172 C 333.23199,298.81652 318.67072,289.02642 318.67072,289.02642 C 318.67072,289.02643 308.5535,284.49787 298.45197,274.90142 C 297.77436,274.25769 297.06513,273.94859 296.32697,273.90142 C 299.53741,278.29189 303.04893,282.45222 306.54572,286.49517 C 311.69824,291.93576 323.895,299.17669 330.57697,299.99517 C 337.76759,301.56944 349.57312,304.04538 356.79572,303.43267 C 366.28234,302.6746 384.78805,296.3155 391.88947,282.96392 C 404.70508,254.8853 397.67237,241.78926 392.01447,226.55767 C 387.55937,214.68845 377.88025,204.49025 366.38947,197.65142 z"
           id="path6469" />
        <path
           style="fill:#ba7e8d;fill-opacity:1;fill-rule:evenodd;stroke:#000000;stroke-width:5;stroke-linecap:butt;stroke-linejoin:miter;stroke-miterlimit:4;stroke-dasharray:none;stroke-opacity:1"
           d="M 299.97188,262.26563 C 299.97188,262.26563 303.00234,240.04227 326.74092,240.54735 C 350.47951,241.05242 367.14703,249.63872 367.14703,249.63872 C 367.14703,249.63872 380.78409,259.23517 380.27901,268.32654 C 379.77393,277.41791 371.18764,284.99406 360.07596,286.50929 C 353.10557,287.4598 319.16478,283.98391 311.08356,280.44837 C 303.00234,276.91284 299.4668,266.30624 299.97188,262.26563 z"
           id="path6471"
           sodipodi:nodetypes="cscsssc" />
        <path
           style="fill:#758fff;fill-opacity:1;fill-rule:evenodd;stroke:#000000;stroke-width:8;stroke-linecap:butt;stroke-linejoin:miter;stroke-miterlimit:4;stroke-dasharray:none;stroke-opacity:1"
           d="M 323.24709,224.4683 C 323.24709,224.4683 313.78154,223.61459 316.6811,230.02414 C 319.08021,235.32744 321.73186,235.20117 321.73186,235.20117 C 321.73186,235.20117 326.02501,236.59014 327.79278,230.52922 C 329.77773,223.7237 324.88859,224.34203 323.24709,224.4683 z"
           id="path6473"
           sodipodi:nodetypes="cscsc" />
        <path
           style="fill:#758fff;fill-opacity:1;fill-rule:evenodd;stroke:#000000;stroke-width:8;stroke-linecap:butt;stroke-linejoin:miter;stroke-miterlimit:4;stroke-dasharray:none;stroke-opacity:1"
           d="M 353.10914,216.42996 C 353.10914,216.42996 344.77538,218.82907 345.40673,225.77386 C 346.03808,232.71866 350.58376,236.38047 353.74049,235.87539 C 356.89722,235.37031 362.57932,234.36016 361.56917,226.78402 C 360.55902,219.20787 356.51841,215.92488 353.10914,216.42996 z"
           id="path6475"
           sodipodi:nodetypes="csssc" />
        <path
           style="fill:#000000;fill-opacity:1;fill-rule:evenodd;stroke:none;stroke-width:1px;stroke-linecap:butt;stroke-linejoin:miter;stroke-opacity:1"
           d="M 361.59119,258.09875 C 361.59119,258.09875 354.26758,257.4674 353.25743,265.04354 C 352.24728,272.61969 357.92938,275.27134 359.69715,275.14507 C 361.46492,275.0188 367.02076,276.40776 367.77837,267.69519 C 368.53599,258.98263 361.46492,257.71994 361.59119,258.09875 z"
           id="path6477" />
        <path
           style="fill:#000000;fill-opacity:1;fill-rule:evenodd;stroke:none;stroke-width:1px;stroke-linecap:butt;stroke-linejoin:miter;stroke-opacity:1"
           d="M 321.05882,253.80559 C 321.05882,253.80559 314.36656,254.94202 315.12417,259.86651 C 315.88179,264.79101 318.40717,265.92743 322.19524,265.67489 C 325.98331,265.42235 328.12988,259.99278 326.74092,257.21486 C 325.35197,254.43694 321.18509,253.67932 321.05882,253.80559 z"
           id="path6479"
           sodipodi:nodetypes="csssc" />
        <path
           sodipodi:nodetypes="ccccccccccc"
           id="path6481"
           d="M 295.26529,324.16071 C 300.14751,320.4518 303.57999,315.61565 309.26031,311.75825 C 315.41227,308.75453 321.25072,306.62393 327.35195,308.14947 C 336.02462,308.40573 344.60447,309.90034 353.23991,310.52529 C 360.03395,310.30536 366.64869,308.37541 372.91367,305.83987 C 376.24429,304.78106 380.27737,302.83457 380.20195,306.55585 C 379.1574,309.42383 376.55008,311.38183 374.71306,313.75276 C 372.87747,315.80598 371.75462,318.56166 369.04445,319.68148 C 362.81561,322.79577 355.67922,321.13027 349.04953,320.83231 C 339.02637,320.03329 329.01435,318.50409 318.94227,318.71725 C 311.85549,319.27268 305.01151,321.58671 298.65158,324.6817"
           style="fill:#000000;fill-opacity:1;fill-rule:evenodd;stroke:none;stroke-width:1px;stroke-linecap:butt;stroke-linejoin:miter;stroke-opacity:1" />
        <path
           sodipodi:nodetypes="cccccccccccc"
           id="path6483"
           d="M 305.16373,339.52939 C 300.51268,340.3682 298.39745,332.3191 302.95862,330.8816 C 308.93648,327.10654 316.73242,324.23373 323.56071,327.52411 C 336.17323,332.53278 349.95367,331.96997 363.26598,332.40947 C 370.09484,332.67038 376.20036,328.65191 381.48905,324.75233 C 385.65299,322.62308 387.45472,317.69877 391.74727,315.95812 C 395.22978,316.09292 395.0313,320.80343 394.43299,323.30271 C 392.13593,331.73149 384.11463,336.8265 376.63211,340.26672 C 372.2995,342.45735 367.64083,344.02218 362.76028,344.23956 C 356.42175,344.6352 350.04801,344.17323 343.74198,343.57579 C 335.87652,342.24156 328.33932,337.34659 320.15022,339.09186 C 315.81708,340.23881 305.68385,339.5298 305.16373,339.52939 z"
           style="fill:#000000;fill-opacity:1;fill-rule:evenodd;stroke:none;stroke-width:1px;stroke-linecap:butt;stroke-linejoin:miter;stroke-opacity:1" />
        <path
           style="fill:none;fill-opacity:1;fill-rule:evenodd;stroke:none;stroke-width:1px;stroke-linecap:butt;stroke-linejoin:miter;stroke-opacity:1"
           d="M 314.54123,361.41018 C 318.20352,361.54674 322.30216,360.67501 325.49412,362.98622 C 335.85429,365.44821 346.55329,363.87471 357.05717,363.76058 C 365.08025,362.81411 372.68448,359.87509 380.27528,357.28274 C 383.71051,355.11747 386.762,352.39095 390.18353,350.23165 C 392.15569,347.70142 399.53504,343.79643 396.82574,347.0548 C 394.15972,353.8549 390.88443,357.89945 388.09195,359.7389 C 384.65214,365.14973 382.24086,372.13716 375.85584,374.77343 C 367.73205,377.93141 359.30862,378.44176 350.54093,377.87848 C 343.48331,377.62072 336.12712,379.25936 329.10484,378.46809 C 325.35195,378.04972 321.20184,376.40974 319.81742,372.57972 C 317.7722,369.07056 313.75163,365.92113 314.54123,361.41018 z"
           id="path6485"
           sodipodi:nodetypes="cccccccccccc" />
        <path
           style="fill:#000000;fill-opacity:1;fill-rule:evenodd;stroke:none;stroke-width:1px;stroke-linecap:butt;stroke-linejoin:miter;stroke-opacity:1"
           d="M 320.53238,364.2755 C 338.95776,364.37867 357.99411,365.05991 375.56091,358.56305 C 379.6294,356.9299 383.98832,355.45262 386.98602,352.07608 C 388.87802,350.37979 391.12523,348.05276 393.90705,348.62408 C 396.20111,350.82286 392.93135,354.16298 391.35898,356.01313 C 388.1156,358.9291 386.09125,362.94366 383.46286,366.39525 C 380.8874,369.9992 377.92286,373.47892 374.03123,375.7068 C 359.37416,378.64774 344.37434,378.97062 329.53241,380.33997 C 324.10888,380.25183 317.94495,379.28493 314.23191,374.94733 C 311.97241,371.42083 313.76587,366.10854 317.39872,364.31218 C 317.75596,364.2384 318.10247,364.12917 318.44849,364.01501"
           id="path6487" />
        <path
           id="path7505"
           d="M 395.30844,305.13847 C 384.63584,342.79527 342.38413,363.2609 310.18344,373.63847 C 318.88893,381.80564 341.44287,399.65174 366.74594,393.32597 C 399.1636,385.22158 395.48417,385.96274 408.74594,372.70097 C 422.00772,359.43921 412.42977,335.85097 408.74594,323.32597 C 407.41762,318.80967 401.85426,312.00767 395.30844,305.13847 z"
           style="opacity:0.22105264;fill:#000000;fill-opacity:1;fill-rule:evenodd;stroke:none;stroke-width:1px;stroke-linecap:butt;stroke-linejoin:miter;stroke-opacity:1" />
        <path
           style="fill:#ffffff;fill-opacity:1;fill-rule:evenodd;stroke:#000000;stroke-width:8;stroke-linecap:butt;stroke-linejoin:miter;stroke-miterlimit:4;stroke-dasharray:none;stroke-opacity:1"
           d="M 261.75605,349.1275 C 261.75605,349.1275 281.30305,334.28209 300.4362,346.9172 C 319.96047,359.81059 324.74944,363.49441 331.01194,378.22971 C 337.27444,392.965 329.90679,400.33265 327.32811,402.91133 C 324.46277,405.77667 320.69723,413.59442 284.22737,394.07015 C 247.75752,374.54588 258.58614,350.37262 261.75605,349.1275 z"
           id="path6489"
           sodipodi:nodetypes="cssssc" />
        <path
           sodipodi:nodetypes="cccccccccccccc"
           id="path6491"
           d="M 263.59796,374.91428 C 265.47473,373.18277 268.41311,372.63382 269.60585,370.18829 C 271.97395,366.74812 273.64378,364.53939 274.89127,361.29609 C 276.92935,357.5894 279.00398,352.46901 279.24591,351.19988 C 279.10012,349.41473 281.13198,347.29076 282.60726,348.75878 C 284.3354,350.96667 283.89766,353.98068 284.99689,356.45393 C 286.45086,361.38572 287.38121,366.73677 285.87714,371.77238 C 285.10184,374.27675 283.3141,376.47554 280.88239,377.52077 C 278.96244,378.60115 276.87532,379.60114 275.52773,381.41474 C 274.95702,383.09055 273.60189,385.04952 271.58704,384.76363 C 269.23637,384.18624 268.41202,381.66183 267.07996,379.93792 C 265.67081,378.5021 265.63668,375.93794 263.92765,374.93368 L 263.59796,374.91428 L 263.59796,374.91428 z"
           style="fill:#000000;fill-opacity:1;fill-rule:evenodd;stroke:none;stroke-width:1px;stroke-linecap:butt;stroke-linejoin:miter;stroke-opacity:1" />
        <path
           sodipodi:nodetypes="ccccccccccc"
           id="path6493"
           d="M 276.49133,390.01794 C 281.08485,390.56634 286.04969,389.63092 289.67486,386.62152 C 293.72066,383.62701 294.44231,382.37393 297.17554,378.73594 C 299.50743,375.50949 300.26408,371.44955 302.54711,368.19486 C 305.10883,365.61691 305.91158,364.60925 306.94213,366.725 C 308.48314,370.615 306.54105,374.71718 306.98445,378.71242 C 306.8976,385.02371 304.6822,391.73258 299.48741,395.65707 C 298.16586,396.62127 296.58447,397.27531 295.62814,398.66567 C 294.51341,400.03173 292.71987,401.52648 290.87214,400.66172 C 288.59009,399.67373 287.36534,397.09209 284.8634,396.47853 C 281.62055,394.9107 280.30309,390.60979 276.49133,390.01794 z"
           style="fill:#000000;fill-opacity:1;fill-rule:evenodd;stroke:none;stroke-width:1px;stroke-linecap:butt;stroke-linejoin:miter;stroke-opacity:1" />
        <path
           style="fill:#ffffff;fill-opacity:1;fill-rule:evenodd;stroke:#000000;stroke-width:8;stroke-linecap:butt;stroke-linejoin:miter;stroke-miterlimit:4;stroke-dasharray:none;stroke-opacity:1"
           d="M 388.77964,393.44991 C 388.77964,393.44991 384.09089,370.52717 398.15712,356.46094 C 412.22335,342.39471 429.4154,339.26888 446.60746,350.20928 C 463.79952,361.14968 448.0753,389.9047 448.0753,389.9047 C 448.0753,389.9047 434.36036,411.33123 413.78626,410.12099 C 404.92975,409.60002 389.42176,399.3968 388.77964,393.44991 z"
           id="path6495"
           sodipodi:nodetypes="csscsc" />
        <path
           sodipodi:nodetypes="cccccccccccc"
           id="path6497"
           d="M 390.86353,371.56912 C 393.03946,370.99621 391.88757,372.64714 394.63232,375.24786 C 396.08373,378.32522 400.58927,378.11476 403.77471,379.47689 C 407.6971,380.49868 411.42704,382.10895 415.19021,383.58862 C 418.3442,385.6537 419.33638,388.05858 424.69026,389.7941 C 426.54409,390.21073 429.55658,390.00189 429.48784,392.36027 C 429.11297,394.39363 426.60847,394.97139 424.86416,394.54858 C 419.65609,394.20061 414.09268,395.16807 409.25812,392.69091 C 404.47435,390.36402 399.31841,388.95929 394.28537,387.31677 C 392.31313,386.28407 389.67471,385.62676 388.86497,383.28589 C 387.92871,380.41686 388.454,377.34513 388.0953,374.40096 C 388.25138,373.01488 389.26576,371.36317 390.86353,371.56912 z"
           style="fill:#000000;fill-opacity:1;fill-rule:evenodd;stroke:none;stroke-width:1px;stroke-linecap:butt;stroke-linejoin:miter;stroke-opacity:1" />
        <path
           style="fill:#000000;fill-opacity:1;fill-rule:evenodd;stroke:none;stroke-width:1px;stroke-linecap:butt;stroke-linejoin:miter;stroke-opacity:1"
           d="M 398.93857,355.80971 C 404.82002,363.89572 415.15757,366.50781 423.31648,371.61084 C 431.0509,375.42883 439.17931,381.8099 448.92361,374.35078 C 445.27856,367.37605 438.81348,368.39795 434.17035,365.34199 C 426.59271,360.40105 417.09012,357.32612 412.41393,348.99087 C 407.25106,344.80981 402.99967,352.85531 399.58979,355.54924"
           id="path6499"
           sodipodi:nodetypes="cccccc" />
        <path
           sodipodi:nodetypes="cccscc"
           id="path6503"
           d="M 454.93344,363.20097 C 424.40896,390.62562 401.19879,393.54414 388.55844,392.13847 C 388.67933,392.96235 388.77719,393.45097 388.77719,393.45097 C 393.46594,401.26554 404.92069,409.58623 413.77719,410.10722 C 434.35129,411.31746 447.75569,388.67215 447.7557,388.67216 C 447.7557,388.67216 456.99158,375.28677 454.93344,363.20097 z"
           style="opacity:0.22631579;fill:#000000;fill-opacity:1;fill-rule:evenodd;stroke:#000000;stroke-width:1px;stroke-linecap:butt;stroke-linejoin:miter;stroke-opacity:1" />
        <path
           id="path7477"
           d="M 262.52719,348.57597 C 262.06557,348.88848 261.74594,349.13847 261.74594,349.13847 C 261.37755,349.13847 247.74484,374.55168 284.21469,394.07597 C 310.55631,408.17805 319.856,408.02084 324.05844,405.76347 C 297.23708,397.64828 276.09558,370.89679 262.52719,348.57597 z"
           style="opacity:0.2157895;fill:#000000;fill-opacity:1;fill-rule:evenodd;stroke:none;stroke-width:1px;stroke-linecap:butt;stroke-linejoin:miter;stroke-opacity:1" />
      </g>
    </g>
    <g
       id="g3430">
      <path
         id="path3394"
         style="fill:#ffffff;fill-opacity:1;fill-rule:nonzero;stroke:none;stroke-width:7;stroke-linecap:butt;stroke-linejoin:miter;marker:none;marker-start:none;marker-mid:none;marker-end:none;stroke-miterlimit:4;stroke-dasharray:none;stroke-dashoffset:0;stroke-opacity:1;visibility:visible;display:inline;overflow:visible;enable-background:accumulate"
         d="M 324.00014,65.166164 C 320.49086,94.840624 301.52014,100.88216 288.96764,107.82816 C 279.31412,113.16999 251.89701,121.13566 238.88545,122.97691 C 225.87389,124.81816 172.22773,167.3857 169.50014,157.16616 C 186.2249,136.26604 204.87639,128.06816 193.61483,118.47691 C 185.5574,111.61455 146.70861,109.17227 136.03264,102.82816 C 121.56762,94.232444 111.15222,76.870694 120.00014,58.166164 C 134.97395,26.511477 163.86041,17.001629 210.50014,14.166164 C 282.84214,9.7681284 328.49086,27.192619 324.00014,65.166164 z"
         sodipodi:nodetypes="csscsssss" />
      <path
         style="font-size:79.0297699px;font-style:normal;font-variant:normal;font-weight:normal;font-stretch:normal;text-align:start;line-height:100%;writing-mode:lr-tb;text-anchor:start;fill:#000000;fill-opacity:1;stroke:none;stroke-width:1px;stroke-linecap:butt;stroke-linejoin:miter;stroke-opacity:1;font-family:Complete in Him;-inkscape-font-specification:Complete in Him"
         d="M 172.83806,46.064449 C 174.5874,46.06449 176.13095,47.415095 177.46872,50.116268 C 177.46869,52.457354 172.45216,61.718645 162.4191,77.900172 L 162.99793,77.900172 L 184.41469,75.006015 C 185.95821,75.520543 186.72998,77.257035 186.73002,80.215497 L 184.99352,81.951991 L 182.09937,81.951991 C 178.06038,81.951996 169.18498,83.495544 155.47313,86.582642 C 153.72377,85.836593 152.75905,85.064819 152.57897,84.267316 L 152.57897,81.951991 C 164.15558,64.870057 169.94389,55.029935 169.94391,52.431594 L 169.94391,51.852762 L 169.36508,51.852762 L 155.47313,53.589256 C 153.87812,53.049047 152.72046,52.084329 152.00014,50.6951 L 152.00014,49.537437 C 152.54038,47.993925 154.08393,47.222151 156.63079,47.222112 L 172.83806,46.064449 M 196.49297,59.261803 C 202.22982,59.261831 205.89574,64.471307 207.49077,74.890249 L 207.49077,75.46908 C 207.49074,80.974415 204.40365,84.833286 198.22946,87.045707 L 197.0718,87.045707 C 190.8976,87.045706 187.8105,83.379778 187.8105,76.047912 C 189.09679,65.628969 191.798,60.033605 195.91414,59.261803 L 196.49297,59.261803 M 197.0718,63.892454 C 194.37058,67.236832 193.01998,71.481591 193.01998,76.626743 C 193.48304,80.099737 194.25482,81.83623 195.33531,81.836225 L 197.65063,81.836225 C 200.73772,79.881068 202.28127,77.758688 202.28128,75.46908 L 202.28128,73.153755 C 200.73772,66.979574 199.00123,63.892476 197.0718,63.892454 M 213.93509,49.035783 L 214.51392,49.035783 L 216.82924,51.351108 L 216.82924,53.087602 C 216.10891,54.47683 214.95125,55.441548 213.35626,55.981759 C 211.6069,55.235741 210.64218,54.463967 210.4621,53.666434 L 210.4621,52.508771 C 210.4621,50.193482 211.61976,49.035821 213.93509,49.035783 M 215.09275,61.770072 L 215.67158,61.770072 C 217.21512,62.284613 217.9869,64.021106 217.98691,66.979554 L 217.98691,75.662024 C 218.57859,79.906794 219.54331,82.029173 220.88106,82.029169 L 224.93288,82.029169 L 224.93288,83.765662 C 224.05819,85.206311 222.51464,86.556916 220.30223,87.817482 L 219.14457,87.817482 C 215.15706,87.817481 212.45585,83.572722 211.04093,75.083193 L 210.4621,67.558385 C 210.4621,63.699533 212.00565,61.770097 215.09275,61.770072 M 227.82704,58.605794 L 229.56354,58.605794 C 230.61829,58.605822 231.58301,61.114089 232.45769,66.130602 L 233.03652,66.130602 C 236.20079,62.27175 238.902,60.342315 241.14016,60.342288 C 245.43636,60.342315 248.7164,66.323566 250.9803,78.286059 C 250.3114,83.302601 249.34668,85.810867 248.08614,85.810867 L 246.92848,85.810867 C 244.97329,75.366188 242.65797,69.191993 239.9825,67.288264 L 239.40367,67.288264 C 236.70244,67.288283 234.96595,74.041309 234.19419,87.54736 L 231.87886,88.705023 C 229.94942,88.061876 228.9847,87.097158 228.9847,85.810867 C 228.9847,81.077318 228.01998,72.394857 226.09055,59.763457 L 227.82704,58.605794 M 255.0707,48.958606 L 256.80719,48.958606 C 259.12251,48.958643 260.28017,54.361064 260.28018,65.165883 L 260.85901,65.165883 C 264.7436,59.197516 268.79542,54.759814 273.01447,51.852762 C 274.76381,52.598845 275.72852,53.37062 275.90863,54.168088 L 275.90863,55.904582 C 270.1203,62.078807 267.22614,66.130622 267.22616,68.060039 L 267.22616,69.796533 C 268.20372,71.725986 269.74727,72.690704 271.85681,72.69069 L 275.3298,72.69069 L 281.11811,70.954196 L 281.69694,71.533027 L 281.69694,72.111859 C 281.69691,75.893567 278.80276,78.20889 273.01447,79.057834 L 272.43564,79.057834 C 269.96594,79.057842 266.10707,77.514293 260.85901,74.427184 L 260.85901,75.006015 L 261.43785,82.530822 C 261.43784,85.232037 260.08723,86.582642 257.38603,86.582642 C 255.09642,86.582642 253.74582,76.742519 253.33421,57.062244 L 252.75538,53.589256 L 252.17654,53.589256 C 252.17654,51.659853 253.14126,50.116305 255.0707,48.958606 M 287.94831,42.205574 C 290.26363,43.106021 291.42129,45.807231 291.4213,50.309212 L 291.4213,60.728176 L 292.00013,72.883634 C 291.22835,75.19897 290.45657,76.356632 289.68481,76.356622 C 286.21181,76.356632 284.47532,74.041309 284.47532,69.410646 L 284.47532,59.570513 L 283.89649,43.942068 C 285.31141,42.784449 286.66201,42.205618 287.94831,42.205574 M 283.89649,85.617923 L 285.05416,85.617923 C 287.13794,85.617924 288.48855,86.389698 289.10597,87.933248 L 289.10597,90.827405 L 286.21182,93.14273 C 284.77117,93.142723 283.22762,91.985062 281.58117,89.669742 C 281.58117,87.585948 282.35294,86.235343 283.89649,85.617923"
         id="text3384" />
      <path
         style="fill:#000000;fill-opacity:1;fill-rule:nonzero;stroke:none;stroke-width:7;stroke-linecap:butt;stroke-linejoin:miter;marker:none;stroke-miterlimit:4;stroke-dasharray:none;stroke-dashoffset:0;stroke-opacity:1;visibility:visible;display:inline;overflow:visible;enable-background:accumulate"
         d="M 236.375,10.03125 C 228.11448,9.905178 219.40499,10.132822 210.28125,10.6875 C 186.7685,12.116959 167.4996,15.181209 151.9375,22.15625 C 136.3754,29.131291 124.64473,40.164952 116.84375,56.65625 C 112.0138,66.866784 111.26091,77.959503 116.0625,85.65625 C 124.30534,98.86919 126.69034,101.41598 134.25,105.84375 C 137.64827,107.83415 142.19786,109.14841 147.59375,110.40625 C 152.98964,111.66409 159.14091,112.77774 165.15625,113.90625 C 171.17159,115.03476 177.07651,116.15886 181.84375,117.40625 C 186.61099,118.65364 190.30833,120.2744 191.34375,121.15625 C 193.6087,123.08526 193.7115,123.81859 193.5,125.03125 C 193.2885,126.24391 191.97989,128.46564 189.46875,131.21875 C 184.44648,136.72497 175.40072,144.19743 166.78125,154.96875 L 165.65625,156.375 L 166.125,158.0625 C 166.51878,159.5379 167.7297,161.01945 169.125,161.65625 C 170.5203,162.29305 171.84077,162.32293 173.09375,162.1875 C 175.59972,161.91664 178.15604,160.92764 181.125,159.5625 C 187.06293,156.83221 194.46534,152.38019 202.1875,147.5625 C 209.90966,142.74481 217.90896,137.56674 224.71875,133.53125 C 231.52854,129.49576 237.64421,125.70371 239.375,125.45879 C 253.09781,123.51689 276.24745,117.18865 290.65625,110.875 C 296.93586,108.1234 304.92187,104.20579 312.21875,97.625 C 319.51563,91.044215 325.63097,81.102687 327.46875,65.5625 C 328.67631,55.351334 326.47435,46.156907 321.21875,38.5625 C 315.96315,30.968093 307.81289,25.023302 297.4375,20.5625 C 281.87441,13.871297 261.15657,10.409466 236.375,10.03125 z M 236.28125,15.757559 C 258.84525,17.462557 280.4102,20.861611 294.6875,27 C 304.2057,31.092259 312.14625,35.694723 316.44746,41.910029 C 320.74867,48.125335 323.20022,56.626865 322.16242,65.402471 C 320.49091,79.536747 313.08271,86.484917 306.87878,92.080015 C 300.67485,97.675113 292.85622,100.82849 286.30254,104.45501 C 277.81569,109.15125 250.05409,116.78069 237.75378,118.52129 C 232.97879,119.19699 228.80232,124.0393 221.80872,128.18372 C 214.81512,132.32814 206.778,137.50057 199.12122,142.27747 C 191.46444,147.05437 183.48197,150.78433 178.1875,153.21875 C 177.76397,153.41349 177.64745,153.36384 177.25,153.53125 C 183.74356,146.41005 188.49005,140.22278 192.99382,135.28503 C 195.82846,132.17725 200.86943,128.94177 200.40625,125.24004 C 199.7423,119.93376 198.9146,118.02663 196.20124,115.48626 C 193.33107,112.79907 188.71043,113.62626 183.59375,112.28743 C 178.47707,110.9486 171.82356,109.79529 165.78503,108.66243 C 159.7465,107.52957 154.65641,106.06626 149.51374,104.86744 C 144.37107,103.66862 139.76488,101.9514 137.8125,100.79121 C 131.15249,96.833547 126.11355,91.481551 123.15247,84.537427 C 120.19139,77.593303 119.13828,66.519069 123.15625,58.025073 C 130.32908,42.861683 140.20174,33.007509 154.48626,26.605088 C 168.77078,20.202667 187.91801,17.757315 211.04499,16.351309 C 220.00675,15.806478 228.21619,15.624207 236.28125,15.757559 z"
         id="path3424"
         sodipodi:nodetypes="cssssssssssscccsssssssssssccssssssssscsssssssssssc" />
    </g>
  </g>
</svg>
