<?xml version="1.0" encoding="UTF-8" standalone="no"?>
<!-- Created with Inkscape (http://www.inkscape.org/) -->
<svg
   xmlns:dc="http://purl.org/dc/elements/1.1/"
   xmlns:cc="http://creativecommons.org/ns#"
   xmlns:rdf="http://www.w3.org/1999/02/22-rdf-syntax-ns#"
   xmlns:svg="http://www.w3.org/2000/svg"
   xmlns="http://www.w3.org/2000/svg"
   xmlns:sodipodi="http://sodipodi.sourceforge.net/DTD/sodipodi-0.dtd"
   xmlns:inkscape="http://www.inkscape.org/namespaces/inkscape"
   width="640"
   height="480"
   id="svg2"
   sodipodi:version="0.32"
   inkscape:version="0.46"
   version="1.0"
   sodipodi:docname="exherbo-zebrapig.svg"
   inkscape:output_extension="org.inkscape.output.svg.inkscape">
  <defs
     id="defs4" />
  <sodipodi:namedview
     id="base"
     pagecolor="#99ff88"
     bordercolor="#666666"
     borderopacity="1.0"
     gridtolerance="10000"
     guidetolerance="10"
     objecttolerance="10"
     inkscape:pageopacity="1"
     inkscape:pageshadow="2"
     inkscape:zoom="1"
     inkscape:cx="419.21429"
     inkscape:cy="240"
     inkscape:document-units="px"
     inkscape:current-layer="svg2"
     showgrid="false"
     width="640px"
     inkscape:window-width="1280"
     inkscape:window-height="739"
     inkscape:window-x="-5"
     inkscape:window-y="36" />
  <metadata
     id="metadata7">
    <rdf:RDF>
      <cc:Work
         rdf:about="">
        <dc:format>image/svg+xml</dc:format>
        <dc:type
           rdf:resource="http://purl.org/dc/dcmitype/StillImage" />
        <cc:license
           rdf:resource="http://creativecommons.org/licenses/by-nc/3.0/" />
      </cc:Work>
      <cc:License
         rdf:about="http://creativecommons.org/licenses/by-nc/3.0/">
        <cc:permits
           rdf:resource="http://creativecommons.org/ns#Reproduction" />
        <cc:permits
           rdf:resource="http://creativecommons.org/ns#Distribution" />
        <cc:requires
           rdf:resource="http://creativecommons.org/ns#Notice" />
        <cc:requires
           rdf:resource="http://creativecommons.org/ns#Attribution" />
        <cc:prohibits
           rdf:resource="http://creativecommons.org/ns#CommercialUse" />
        <cc:permits
           rdf:resource="http://creativecommons.org/ns#DerivativeWorks" />
      </cc:License>
    </rdf:RDF>
  </metadata>
  <g
     id="g2419-anchorLeft"
     inkscape:label="#g2419">
    <g
       inkscape:label="Layer 1"
       id="layer1"
       transform="matrix(1.3480542,0,0,1.3480542,9.7089476,156.17101)">
      <g
         id="g3925"
         transform="translate(-253.56433,-181.36893)">
        <path
           style="fill:#ffffff;fill-opacity:1;fill-rule:evenodd;stroke:#000000;stroke-width:5;stroke-linecap:butt;stroke-linejoin:miter;stroke-miterlimit:4;stroke-dasharray:none;stroke-opacity:1"
           d="M 292.34172,208.19065 C 291.56926,207.73146 282.75492,202.35603 281.78914,195.59556 C 280.77899,188.52449 281.78914,184.48388 281.78914,184.48388 C 281.78915,184.48388 289.55296,186.92676 294.41604,192.06002 C 296.88969,194.6711 298.65291,196.79609 299.90915,198.50621"
           id="path6457" />
        <path
           style="fill:#fff6f6;fill-opacity:1;fill-rule:evenodd;stroke:#000000;stroke-width:8;stroke-linecap:butt;stroke-linejoin:miter;stroke-miterlimit:4;stroke-dasharray:none;stroke-opacity:1"
           d="M 378.36021,299.15409 C 378.36021,299.15409 403.36684,292.90243 409.09752,301.23797 C 414.82821,309.57351 416.91209,310.61546 409.61849,312.17837 C 402.32489,313.74129 390.34255,314.26226 390.34255,314.26226 L 378.36021,299.15409 z"
           id="path6459" />
        <path
           style="fill:#fff6f6;fill-opacity:1;fill-rule:evenodd;stroke:#000000;stroke-width:8;stroke-linecap:butt;stroke-linejoin:miter;stroke-miterlimit:4;stroke-dasharray:none;stroke-opacity:1"
           d="M 310.63393,303.84283 C 310.63393,303.84283 289.2741,293.4234 276.24982,305.40574 C 263.22554,317.38809 305.42422,320.51391 305.42422,320.51391 L 310.63393,303.84283 z"
           id="path6461" />
        <path
           style="fill:#ffffff;fill-opacity:1;fill-rule:evenodd;stroke:#000000;stroke-width:5;stroke-linecap:butt;stroke-linejoin:miter;stroke-miterlimit:4;stroke-dasharray:none;stroke-opacity:1"
           d="M 308.54061,287.23926 C 308.54061,287.23926 315.90826,293.87014 295.27884,318.92014 C 274.64943,343.97014 306.33032,369.75691 306.33032,369.75691 C 306.33032,369.75691 334.32738,401.4378 366.74503,393.33338 C 399.16268,385.22897 395.47885,385.96574 408.74062,372.70397 C 422.00239,359.4422 412.42445,335.86573 408.74062,323.34073 C 405.0568,310.81573 368.95532,280.60837 368.95532,280.60837 L 308.54061,287.23926 z"
           id="path6463" />
        <path
           style="fill:#ffffff;fill-opacity:1;fill-rule:evenodd;stroke:#000000;stroke-width:5;stroke-linecap:butt;stroke-linejoin:miter;stroke-miterlimit:4;stroke-dasharray:none;stroke-opacity:1"
           d="M 306.53788,286.5093 C 296.65945,275.08798 286.65656,262.54849 283.68833,247.37375 C 282.60933,234.93998 283.4325,221.62901 290.11327,210.72527 C 294.69131,203.03537 300.61465,195.50849 309.37172,192.44709 C 320.89222,188.00099 333.76323,187.4708 345.83911,189.58767 C 365.29381,193.53459 385.04376,207.99602 392.01014,226.55575 C 397.66804,241.78734 403.77753,254.89513 390.96192,282.97375 C 383.8605,296.32533 366.26997,302.68427 356.78335,303.44234 C 349.56076,304.05505 337.77735,301.58008 330.58673,300.00581 C 323.90477,299.18734 311.6904,291.94989 306.53788,286.5093 z"
           id="path6465"
           sodipodi:nodetypes="cccccccccc" />
        <path
           style="fill:#ffffff;fill-opacity:1;fill-rule:evenodd;stroke:#000000;stroke-width:5;stroke-linecap:butt;stroke-linejoin:miter;stroke-miterlimit:4;stroke-dasharray:none;stroke-opacity:1"
           d="M 371.39746,201.29314 C 374.33776,199.43107 382.07531,195.89988 388.86531,204.68693 C 393.45993,210.63291 390.53404,214.55413 386.82061,216.91494"
           id="path6467" />
        <path
           sodipodi:nodetypes="ccccsscscsscscccccscsscsccsccccccc"
           style="fill:#000000;fill-opacity:1;fill-rule:evenodd;stroke:#000000;stroke-width:1px;stroke-linecap:butt;stroke-linejoin:miter;stroke-opacity:1"
           d="M 332.04572,188.40142 C 324.31416,188.43071 316.55854,189.65386 309.35822,192.43267 C 306.27525,193.51045 303.55369,195.15445 301.10822,197.15142 L 300.98322,197.62017 C 304.51876,218.32829 303.50432,209.75262 304.51447,218.33892 C 305.52461,226.92521 302.99654,204.19044 314.10822,194.08892 C 325.2199,183.98739 320.27786,204.0041 320.27786,204.0041 C 320.27786,204.0041 322.6934,205.6944 329.76447,210.74517 C 336.83555,215.79592 331.79572,211.24517 331.79572,211.24517 C 331.79572,211.24517 329.27034,197.60922 331.79572,195.58892 C 334.3211,193.56861 340.89026,187.01278 343.92072,194.58892 C 346.95118,202.16507 342.88947,210.24517 342.88947,210.24517 C 342.88948,210.24517 356.55238,217.30879 362.10822,201.65142 C 363.0875,198.89162 363.87583,197.32408 364.51447,196.58892 C 358.56081,193.28785 352.17143,190.87607 345.82697,189.58892 C 341.29851,188.79509 336.68465,188.38385 332.04572,188.40142 z M 366.38947,197.65142 C 367.29994,200.92629 367.13947,208.21392 367.13947,208.21392 C 367.13946,208.21392 367.15121,211.24009 372.20197,211.74517 C 377.25273,212.25024 366.56804,220.01749 366.56804,220.01749 C 366.56805,220.01748 364.11488,225.40142 369.67072,225.40142 C 375.22657,225.40142 367.13757,221.87017 379.76447,221.87017 C 392.39138,221.87017 393.50227,241.55767 393.50227,241.55767 C 395.05866,248.09455 398.08753,260.75421 388.99616,275.40142 C 379.90479,290.04863 370.20742,296.06218 358.357,297.70172 C 333.23199,298.81652 318.67072,289.02642 318.67072,289.02642 C 318.67072,289.02643 308.5535,284.49787 298.45197,274.90142 C 297.77436,274.25769 297.06513,273.94859 296.32697,273.90142 C 299.53741,278.29189 303.04893,282.45222 306.54572,286.49517 C 311.69824,291.93576 323.895,299.17669 330.57697,299.99517 C 337.76759,301.56944 349.57312,304.04538 356.79572,303.43267 C 366.28234,302.6746 384.78805,296.3155 391.88947,282.96392 C 404.70508,254.8853 397.67237,241.78926 392.01447,226.55767 C 387.55937,214.68845 377.88025,204.49025 366.38947,197.65142 z"
           id="path6469" />
        <path
           style="fill:#ba7e8d;fill-opacity:1;fill-rule:evenodd;stroke:#000000;stroke-width:5;stroke-linecap:butt;stroke-linejoin:miter;stroke-miterlimit:4;stroke-dasharray:none;stroke-opacity:1"
           d="M 299.97188,262.26563 C 299.97188,262.26563 303.00234,240.04227 326.74092,240.54735 C 350.47951,241.05242 367.14703,249.63872 367.14703,249.63872 C 367.14703,249.63872 380.78409,259.23517 380.27901,268.32654 C 379.77393,277.41791 371.18764,284.99406 360.07596,286.50929 C 353.10557,287.4598 319.16478,283.98391 311.08356,280.44837 C 303.00234,276.91284 299.4668,266.30624 299.97188,262.26563 z"
           id="path6471"
           sodipodi:nodetypes="cscsssc" />
        <path
           style="fill:#758fff;fill-opacity:1;fill-rule:evenodd;stroke:#000000;stroke-width:8;stroke-linecap:butt;stroke-linejoin:miter;stroke-miterlimit:4;stroke-dasharray:none;stroke-opacity:1"
           d="M 323.24709,224.4683 C 323.24709,224.4683 313.78154,223.61459 316.6811,230.02414 C 319.08021,235.32744 321.73186,235.20117 321.73186,235.20117 C 321.73186,235.20117 326.02501,236.59014 327.79278,230.52922 C 329.77773,223.7237 324.88859,224.34203 323.24709,224.4683 z"
           id="path6473"
           sodipodi:nodetypes="cscsc" />
        <path
           style="fill:#758fff;fill-opacity:1;fill-rule:evenodd;stroke:#000000;stroke-width:8;stroke-linecap:butt;stroke-linejoin:miter;stroke-miterlimit:4;stroke-dasharray:none;stroke-opacity:1"
           d="M 353.10914,216.42996 C 353.10914,216.42996 344.77538,218.82907 345.40673,225.77386 C 346.03808,232.71866 350.58376,236.38047 353.74049,235.87539 C 356.89722,235.37031 362.57932,234.36016 361.56917,226.78402 C 360.55902,219.20787 356.51841,215.92488 353.10914,216.42996 z"
           id="path6475"
           sodipodi:nodetypes="csssc" />
        <path
           style="fill:#000000;fill-opacity:1;fill-rule:evenodd;stroke:none;stroke-width:1px;stroke-linecap:butt;stroke-linejoin:miter;stroke-opacity:1"
           d="M 361.59119,258.09875 C 361.59119,258.09875 354.26758,257.4674 353.25743,265.04354 C 352.24728,272.61969 357.92938,275.27134 359.69715,275.14507 C 361.46492,275.0188 367.02076,276.40776 367.77837,267.69519 C 368.53599,258.98263 361.46492,257.71994 361.59119,258.09875 z"
           id="path6477" />
        <path
           style="fill:#000000;fill-opacity:1;fill-rule:evenodd;stroke:none;stroke-width:1px;stroke-linecap:butt;stroke-linejoin:miter;stroke-opacity:1"
           d="M 321.05882,253.80559 C 321.05882,253.80559 314.36656,254.94202 315.12417,259.86651 C 315.88179,264.79101 318.40717,265.92743 322.19524,265.67489 C 325.98331,265.42235 328.12988,259.99278 326.74092,257.21486 C 325.35197,254.43694 321.18509,253.67932 321.05882,253.80559 z"
           id="path6479"
           sodipodi:nodetypes="csssc" />
        <path
           sodipodi:nodetypes="ccccccccccc"
           id="path6481"
           d="M 295.26529,324.16071 C 300.14751,320.4518 303.57999,315.61565 309.26031,311.75825 C 315.41227,308.75453 321.25072,306.62393 327.35195,308.14947 C 336.02462,308.40573 344.60447,309.90034 353.23991,310.52529 C 360.03395,310.30536 366.64869,308.37541 372.91367,305.83987 C 376.24429,304.78106 380.27737,302.83457 380.20195,306.55585 C 379.1574,309.42383 376.55008,311.38183 374.71306,313.75276 C 372.87747,315.80598 371.75462,318.56166 369.04445,319.68148 C 362.81561,322.79577 355.67922,321.13027 349.04953,320.83231 C 339.02637,320.03329 329.01435,318.50409 318.94227,318.71725 C 311.85549,319.27268 305.01151,321.58671 298.65158,324.6817"
           style="fill:#000000;fill-opacity:1;fill-rule:evenodd;stroke:none;stroke-width:1px;stroke-linecap:butt;stroke-linejoin:miter;stroke-opacity:1" />
        <path
           sodipodi:nodetypes="cccccccccccc"
           id="path6483"
           d="M 305.16373,339.52939 C 300.51268,340.3682 298.39745,332.3191 302.95862,330.8816 C 308.93648,327.10654 316.73242,324.23373 323.56071,327.52411 C 336.17323,332.53278 349.95367,331.96997 363.26598,332.40947 C 370.09484,332.67038 376.20036,328.65191 381.48905,324.75233 C 385.65299,322.62308 387.45472,317.69877 391.74727,315.95812 C 395.22978,316.09292 395.0313,320.80343 394.43299,323.30271 C 392.13593,331.73149 384.11463,336.8265 376.63211,340.26672 C 372.2995,342.45735 367.64083,344.02218 362.76028,344.23956 C 356.42175,344.6352 350.04801,344.17323 343.74198,343.57579 C 335.87652,342.24156 328.33932,337.34659 320.15022,339.09186 C 315.81708,340.23881 305.68385,339.5298 305.16373,339.52939 z"
           style="fill:#000000;fill-opacity:1;fill-rule:evenodd;stroke:none;stroke-width:1px;stroke-linecap:butt;stroke-linejoin:miter;stroke-opacity:1" />
        <path
           style="fill:none;fill-opacity:1;fill-rule:evenodd;stroke:none;stroke-width:1px;stroke-linecap:butt;stroke-linejoin:miter;stroke-opacity:1"
           d="M 314.54123,361.41018 C 318.20352,361.54674 322.30216,360.67501 325.49412,362.98622 C 335.85429,365.44821 346.55329,363.87471 357.05717,363.76058 C 365.08025,362.81411 372.68448,359.87509 380.27528,357.28274 C 383.71051,355.11747 386.762,352.39095 390.18353,350.23165 C 392.15569,347.70142 399.53504,343.79643 396.82574,347.0548 C 394.15972,353.8549 390.88443,357.89945 388.09195,359.7389 C 384.65214,365.14973 382.24086,372.13716 375.85584,374.77343 C 367.73205,377.93141 359.30862,378.44176 350.54093,377.87848 C 343.48331,377.62072 336.12712,379.25936 329.10484,378.46809 C 325.35195,378.04972 321.20184,376.40974 319.81742,372.57972 C 317.7722,369.07056 313.75163,365.92113 314.54123,361.41018 z"
           id="path6485"
           sodipodi:nodetypes="cccccccccccc" />
        <path
           style="fill:#000000;fill-opacity:1;fill-rule:evenodd;stroke:none;stroke-width:1px;stroke-linecap:butt;stroke-linejoin:miter;stroke-opacity:1"
           d="M 320.53238,364.2755 C 338.95776,364.37867 357.99411,365.05991 375.56091,358.56305 C 379.6294,356.9299 383.98832,355.45262 386.98602,352.07608 C 388.87802,350.37979 391.12523,348.05276 393.90705,348.62408 C 396.20111,350.82286 392.93135,354.16298 391.35898,356.01313 C 388.1156,358.9291 386.09125,362.94366 383.46286,366.39525 C 380.8874,369.9992 377.92286,373.47892 374.03123,375.7068 C 359.37416,378.64774 344.37434,378.97062 329.53241,380.33997 C 324.10888,380.25183 317.94495,379.28493 314.23191,374.94733 C 311.97241,371.42083 313.76587,366.10854 317.39872,364.31218 C 317.75596,364.2384 318.10247,364.12917 318.44849,364.01501"
           id="path6487" />
        <path
           id="path7505"
           d="M 395.30844,305.13847 C 384.63584,342.79527 342.38413,363.2609 310.18344,373.63847 C 318.88893,381.80564 341.44287,399.65174 366.74594,393.32597 C 399.1636,385.22158 395.48417,385.96274 408.74594,372.70097 C 422.00772,359.43921 412.42977,335.85097 408.74594,323.32597 C 407.41762,318.80967 401.85426,312.00767 395.30844,305.13847 z"
           style="opacity:0.22105264;fill:#000000;fill-opacity:1;fill-rule:evenodd;stroke:none;stroke-width:1px;stroke-linecap:butt;stroke-linejoin:miter;stroke-opacity:1" />
        <path
           style="fill:#ffffff;fill-opacity:1;fill-rule:evenodd;stroke:#000000;stroke-width:8;stroke-linecap:butt;stroke-linejoin:miter;stroke-miterlimit:4;stroke-dasharray:none;stroke-opacity:1"
           d="M 261.75605,349.1275 C 261.75605,349.1275 281.30305,334.28209 300.4362,346.9172 C 319.96047,359.81059 324.74944,363.49441 331.01194,378.22971 C 337.27444,392.965 329.90679,400.33265 327.32811,402.91133 C 324.46277,405.77667 320.69723,413.59442 284.22737,394.07015 C 247.75752,374.54588 258.58614,350.37262 261.75605,349.1275 z"
           id="path6489"
           sodipodi:nodetypes="cssssc" />
        <path
           sodipodi:nodetypes="cccccccccccccc"
           id="path6491"
           d="M 263.59796,374.91428 C 265.47473,373.18277 268.41311,372.63382 269.60585,370.18829 C 271.97395,366.74812 273.64378,364.53939 274.89127,361.29609 C 276.92935,357.5894 279.00398,352.46901 279.24591,351.19988 C 279.10012,349.41473 281.13198,347.29076 282.60726,348.75878 C 284.3354,350.96667 283.89766,353.98068 284.99689,356.45393 C 286.45086,361.38572 287.38121,366.73677 285.87714,371.77238 C 285.10184,374.27675 283.3141,376.47554 280.88239,377.52077 C 278.96244,378.60115 276.87532,379.60114 275.52773,381.41474 C 274.95702,383.09055 273.60189,385.04952 271.58704,384.76363 C 269.23637,384.18624 268.41202,381.66183 267.07996,379.93792 C 265.67081,378.5021 265.63668,375.93794 263.92765,374.93368 L 263.59796,374.91428 L 263.59796,374.91428 z"
           style="fill:#000000;fill-opacity:1;fill-rule:evenodd;stroke:none;stroke-width:1px;stroke-linecap:butt;stroke-linejoin:miter;stroke-opacity:1" />
        <path
           sodipodi:nodetypes="ccccccccccc"
           id="path6493"
           d="M 276.49133,390.01794 C 281.08485,390.56634 286.04969,389.63092 289.67486,386.62152 C 293.72066,383.62701 294.44231,382.37393 297.17554,378.73594 C 299.50743,375.50949 300.26408,371.44955 302.54711,368.19486 C 305.10883,365.61691 305.91158,364.60925 306.94213,366.725 C 308.48314,370.615 306.54105,374.71718 306.98445,378.71242 C 306.8976,385.02371 304.6822,391.73258 299.48741,395.65707 C 298.16586,396.62127 296.58447,397.27531 295.62814,398.66567 C 294.51341,400.03173 292.71987,401.52648 290.87214,400.66172 C 288.59009,399.67373 287.36534,397.09209 284.8634,396.47853 C 281.62055,394.9107 280.30309,390.60979 276.49133,390.01794 z"
           style="fill:#000000;fill-opacity:1;fill-rule:evenodd;stroke:none;stroke-width:1px;stroke-linecap:butt;stroke-linejoin:miter;stroke-opacity:1" />
        <path
           style="fill:#ffffff;fill-opacity:1;fill-rule:evenodd;stroke:#000000;stroke-width:8;stroke-linecap:butt;stroke-linejoin:miter;stroke-miterlimit:4;stroke-dasharray:none;stroke-opacity:1"
           d="M 388.77964,393.44991 C 388.77964,393.44991 384.09089,370.52717 398.15712,356.46094 C 412.22335,342.39471 429.4154,339.26888 446.60746,350.20928 C 463.79952,361.14968 448.0753,389.9047 448.0753,389.9047 C 448.0753,389.9047 434.36036,411.33123 413.78626,410.12099 C 404.92975,409.60002 389.42176,399.3968 388.77964,393.44991 z"
           id="path6495"
           sodipodi:nodetypes="csscsc" />
        <path
           sodipodi:nodetypes="cccccccccccc"
           id="path6497"
           d="M 390.86353,371.56912 C 393.03946,370.99621 391.88757,372.64714 394.63232,375.24786 C 396.08373,378.32522 400.58927,378.11476 403.77471,379.47689 C 407.6971,380.49868 411.42704,382.10895 415.19021,383.58862 C 418.3442,385.6537 419.33638,388.05858 424.69026,389.7941 C 426.54409,390.21073 429.55658,390.00189 429.48784,392.36027 C 429.11297,394.39363 426.60847,394.97139 424.86416,394.54858 C 419.65609,394.20061 414.09268,395.16807 409.25812,392.69091 C 404.47435,390.36402 399.31841,388.95929 394.28537,387.31677 C 392.31313,386.28407 389.67471,385.62676 388.86497,383.28589 C 387.92871,380.41686 388.454,377.34513 388.0953,374.40096 C 388.25138,373.01488 389.26576,371.36317 390.86353,371.56912 z"
           style="fill:#000000;fill-opacity:1;fill-rule:evenodd;stroke:none;stroke-width:1px;stroke-linecap:butt;stroke-linejoin:miter;stroke-opacity:1" />
        <path
           style="fill:#000000;fill-opacity:1;fill-rule:evenodd;stroke:none;stroke-width:1px;stroke-linecap:butt;stroke-linejoin:miter;stroke-opacity:1"
           d="M 398.93857,355.80971 C 404.82002,363.89572 415.15757,366.50781 423.31648,371.61084 C 431.0509,375.42883 439.17931,381.8099 448.92361,374.35078 C 445.27856,367.37605 438.81348,368.39795 434.17035,365.34199 C 426.59271,360.40105 417.09012,357.32612 412.41393,348.99087 C 407.25106,344.80981 402.99967,352.85531 399.58979,355.54924"
           id="path6499"
           sodipodi:nodetypes="cccccc" />
        <path
           sodipodi:nodetypes="cccscc"
           id="path6503"
           d="M 454.93344,363.20097 C 424.40896,390.62562 401.19879,393.54414 388.55844,392.13847 C 388.67933,392.96235 388.77719,393.45097 388.77719,393.45097 C 393.46594,401.26554 404.92069,409.58623 413.77719,410.10722 C 434.35129,411.31746 447.75569,388.67215 447.7557,388.67216 C 447.7557,388.67216 456.99158,375.28677 454.93344,363.20097 z"
           style="opacity:0.22631579;fill:#000000;fill-opacity:1;fill-rule:evenodd;stroke:#000000;stroke-width:1px;stroke-linecap:butt;stroke-linejoin:miter;stroke-opacity:1" />
        <path
           id="path7477"
           d="M 262.52719,348.57597 C 262.06557,348.88848 261.74594,349.13847 261.74594,349.13847 C 261.37755,349.13847 247.74484,374.55168 284.21469,394.07597 C 310.55631,408.17805 319.856,408.02084 324.05844,405.76347 C 297.23708,397.64828 276.09558,370.89679 262.52719,348.57597 z"
           style="opacity:0.2157895;fill:#000000;fill-opacity:1;fill-rule:evenodd;stroke:none;stroke-width:1px;stroke-linecap:butt;stroke-linejoin:miter;stroke-opacity:1" />
      </g>
    </g>
  </g>
  <g
     id="g2448-anchorRight"
     inkscape:label="#g2448">
    <path
       id="text2623"
       d="M 354.67431,53.405447 C 354.67426,50.475909 354.10629,47.815386 352.97038,45.423868 C 351.89417,42.972635 350.42938,40.880089 348.57603,39.146223 C 346.72259,37.352653 344.57025,35.977551 342.11902,35.020912 C 339.7275,34.064366 337.18655,33.586069 334.49616,33.586022 C 330.60998,33.586069 327.08254,34.124153 323.91385,35.200274 C 320.74512,36.276486 317.99491,37.860843 315.66323,39.953348 C 313.39131,41.986149 311.62759,44.556992 310.37207,47.665885 C 309.11654,50.715057 308.48877,54.2126 308.48877,58.158522 L 308.48877,58.337883 C 308.48877,61.446832 309.17632,64.376397 310.55143,67.126587 C 311.92653,69.876805 313.72014,72.298181 315.93227,74.390721 C 318.20417,76.423487 320.8049,78.037737 323.73448,79.233476 C 326.66403,80.429219 329.68328,81.027089 332.79223,81.027089 L 332.97159,81.027089 C 335.66198,81.027089 337.96378,80.758047 339.877,80.219963 C 341.79016,79.681881 343.34462,79.024223 344.5404,78.246989 C 345.7361,77.46976 346.60301,76.692528 347.14114,75.915292 C 347.67918,75.078278 347.94822,74.390727 347.94826,73.852637 C 347.94822,72.357968 347.61939,71.222014 346.96177,70.444772 C 346.36386,69.667551 345.2877,69.278935 343.73327,69.278923 C 342.77664,69.278935 341.84994,69.428402 340.95317,69.727326 C 340.05633,70.026273 339.15953,70.355102 338.26275,70.713814 C 337.4257,71.012759 336.55879,71.311694 335.66201,71.61062 C 334.76518,71.909565 333.7189,72.059032 332.52319,72.059023 C 331.50678,72.059032 330.46051,71.909565 329.38437,71.61062 C 328.30818,71.311694 327.2918,70.893185 326.33522,70.355091 C 325.37861,69.757231 324.60138,69.039787 324.00353,68.202755 C 323.40564,67.365749 323.1067,66.409157 323.10672,65.332974 C 323.1067,64.31661 323.37575,63.479591 323.91385,62.821916 C 324.5117,62.164276 325.22914,61.656087 326.06618,61.297345 C 326.96297,60.878855 327.91956,60.609813 328.93596,60.490219 C 329.95232,60.310878 330.90891,60.221198 331.80574,60.221177 C 333.7189,60.221198 335.39294,60.310878 336.82786,60.490219 C 338.32251,60.6696 339.63782,60.819068 340.77381,60.938622 C 341.55101,61.058216 342.26845,61.147897 342.92615,61.207664 C 343.58377,61.267471 344.3311,61.297364 345.16816,61.297345 C 348.21726,61.297364 350.54896,60.57992 352.16325,59.145009 C 353.83724,57.710142 354.67426,55.796956 354.67431,53.405447 M 322.92736,48.203969 C 322.92734,47.307196 323.1366,46.440284 323.55512,45.60323 C 324.0334,44.706459 324.63127,43.929228 325.34874,43.271533 C 326.12595,42.613913 327.02276,42.105723 328.03916,41.746962 C 329.05551,41.328491 330.10179,41.119237 331.17798,41.119197 C 332.31391,41.119237 333.44986,41.298598 334.58584,41.657281 C 335.78156,41.956255 336.85772,42.434552 337.81435,43.092171 C 338.77091,43.69008 339.51825,44.437418 340.05636,45.334188 C 340.6542,46.231029 340.95314,47.247409 340.95317,48.38333 C 340.95314,50.176974 340.08622,51.462396 338.35243,52.239598 C 336.67836,53.016859 334.6456,53.405474 332.25415,53.405447 C 331.35732,53.405474 330.34094,53.345687 329.205,53.226086 C 328.12882,53.046752 327.11244,52.77771 326.15586,52.41896 C 325.25904,52.000479 324.48181,51.462396 323.82417,50.804708 C 323.22628,50.147081 322.92734,49.280168 322.92736,48.203969 M 360.94355,34.931232 C 359.50865,34.931278 358.3727,35.200319 357.53568,35.738358 C 356.69866,36.216699 356.28015,37.233079 356.28016,38.7875 C 356.28015,40.162644 356.63887,41.448066 357.35632,42.643768 C 358.07376,43.77976 358.88089,45.035288 359.7777,46.410356 C 360.79407,47.845279 361.75067,49.399742 362.64748,51.07375 C 363.54428,52.68803 363.99268,54.391961 363.99269,56.185547 C 363.99268,56.903017 363.81332,57.710142 363.45461,58.606925 C 363.09587,59.443966 362.61758,60.370665 362.01972,61.387025 C 361.48162,62.343638 360.85386,63.330124 360.13642,64.346487 C 359.41897,65.303096 358.73142,66.259689 358.07377,67.216268 C 356.93781,68.770745 355.95132,70.205634 355.11431,71.52094 C 354.27729,72.776477 353.85878,73.942324 353.85878,75.018485 C 353.85878,76.931676 354.12782,78.246991 354.6659,78.964434 C 355.20398,79.681881 356.45951,80.040603 358.43249,80.040602 C 360.16631,80.040603 361.69088,79.442732 363.0062,78.246989 C 364.32151,76.991464 365.60693,75.586468 366.86247,74.031998 C 367.87884,72.71669 368.92511,71.520949 370.0013,70.444772 C 371.13723,69.368615 372.33297,68.830532 373.58852,68.83052 C 374.84403,68.830532 376.06966,69.428402 377.26543,70.624133 C 378.46114,71.760097 379.5971,72.985732 380.67329,74.30104 L 380.67329,74.211359 C 381.86901,75.765829 383.09464,77.140931 384.3502,78.336669 C 385.6057,79.472626 387.04059,80.040603 388.65487,80.040602 C 390.2093,80.040603 391.43493,79.801455 392.33178,79.323157 C 393.28833,78.844862 393.76663,77.679015 393.76667,75.825611 C 393.76663,74.450514 393.28833,73.015625 392.33178,71.52094 C 391.43493,70.026273 390.38866,68.412023 389.19296,66.678184 C 387.8776,64.8248 386.62208,62.971402 385.42637,61.117983 C 384.29038,59.264605 383.7224,57.560674 383.72244,56.006186 C 383.7224,54.093025 384.14091,52.329308 384.97797,50.715027 C 385.87474,49.100807 386.77154,47.606131 387.66839,46.230994 C 388.50537,44.915714 389.22281,43.719973 389.82072,42.643768 C 390.47834,41.56764 390.80717,40.431686 390.80721,39.235903 C 390.80717,36.545528 389.40217,35.200319 386.59222,35.200274 C 384.97793,35.200319 383.63272,35.678616 382.55659,36.635164 C 381.48039,37.532014 380.43412,38.578287 379.41776,39.773987 C 378.58072,40.730621 377.71381,41.627427 376.81703,42.464407 C 375.97998,43.301464 374.9935,43.719973 373.85756,43.719936 C 372.72159,43.719973 371.7351,43.301464 370.8981,42.464407 C 370.06106,41.627427 369.22405,40.730621 368.38704,39.773987 C 367.31086,38.578287 366.2048,37.472227 365.06886,36.455803 C 363.99268,35.439468 362.61758,34.931278 360.94355,34.931232 M 410.79198,20.582327 C 410.79196,16.87559 410.25388,14.274854 409.17773,12.78011 C 408.10155,11.225715 406.60687,10.448483 404.6937,10.448412 C 403.61752,10.448483 402.72071,10.747418 402.00328,11.345219 C 401.28582,11.883372 400.68795,12.63071 400.20966,13.587235 C 399.79115,14.543896 399.46232,15.620062 399.22318,16.815739 C 399.04381,17.951757 398.95413,19.087711 398.95413,20.223604 L 398.95413,71.700301 C 398.95413,74.570088 399.46232,76.841996 400.47871,78.516031 C 401.55487,80.130283 403.01965,80.937408 404.87306,80.937408 C 406.06879,80.937408 407.05527,80.668367 407.83252,80.130283 C 408.60974,79.532413 409.20761,78.785075 409.62613,77.888266 C 410.10441,76.991464 410.40335,75.975084 410.52294,74.839124 C 410.70228,73.643389 410.79196,72.417755 410.79198,71.162217 L 410.79198,58.337883 C 410.79196,56.783442 411.0909,55.079512 411.68879,53.226086 C 412.34643,51.312928 413.36281,49.638891 414.73793,48.203969 L 415.09665,47.845246 C 415.57493,47.307196 416.23259,46.769113 417.06963,46.230994 C 417.90662,45.692946 419.19204,45.423904 420.9259,45.423868 C 423.25756,45.423904 425.20064,45.81252 426.75514,46.589717 C 428.36936,47.307196 429.65478,48.353469 430.61141,49.72854 C 431.62775,51.043886 432.34519,52.628243 432.76374,54.481615 C 433.242,56.33504 433.48115,58.367799 433.48119,60.579899 L 433.48119,71.431259 C 433.48115,74.898917 434.01923,77.350186 435.09544,78.785073 C 436.17156,80.219964 437.66624,80.937408 439.57947,80.937408 C 441.5524,80.937408 442.98729,80.070496 443.88414,78.336669 C 444.84069,76.543061 445.31898,74.151579 445.31903,71.162217 L 445.31903,55.109379 C 445.31898,53.136433 445.10973,50.954206 444.69127,48.562691 C 444.27271,46.171242 443.43569,43.959121 442.18021,41.926323 C 440.92463,39.833815 439.10113,38.099991 436.70969,36.724845 C 434.37795,35.29 431.26903,34.572555 427.3829,34.572509 C 425.29032,34.572555 423.64618,34.751917 422.45047,35.110593 C 421.2547,35.469361 420.14864,35.828083 419.13228,36.186761 C 418.59417,36.425954 418.05609,36.635208 417.51803,36.814525 C 416.97992,36.934144 416.32227,36.993931 415.54506,36.993887 C 414.22972,36.993931 413.09377,36.455847 412.13719,35.379635 C 411.24037,34.243727 410.79196,32.719157 410.79198,30.805922 L 410.79198,20.582327 M 494.80033,53.405447 C 494.80029,50.475909 494.23231,47.815386 493.0964,45.423868 C 492.02019,42.972635 490.55541,40.880089 488.70205,39.146223 C 486.84861,37.352653 484.69627,35.977551 482.24504,35.020912 C 479.85352,34.064366 477.31257,33.586069 474.62219,33.586022 C 470.736,33.586069 467.20856,34.124153 464.03987,35.200274 C 460.87114,36.276486 458.12093,37.860843 455.78925,39.953348 C 453.51733,41.986149 451.75361,44.556992 450.49809,47.665885 C 449.24256,50.715057 448.61479,54.2126 448.6148,58.158522 L 448.6148,58.337883 C 448.61479,61.446832 449.30234,64.376397 450.67745,67.126587 C 452.05255,69.876805 453.84616,72.298181 456.05829,74.390721 C 458.33019,76.423487 460.93092,78.037737 463.86051,79.233476 C 466.79006,80.429219 469.8093,81.027089 472.91825,81.027089 L 473.09761,81.027089 C 475.78801,81.027089 478.08981,80.758047 480.00303,80.219963 C 481.91618,79.681881 483.47064,79.024223 484.66642,78.246989 C 485.86212,77.46976 486.72903,76.692528 487.26716,75.915292 C 487.8052,75.078278 488.07424,74.390727 488.07428,73.852637 C 488.07424,72.357968 487.74541,71.222014 487.0878,70.444772 C 486.48989,69.667551 485.41372,69.278935 483.85929,69.278923 C 482.90266,69.278935 481.97596,69.428402 481.07919,69.727326 C 480.18235,70.026273 479.28555,70.355102 478.38877,70.713814 C 477.55172,71.012759 476.68481,71.311694 475.78803,71.61062 C 474.8912,71.909565 473.84493,72.059032 472.64921,72.059023 C 471.63281,72.059032 470.58653,71.909565 469.51039,71.61062 C 468.4342,71.311694 467.41782,70.893185 466.46125,70.355091 C 465.50463,69.757231 464.7274,69.039787 464.12955,68.202755 C 463.53166,67.365749 463.23273,66.409157 463.23274,65.332974 C 463.23273,64.31661 463.50177,63.479591 464.03987,62.821916 C 464.63772,62.164276 465.35517,61.656087 466.1922,61.297345 C 467.08899,60.878855 468.04558,60.609813 469.06199,60.490219 C 470.07834,60.310878 471.03494,60.221198 471.93177,60.221177 C 473.84493,60.221198 475.51896,60.310878 476.95388,60.490219 C 478.44853,60.6696 479.76384,60.819068 480.89983,60.938622 C 481.67703,61.058216 482.39447,61.147897 483.05217,61.207664 C 483.70979,61.267471 484.45713,61.297364 485.29418,61.297345 C 488.34328,61.297364 490.67498,60.57992 492.28928,59.145009 C 493.96327,57.710142 494.80029,55.796956 494.80033,53.405447 M 463.05338,48.203969 C 463.05336,47.307196 463.26262,46.440284 463.68115,45.60323 C 464.15943,44.706459 464.7573,43.929228 465.47476,43.271533 C 466.25197,42.613913 467.14878,42.105723 468.16518,41.746962 C 469.18154,41.328491 470.22781,41.119237 471.304,41.119197 C 472.43993,41.119237 473.57588,41.298598 474.71187,41.657281 C 475.90758,41.956255 476.98375,42.434552 477.94037,43.092171 C 478.89693,43.69008 479.64427,44.437418 480.18239,45.334188 C 480.78022,46.231029 481.07916,47.247409 481.07919,48.38333 C 481.07916,50.176974 480.21225,51.462396 478.47845,52.239598 C 476.80439,53.016859 474.77163,53.405474 472.38017,53.405447 C 471.48334,53.405474 470.46696,53.345687 469.33103,53.226086 C 468.25484,53.046752 467.23846,52.77771 466.28188,52.41896 C 465.38506,52.000479 464.60783,51.462396 463.95019,50.804708 C 463.3523,50.147081 463.05336,49.280168 463.05338,48.203969 M 521.769,34.034425 C 520.63301,34.034472 519.67642,34.154046 518.89922,34.393148 C 518.12196,34.632342 517.40451,34.901384 516.74688,35.200274 C 516.14898,35.499255 515.52122,35.768296 514.86359,36.0074 C 514.26569,36.186806 513.45857,36.276486 512.44221,36.276442 C 511.78453,36.276486 511.24645,36.246593 510.82796,36.186761 C 510.40943,36.067232 509.96103,35.947657 509.48275,35.828038 C 508.82507,35.708509 508.16741,35.588935 507.50977,35.469316 C 506.91189,35.29 506.22434,35.200319 505.44712,35.200274 C 503.71328,35.200319 502.33818,35.529148 501.32181,36.186761 C 500.36521,36.844463 499.61787,37.681482 499.07979,38.697819 C 498.60149,39.654454 498.30255,40.730621 498.18298,41.926323 C 498.0634,43.062316 498.00362,44.108589 498.00362,45.065146 L 498.00362,71.879662 C 498.00362,72.896051 498.12319,73.912431 498.36234,74.928804 C 498.60149,75.94519 498.96021,76.901783 499.43851,77.798585 C 499.97659,78.635607 500.60435,79.323158 501.32181,79.861241 C 502.09903,80.399325 503.02573,80.668367 504.10191,80.668366 C 505.11828,80.668367 505.98519,80.399325 506.70265,79.861241 C 507.47986,79.323158 508.10763,78.605714 508.58594,77.708905 C 509.06422,76.812102 509.42294,75.795723 509.66211,74.659762 C 509.90124,73.464028 510.02081,72.238393 510.02083,70.982856 L 510.02083,59.952135 C 510.02081,58.218332 510.11049,56.723655 510.28987,55.468102 C 510.529,54.152813 510.79804,53.046752 511.097,52.149918 C 511.4557,51.253141 511.84432,50.505803 512.26285,49.907901 C 512.68134,49.310062 513.09985,48.801872 513.51838,48.38333 C 514.59452,47.307196 515.6109,46.529964 516.56752,46.051633 C 517.58387,45.513585 518.95898,45.065182 520.69283,44.706423 C 521.64939,44.527098 522.5462,44.317844 523.38325,44.078659 C 524.28002,43.839547 525.05725,43.540612 525.71494,43.181852 C 526.37257,42.763381 526.88076,42.225297 527.23952,41.5676 C 527.65799,40.850195 527.86725,39.893602 527.86728,38.697819 C 527.86725,37.382547 527.35906,36.276486 526.34271,35.379635 C 525.3263,34.482875 523.80173,34.034472 521.769,34.034425 M 546.8025,36.814525 C 544.8893,36.81457 543.60388,35.917764 542.94624,34.124106 C 542.28856,32.330541 541.95973,29.998847 541.95975,27.129015 L 541.95975,18.34031 C 541.95973,16.905484 541.75048,15.649956 541.33198,14.573723 C 540.97325,13.497622 540.49495,12.63071 539.89709,11.972984 C 539.359,11.315395 538.73123,10.837099 538.0138,10.538093 C 537.29634,10.179441 536.60879,10.00008 535.95114,10.000009 C 534.39667,10.00008 533.08136,10.807205 532.0052,12.421387 C 530.92902,13.975919 530.39094,16.098359 530.39094,18.788714 L 530.39094,72.328065 C 530.39094,72.985732 530.45073,73.82275 530.57031,74.839124 C 530.68987,75.795723 530.98881,76.722422 531.46711,77.619224 C 531.9454,78.516033 532.60306,79.293265 533.44009,79.950921 C 534.33688,80.548793 535.56252,80.847728 537.11699,80.847728 C 538.49208,80.847728 539.41878,80.787941 539.89709,80.668366 C 540.43516,80.489006 540.94335,80.309644 541.42166,80.130283 C 541.60101,80.010709 541.87005,79.921029 542.22879,79.861241 C 542.5875,79.801455 543.30494,79.771561 544.38113,79.77156 C 545.57685,79.771561 546.53344,79.891135 547.25091,80.130283 C 547.96833,80.369432 548.65588,80.638473 549.31356,80.937408 C 550.32992,81.415705 551.55555,81.864108 552.99047,82.282618 C 554.42533,82.760913 556.66735,83.000061 559.71652,83.000064 C 561.33073,83.000061 563.30371,82.551659 565.63544,81.654854 C 567.9671,80.758047 570.20911,79.353052 572.36149,77.439863 C 574.51378,75.526681 576.33728,73.075412 577.83201,70.086049 C 579.38642,67.096708 580.16365,63.539378 580.16371,59.414051 C 580.16365,55.40834 579.56578,51.851011 578.37009,48.742053 C 577.23409,45.633159 575.64973,43.032422 573.61702,40.939836 C 571.644,38.787542 569.31231,37.173292 566.62193,36.09708 C 563.99126,34.961171 561.21116,34.393194 558.28163,34.393148 C 556.54777,34.393194 555.0232,34.572555 553.70791,34.931232 C 552.39257,35.230213 551.22672,35.559042 550.21037,35.917719 C 549.55269,36.156912 548.92492,36.366167 548.32707,36.545484 C 547.78897,36.724889 547.28078,36.81457 546.8025,36.814525 M 554.33568,72.148704 C 552.60183,72.148713 550.98758,71.789991 549.49292,71.072536 C 548.05801,70.295315 546.80248,69.278935 545.72634,68.023394 C 544.65015,66.767879 543.81313,65.362883 543.21528,63.808403 C 542.61739,62.253957 542.31845,60.6696 542.31847,59.055328 C 542.31845,57.022591 542.64728,55.139299 543.30496,53.405447 C 544.02239,51.67165 544.94908,50.176974 546.08506,48.921414 C 547.22099,47.665918 548.50641,46.709325 549.94133,46.051633 C 551.37619,45.334223 552.87087,44.975501 554.42536,44.975465 C 556.21894,44.975501 557.92287,45.30433 559.53716,45.961952 C 561.21116,46.619645 562.64605,47.546344 563.84183,48.742053 C 565.09732,49.937826 566.0838,51.372715 566.80129,53.046724 C 567.51869,54.661002 567.87742,56.454614 567.87746,58.427564 L 567.87746,58.606925 C 567.87742,60.400559 567.54859,62.134383 566.89097,63.808403 C 566.23327,65.42267 565.30657,66.857559 564.11087,68.113075 C 562.91509,69.368615 561.4802,70.355102 559.8062,71.072536 C 558.13213,71.789991 556.30862,72.148713 554.33568,72.148704 M 629.99952,57.530757 C 629.99947,53.584836 629.28202,50.117187 627.84718,47.127801 C 626.47203,44.078696 624.61863,41.507853 622.28698,39.415265 C 619.95524,37.322759 617.26483,35.738403 614.21572,34.66219 C 611.22633,33.586069 608.11741,33.047986 604.88893,33.047938 C 601.72019,33.047986 598.64116,33.615963 595.65183,34.75187 C 592.66246,35.828083 590.00193,37.442334 587.67025,39.594626 C 585.33854,41.687214 583.45525,44.258057 582.02037,47.307162 C 580.64526,50.296548 579.95771,53.70441 579.95771,57.530757 C 579.95771,61.297364 580.61537,64.675332 581.93068,67.664671 C 583.30578,70.654037 585.12929,73.194986 587.4012,75.287527 C 589.6731,77.380079 592.30373,78.99433 595.2931,80.130283 C 598.34223,81.20645 601.54083,81.744534 604.88893,81.744534 C 608.71528,81.744534 612.18293,81.086876 615.29189,79.77156 C 618.40078,78.396459 621.03141,76.602848 623.18379,74.390721 C 625.39586,72.118819 627.0699,69.547976 628.2059,66.678184 C 629.4016,63.748633 629.99947,60.699494 629.99952,57.530757 M 592.15428,57.530757 C 592.15427,55.677382 592.4831,53.943558 593.14077,52.329279 C 593.79841,50.65527 594.69522,49.190488 595.83119,47.934927 C 596.96712,46.679432 598.31233,45.692946 599.86682,44.975465 C 601.42126,44.258057 603.0953,43.899334 604.88893,43.899297 C 606.62273,43.899334 608.26687,44.228163 609.82137,44.885785 C 611.3758,45.543478 612.72101,46.470177 613.857,47.665885 C 615.0527,48.861659 615.9794,50.296548 616.6371,51.970556 C 617.35451,53.644623 617.71323,55.498021 617.71327,57.530757 C 617.71323,59.443966 617.35451,61.207684 616.6371,62.821916 C 615.91962,64.436184 614.96302,65.84118 613.76732,67.036907 C 612.57154,68.172874 611.19644,69.06968 609.64201,69.727326 C 608.08751,70.384995 606.50316,70.713824 604.88893,70.713814 C 602.91593,70.713824 601.15222,70.325208 599.59777,69.547965 C 598.04329,68.770745 596.69808,67.784259 595.56214,66.588503 C 594.48596,65.33299 593.64894,63.927994 593.05109,62.373513 C 592.4532,60.759281 592.15427,59.145031 592.15428,57.530757"
       style="font-size:89.68065643px;font-style:normal;font-variant:normal;font-weight:bold;font-stretch:normal;text-align:start;line-height:125%;writing-mode:lr-tb;text-anchor:start;fill:#ffffff;fill-opacity:1;stroke:none;stroke-width:1px;stroke-linecap:butt;stroke-linejoin:miter;stroke-opacity:1;font-family:Distro;-inkscape-font-specification:Distro Bold" />
  </g>
</svg>
