<?xml version="1.0" encoding="UTF-8" standalone="no"?>
<!-- Created with Inkscape (http://www.inkscape.org/) -->
<svg
   xmlns:dc="http://purl.org/dc/elements/1.1/"
   xmlns:cc="http://creativecommons.org/ns#"
   xmlns:rdf="http://www.w3.org/1999/02/22-rdf-syntax-ns#"
   xmlns:svg="http://www.w3.org/2000/svg"
   xmlns="http://www.w3.org/2000/svg"
   xmlns:sodipodi="http://sodipodi.sourceforge.net/DTD/sodipodi-0.dtd"
   xmlns:inkscape="http://www.inkscape.org/namespaces/inkscape"
   width="204.86818"
   height="232.18651"
   id="svg3604"
   sodipodi:version="0.32"
   inkscape:version="0.46"
   sodipodi:docbase="/home/ajp"
   sodipodi:docname="zebpigbw.svg"
   inkscape:output_extension="org.inkscape.output.svg.inkscape"
   inkscape:export-filename="/home/ajp/exherbo3.png"
   inkscape:export-xdpi="43.599186"
   inkscape:export-ydpi="43.599186"
   version="1.0">
  <defs
     id="defs3606">
    <inkscape:perspective
       sodipodi:type="inkscape:persp3d"
       inkscape:vp_x="0 : 116.09325 : 1"
       inkscape:vp_y="0 : 1000 : 0"
       inkscape:vp_z="204.86818 : 116.09325 : 1"
       inkscape:persp3d-origin="102.43409 : 77.395503 : 1"
       id="perspective2487" />
  </defs>
  <sodipodi:namedview
     id="base"
     pagecolor="#ffffff"
     bordercolor="#666666"
     borderopacity="1.0"
     gridtolerance="10000"
     guidetolerance="10"
     objecttolerance="10"
     inkscape:pageopacity="0.0"
     inkscape:pageshadow="2"
     inkscape:zoom="1.1358065"
     inkscape:cx="5.6284249"
     inkscape:cy="186.45127"
     inkscape:document-units="px"
     inkscape:current-layer="layer1"
     inkscape:window-width="1280"
     inkscape:window-height="725"
     inkscape:window-x="0"
     inkscape:window-y="25"
     width="204.87px"
     height="1052.36px"
     showgrid="false" />
  <metadata
     id="metadata3609">
    <rdf:RDF>
      <cc:Work
         rdf:about="">
        <dc:format>image/svg+xml</dc:format>
        <dc:type
           rdf:resource="http://purl.org/dc/dcmitype/StillImage" />
      </cc:Work>
    </rdf:RDF>
  </metadata>
  <g
     inkscape:label="Layer 1"
     inkscape:groupmode="layer"
     id="layer1"
     transform="translate(-0.2159056,-0.61495)">
    <path
       id="path6457"
       d="M 38.77739,26.82172 C 38.00493,26.36253 29.19059,20.9871 28.22481,14.22663 C 27.21466,7.15556 28.22481,3.11495 28.22481,3.11495 C 28.22482,3.11495 35.98863,5.55783 40.85171,10.69109 C 43.32536,13.30217 45.08858,15.42716 46.34482,17.13728"
       style="fill:#ffffff;fill-opacity:1;fill-rule:evenodd;stroke:#000000;stroke-width:5;stroke-linecap:butt;stroke-linejoin:miter;stroke-miterlimit:4;stroke-dasharray:none;stroke-opacity:1" />
    <path
       id="path6459"
       d="M 124.79588,117.78516 C 124.79588,117.78516 149.80251,111.5335 155.53319,119.86904 C 161.26388,128.20458 163.34776,129.24653 156.05416,130.80944 C 148.76056,132.37236 136.77822,132.89333 136.77822,132.89333 L 124.79588,117.78516 z"
       style="fill:#fff6f6;fill-opacity:1;fill-rule:evenodd;stroke:#000000;stroke-width:8;stroke-linecap:butt;stroke-linejoin:miter;stroke-miterlimit:4;stroke-dasharray:none;stroke-opacity:1" />
    <path
       id="path6461"
       d="M 57.0696,122.4739 C 57.0696,122.4739 35.70977,112.05447 22.68549,124.03681 C 9.66121,136.01916 51.85989,139.14498 51.85989,139.14498 L 57.0696,122.4739 z"
       style="fill:#fff6f6;fill-opacity:1;fill-rule:evenodd;stroke:#000000;stroke-width:8;stroke-linecap:butt;stroke-linejoin:miter;stroke-miterlimit:4;stroke-dasharray:none;stroke-opacity:1" />
    <path
       id="path6463"
       d="M 54.97628,105.87033 C 54.97628,105.87033 62.34393,112.50121 41.71451,137.55121 C 21.0851,162.60121 52.76599,188.38798 52.76599,188.38798 C 52.76599,188.38798 80.76305,220.06887 113.1807,211.96445 C 145.59835,203.86004 141.91452,204.59681 155.17629,191.33504 C 168.43806,178.07327 158.86012,154.4968 155.17629,141.9718 C 151.49247,129.4468 115.39099,99.23944 115.39099,99.23944 L 54.97628,105.87033 z"
       style="fill:#ffffff;fill-opacity:1;fill-rule:evenodd;stroke:#000000;stroke-width:5;stroke-linecap:butt;stroke-linejoin:miter;stroke-miterlimit:4;stroke-dasharray:none;stroke-opacity:1" />
    <path
       sodipodi:nodetypes="cccccccccc"
       id="path6465"
       d="M 52.97355,105.14037 C 43.09512,93.71905 33.09223,81.17956 30.124,66.00482 C 29.045,53.57105 29.86817,40.26008 36.54894,29.35634 C 41.12698,21.66644 47.05032,14.13956 55.80739,11.07816 C 67.32789,6.63206 80.1989,6.10187 92.27478,8.21874 C 111.72948,12.16566 131.47943,26.62709 138.44581,45.18682 C 144.10371,60.41841 150.2132,73.5262 137.39759,101.60482 C 130.29617,114.9564 112.70564,121.31534 103.21902,122.07341 C 95.99643,122.68612 84.21302,120.21115 77.0224,118.63688 C 70.34044,117.81841 58.12607,110.58096 52.97355,105.14037 z"
       style="fill:#ffffff;fill-opacity:1;fill-rule:evenodd;stroke:#000000;stroke-width:5;stroke-linecap:butt;stroke-linejoin:miter;stroke-miterlimit:4;stroke-dasharray:none;stroke-opacity:1" />
    <path
       id="path6467"
       d="M 117.83313,19.92421 C 120.77343,18.06214 128.51098,14.53095 135.30098,23.318 C 139.8956,29.26398 136.96971,33.1852 133.25628,35.54601"
       style="fill:#ffffff;fill-opacity:1;fill-rule:evenodd;stroke:#000000;stroke-width:5;stroke-linecap:butt;stroke-linejoin:miter;stroke-miterlimit:4;stroke-dasharray:none;stroke-opacity:1" />
    <path
       id="path6469"
       d="M 78.48139,7.03249 C 70.74983,7.06178 62.99421,8.28493 55.79389,11.06374 C 52.71092,12.14152 49.98936,13.78552 47.54389,15.78249 L 47.41889,16.25124 C 50.95443,36.95936 49.93999,28.38369 50.95014,36.96999 C 51.96028,45.55628 49.43221,22.82151 60.54389,12.71999 C 71.65557,2.61846 66.71353,22.63517 66.71353,22.63517 C 66.71353,22.63517 69.12907,24.32547 76.20014,29.37624 C 83.27122,34.42699 78.23139,29.87624 78.23139,29.87624 C 78.23139,29.87624 75.70601,16.24029 78.23139,14.21999 C 80.75677,12.19968 87.32593,5.64385 90.35639,13.21999 C 93.38685,20.79614 89.32514,28.87624 89.32514,28.87624 C 89.32515,28.87624 102.98805,35.93986 108.54389,20.28249 C 109.52317,17.52269 110.3115,15.95515 110.95014,15.21999 C 104.99648,11.91892 98.6071,9.50714 92.26264,8.21999 C 87.73418,7.42616 83.12032,7.01492 78.48139,7.03249 z M 112.82514,16.28249 C 113.73561,19.55736 113.57514,26.84499 113.57514,26.84499 C 113.57513,26.84499 113.58688,29.87116 118.63764,30.37624 C 123.6884,30.88131 113.00371,38.64856 113.00371,38.64856 C 113.00372,38.64855 110.55055,44.03249 116.10639,44.03249 C 121.66224,44.03249 113.57324,40.50124 126.20014,40.50124 C 138.82705,40.50124 139.93794,60.18874 139.93794,60.18874 C 141.49433,66.72562 144.5232,79.38528 135.43183,94.03249 C 126.34046,108.6797 116.64309,114.69325 104.79267,116.33279 C 79.66766,117.44759 65.10639,107.65749 65.10639,107.65749 C 65.10639,107.6575 54.98917,103.12894 44.88764,93.53249 C 44.21003,92.88876 43.5008,92.57966 42.76264,92.53249 C 45.97308,96.92296 49.4846,101.08329 52.98139,105.12624 C 58.13391,110.56683 70.33067,117.80776 77.01264,118.62624 C 84.20326,120.20051 96.00879,122.67645 103.23139,122.06374 C 112.71801,121.30567 131.22372,114.94657 138.32514,101.59499 C 151.14075,73.51637 144.10804,60.42033 138.45014,45.18874 C 133.99504,33.31952 124.31592,23.12132 112.82514,16.28249 z"
       style="fill:#000000;fill-opacity:1;fill-rule:evenodd;stroke:#000000;stroke-width:1px;stroke-linecap:butt;stroke-linejoin:miter;stroke-opacity:1"
       sodipodi:nodetypes="ccccsscscsscscccccscsscsccsccccccc" />
    <path
       sodipodi:nodetypes="cscsssc"
       id="path6471"
       d="M 46.40755,80.8967 C 46.40755,80.8967 49.43801,58.67334 73.17659,59.17842 C 96.91518,59.68349 113.5827,68.26979 113.5827,68.26979 C 113.5827,68.26979 127.21976,77.86624 126.71468,86.95761 C 126.2096,96.04898 117.62331,103.62513 106.51163,105.14036 C 99.54124,106.09087 65.60045,102.61498 57.51923,99.07944 C 49.43801,95.54391 45.90247,84.93731 46.40755,80.8967 z"
       style="fill:none;fill-opacity:1;fill-rule:evenodd;stroke:#000000;stroke-width:5;stroke-linecap:butt;stroke-linejoin:miter;stroke-miterlimit:4;stroke-dasharray:none;stroke-opacity:1" />
    <path
       sodipodi:nodetypes="cscsc"
       id="path6473"
       d="M 69.68276,43.09937 C 69.68276,43.09937 60.21721,42.24566 63.11677,48.65521 C 65.51588,53.95851 68.16753,53.83224 68.16753,53.83224 C 68.16753,53.83224 72.46068,55.22121 74.22845,49.16029 C 76.2134,42.35477 71.32426,42.9731 69.68276,43.09937 z"
       style="fill:none;fill-opacity:1;fill-rule:evenodd;stroke:#000000;stroke-width:8;stroke-linecap:butt;stroke-linejoin:miter;stroke-miterlimit:4;stroke-dasharray:none;stroke-opacity:1" />
    <path
       sodipodi:nodetypes="csssc"
       id="path6475"
       d="M 99.54481,35.06103 C 99.54481,35.06103 91.21105,37.46014 91.8424,44.40493 C 92.47375,51.34973 97.01943,55.01154 100.17616,54.50646 C 103.33289,54.00138 109.01499,52.99123 108.00484,45.41509 C 106.99469,37.83894 102.95408,34.55595 99.54481,35.06103 z"
       style="fill:none;fill-opacity:1;fill-rule:evenodd;stroke:#000000;stroke-width:8;stroke-linecap:butt;stroke-linejoin:miter;stroke-miterlimit:4;stroke-dasharray:none;stroke-opacity:1" />
    <path
       id="path6477"
       d="M 108.02686,76.72982 C 108.02686,76.72982 100.70325,76.09847 99.6931,83.67461 C 98.68295,91.25076 104.36505,93.90241 106.13282,93.77614 C 107.90059,93.64987 113.45643,95.03883 114.21404,86.32626 C 114.97166,77.6137 107.90059,76.35101 108.02686,76.72982 z"
       style="fill:#000000;fill-opacity:1;fill-rule:evenodd;stroke:none;stroke-width:1px;stroke-linecap:butt;stroke-linejoin:miter;stroke-opacity:1" />
    <path
       sodipodi:nodetypes="csssc"
       id="path6479"
       d="M 67.49449,72.43666 C 67.49449,72.43666 60.80223,73.57309 61.55984,78.49758 C 62.31746,83.42208 64.84284,84.5585 68.63091,84.30596 C 72.41898,84.05342 74.56555,78.62385 73.17659,75.84593 C 71.78764,73.06801 67.62076,72.31039 67.49449,72.43666 z"
       style="fill:#000000;fill-opacity:1;fill-rule:evenodd;stroke:none;stroke-width:1px;stroke-linecap:butt;stroke-linejoin:miter;stroke-opacity:1" />
    <path
       style="fill:#000000;fill-opacity:1;fill-rule:evenodd;stroke:none;stroke-width:1px;stroke-linecap:butt;stroke-linejoin:miter;stroke-opacity:1"
       d="M 41.70096,142.79178 C 46.58318,139.08287 50.01566,134.24672 55.69598,130.38932 C 61.84794,127.3856 67.68639,125.255 73.78762,126.78054 C 82.46029,127.0368 91.04014,128.53141 99.67558,129.15636 C 106.46962,128.93643 113.08436,127.00648 119.34934,124.47094 C 122.67996,123.41213 126.71304,121.46564 126.63762,125.18692 C 125.59307,128.0549 122.98575,130.0129 121.14873,132.38383 C 119.31314,134.43705 118.19029,137.19273 115.48012,138.31255 C 109.25128,141.42684 102.11489,139.76134 95.4852,139.46338 C 85.46204,138.66436 75.45002,137.13516 65.37794,137.34832 C 58.29116,137.90375 51.44718,140.21778 45.08725,143.31277"
       id="path6481"
       sodipodi:nodetypes="ccccccccccc" />
    <path
       style="fill:#000000;fill-opacity:1;fill-rule:evenodd;stroke:none;stroke-width:1px;stroke-linecap:butt;stroke-linejoin:miter;stroke-opacity:1"
       d="M 51.5994,158.16046 C 46.94835,158.99927 44.83312,150.95017 49.39429,149.51267 C 55.37215,145.73761 63.16809,142.8648 69.99638,146.15518 C 82.6089,151.16385 96.38934,150.60104 109.70165,151.04054 C 116.53051,151.30145 122.63603,147.28298 127.92472,143.3834 C 132.08866,141.25415 133.89039,136.32984 138.18294,134.58919 C 141.66545,134.72399 141.46697,139.4345 140.86866,141.93378 C 138.5716,150.36256 130.5503,155.45757 123.06778,158.89779 C 118.73517,161.08842 114.0765,162.65325 109.19595,162.87063 C 102.85742,163.26627 96.48368,162.8043 90.17765,162.20686 C 82.31219,160.87263 74.77499,155.97766 66.58589,157.72293 C 62.25275,158.86988 52.11952,158.16087 51.5994,158.16046 z"
       id="path6483"
       sodipodi:nodetypes="cccccccccccc" />
    <path
       sodipodi:nodetypes="cccccccccccc"
       id="path6485"
       d="M 60.9769,180.04125 C 64.63919,180.17781 68.73783,179.30608 71.92979,181.61729 C 82.28996,184.07928 92.98896,182.50578 103.49284,182.39165 C 111.51592,181.44518 119.12015,178.50616 126.71095,175.91381 C 130.14618,173.74854 133.19767,171.02202 136.6192,168.86272 C 138.59136,166.33249 145.97071,162.4275 143.26141,165.68587 C 140.59539,172.48597 137.3201,176.53052 134.52762,178.36997 C 131.08781,183.7808 128.67653,190.76823 122.29151,193.4045 C 114.16772,196.56248 105.74429,197.07283 96.9766,196.50955 C 89.91898,196.25179 82.56279,197.89043 75.54051,197.09916 C 71.78762,196.68079 67.63751,195.04081 66.25309,191.21079 C 64.20787,187.70163 60.1873,184.5522 60.9769,180.04125 z"
       style="fill:none;fill-opacity:1;fill-rule:evenodd;stroke:none;stroke-width:1px;stroke-linecap:butt;stroke-linejoin:miter;stroke-opacity:1" />
    <path
       id="path6487"
       d="M 66.96805,182.90657 C 85.39343,183.00974 104.42978,183.69098 121.99658,177.19412 C 126.06507,175.56097 130.42399,174.08369 133.42169,170.70715 C 135.31369,169.01086 137.5609,166.68383 140.34272,167.25515 C 142.63678,169.45393 139.36702,172.79405 137.79465,174.6442 C 134.55127,177.56017 132.52692,181.57473 129.89853,185.02632 C 127.32307,188.63027 124.35853,192.10999 120.4669,194.33787 C 105.80983,197.27881 90.81001,197.60169 75.96808,198.97104 C 70.54455,198.8829 64.38062,197.916 60.66758,193.5784 C 58.40808,190.0519 60.20154,184.73961 63.83439,182.94325 C 64.19163,182.86947 64.53814,182.76024 64.88416,182.64608"
       style="fill:#000000;fill-opacity:1;fill-rule:evenodd;stroke:none;stroke-width:1px;stroke-linecap:butt;stroke-linejoin:miter;stroke-opacity:1" />
    <path
       sodipodi:nodetypes="cssssc"
       id="path6489"
       d="M 8.19172,167.75857 C 8.19172,167.75857 27.73872,152.91316 46.87187,165.54827 C 66.39614,178.44166 71.18511,182.12548 77.44761,196.86078 C 83.71011,211.59607 76.34246,218.96372 73.76378,221.5424 C 70.89844,224.40774 67.1329,232.22549 30.66304,212.70122 C -5.80681,193.17695 5.02181,169.00369 8.19172,167.75857 z"
       style="fill:#ffffff;fill-opacity:1;fill-rule:evenodd;stroke:#000000;stroke-width:8;stroke-linecap:butt;stroke-linejoin:miter;stroke-miterlimit:4;stroke-dasharray:none;stroke-opacity:1" />
    <path
       style="fill:#000000;fill-opacity:1;fill-rule:evenodd;stroke:none;stroke-width:1px;stroke-linecap:butt;stroke-linejoin:miter;stroke-opacity:1"
       d="M 10.03363,193.54535 C 11.9104,191.81384 14.84878,191.26489 16.04152,188.81936 C 18.40962,185.37919 20.07945,183.17046 21.32694,179.92716 C 23.36502,176.22047 25.43965,171.10008 25.68158,169.83095 C 25.53579,168.0458 27.56765,165.92183 29.04293,167.38985 C 30.77107,169.59774 30.33333,172.61175 31.43256,175.085 C 32.88653,180.01679 33.81688,185.36784 32.31281,190.40345 C 31.53751,192.90782 29.74977,195.10661 27.31806,196.15184 C 25.39811,197.23222 23.31099,198.23221 21.9634,200.04581 C 21.39269,201.72162 20.03756,203.68059 18.02271,203.3947 C 15.67204,202.81731 14.84769,200.2929 13.51563,198.56899 C 12.10648,197.13317 12.07235,194.56901 10.36332,193.56475 L 10.03363,193.54535 L 10.03363,193.54535 z"
       id="path6491"
       sodipodi:nodetypes="cccccccccccccc" />
    <path
       style="fill:#000000;fill-opacity:1;fill-rule:evenodd;stroke:none;stroke-width:1px;stroke-linecap:butt;stroke-linejoin:miter;stroke-opacity:1"
       d="M 22.927,208.64901 C 27.52052,209.19741 32.48536,208.26199 36.11053,205.25259 C 40.15633,202.25808 40.87798,201.005 43.61121,197.36701 C 45.9431,194.14056 46.69975,190.08062 48.98278,186.82593 C 51.5445,184.24798 52.34725,183.24032 53.3778,185.35607 C 54.91881,189.24607 52.97672,193.34825 53.42012,197.34349 C 53.33327,203.65478 51.11787,210.36365 45.92308,214.28814 C 44.60153,215.25234 43.02014,215.90638 42.06381,217.29674 C 40.94908,218.6628 39.15554,220.15755 37.30781,219.29279 C 35.02576,218.3048 33.80101,215.72316 31.29907,215.1096 C 28.05622,213.54177 26.73876,209.24086 22.927,208.64901 z"
       id="path6493"
       sodipodi:nodetypes="ccccccccccc" />
    <path
       sodipodi:nodetypes="csscsc"
       id="path6495"
       d="M 135.21531,212.08098 C 135.21531,212.08098 130.52656,189.15824 144.59279,175.09201 C 158.65902,161.02578 175.85107,157.89995 193.04313,168.84035 C 210.23519,179.78075 194.51097,208.53577 194.51097,208.53577 C 194.51097,208.53577 180.79603,229.9623 160.22193,228.75206 C 151.36542,228.23109 135.85743,218.02787 135.21531,212.08098 z"
       style="fill:#ffffff;fill-opacity:1;fill-rule:evenodd;stroke:#000000;stroke-width:8;stroke-linecap:butt;stroke-linejoin:miter;stroke-miterlimit:4;stroke-dasharray:none;stroke-opacity:1" />
    <path
       style="fill:#000000;fill-opacity:1;fill-rule:evenodd;stroke:none;stroke-width:1px;stroke-linecap:butt;stroke-linejoin:miter;stroke-opacity:1"
       d="M 137.2992,190.20019 C 139.47513,189.62728 138.32324,191.27821 141.06799,193.87893 C 142.5194,196.95629 147.02494,196.74583 150.21038,198.10796 C 154.13277,199.12975 157.86271,200.74002 161.62588,202.21969 C 164.77987,204.28477 165.77205,206.68965 171.12593,208.42517 C 172.97976,208.8418 175.99225,208.63296 175.92351,210.99134 C 175.54864,213.0247 173.04414,213.60246 171.29983,213.17965 C 166.09176,212.83168 160.52835,213.79914 155.69379,211.32198 C 150.91002,208.99509 145.75408,207.59036 140.72104,205.94784 C 138.7488,204.91514 136.11038,204.25783 135.30064,201.91696 C 134.36438,199.04793 134.88967,195.9762 134.53097,193.03203 C 134.68705,191.64595 135.70143,189.99424 137.2992,190.20019 z"
       id="path6497"
       sodipodi:nodetypes="cccccccccccc" />
    <path
       sodipodi:nodetypes="cccccc"
       id="path6499"
       d="M 145.37424,174.44078 C 151.25569,182.52679 161.59324,185.13888 169.75215,190.24191 C 177.48657,194.0599 185.61498,200.44097 195.35928,192.98185 C 191.71423,186.00712 185.24915,187.02902 180.60602,183.97306 C 173.02838,179.03212 163.52579,175.95719 158.8496,167.62194 C 153.68673,163.44088 149.43534,171.48638 146.02546,174.18031"
       style="fill:#000000;fill-opacity:1;fill-rule:evenodd;stroke:none;stroke-width:1px;stroke-linecap:butt;stroke-linejoin:miter;stroke-opacity:1" />
  </g>
</svg>
